<mxfile>
    <diagram id="9DxwYiumUKpeeF6jS13S" name="第 1 页">
        <mxGraphModel dx="1302" dy="738" grid="1" gridSize="10" guides="1" tooltips="1" connect="1" arrows="1" fold="1" page="1" pageScale="1" pageWidth="827" pageHeight="1169" background="#F4F1DE" math="0" shadow="0">
            <root>
                <mxCell id="0"/>
                <mxCell id="1" parent="0"/>
                <mxCell id="77" value="" style="edgeStyle=orthogonalEdgeStyle;curved=0;rounded=1;sketch=0;orthogonalLoop=1;jettySize=auto;html=1;fontColor=#393C56;strokeColor=#E07A5F;fillColor=#F2CC8F;" edge="1" parent="1" source="2" target="76">
                    <mxGeometry relative="1" as="geometry"/>
                </mxCell>
                <mxCell id="2" value="递归查询和迭代查询" style="ellipse;whiteSpace=wrap;html=1;fillColor=#F2CC8F;strokeColor=#E07A5F;fontColor=#393C56;" parent="1" vertex="1">
                    <mxGeometry x="1260" width="120" height="60" as="geometry"/>
                </mxCell>
                <mxCell id="46" value="" style="edgeStyle=orthogonalEdgeStyle;rounded=0;orthogonalLoop=1;jettySize=auto;html=1;strokeColor=#E07A5F;fontColor=#393C56;labelBackgroundColor=#F4F1DE;" parent="1" source="11" target="36" edge="1">
                    <mxGeometry relative="1" as="geometry"/>
                </mxCell>
                <mxCell id="11" value="收到域名" style="ellipse;whiteSpace=wrap;html=1;fillColor=#F2CC8F;strokeColor=#E07A5F;fontColor=#393C56;" parent="1" vertex="1">
                    <mxGeometry x="121.5" y="140" width="120" height="60" as="geometry"/>
                </mxCell>
                <mxCell id="14" value="" style="edgeStyle=orthogonalEdgeStyle;rounded=0;orthogonalLoop=1;jettySize=auto;html=1;strokeColor=#E07A5F;fontColor=#393C56;labelBackgroundColor=#F4F1DE;" parent="1" source="15" target="20" edge="1">
                    <mxGeometry relative="1" as="geometry"/>
                </mxCell>
                <mxCell id="15" value="本地域名服务器 递归查询" style="whiteSpace=wrap;html=1;fillColor=#F2CC8F;strokeColor=#E07A5F;fontColor=#393C56;" parent="1" vertex="1">
                    <mxGeometry x="115.25" y="415" width="132.5" height="60" as="geometry"/>
                </mxCell>
                <mxCell id="75" value="" style="edgeStyle=orthogonalEdgeStyle;curved=0;rounded=1;sketch=0;orthogonalLoop=1;jettySize=auto;html=1;fontColor=#393C56;strokeColor=#E07A5F;fillColor=#F2CC8F;" edge="1" parent="1" source="17" target="27">
                    <mxGeometry relative="1" as="geometry"/>
                </mxCell>
                <mxCell id="17" value="本地域名服务器向跟域名服务器发出迭代查询报文， 根域名服务器会返回 IP地址" style="whiteSpace=wrap;html=1;fillColor=#F2CC8F;strokeColor=#E07A5F;fontColor=#393C56;" parent="1" vertex="1">
                    <mxGeometry x="354" y="558.07" width="166" height="63.87" as="geometry"/>
                </mxCell>
                <mxCell id="18" value="是" style="edgeStyle=orthogonalEdgeStyle;rounded=0;orthogonalLoop=1;jettySize=auto;html=1;entryX=0.5;entryY=0;entryDx=0;entryDy=0;strokeColor=#E07A5F;fontColor=#393C56;labelBackgroundColor=#F4F1DE;" parent="1" source="20" target="49" edge="1">
                    <mxGeometry relative="1" as="geometry">
                        <mxPoint x="182" y="920" as="targetPoint"/>
                    </mxGeometry>
                </mxCell>
                <mxCell id="19" value="否" style="edgeStyle=orthogonalEdgeStyle;rounded=0;orthogonalLoop=1;jettySize=auto;html=1;strokeColor=#E07A5F;fontColor=#393C56;labelBackgroundColor=#F4F1DE;" parent="1" source="20" target="17" edge="1">
                    <mxGeometry relative="1" as="geometry"/>
                </mxCell>
                <mxCell id="20" value="查到对应IP" style="rhombus;whiteSpace=wrap;html=1;fillColor=#F2CC8F;strokeColor=#E07A5F;fontColor=#393C56;" parent="1" vertex="1">
                    <mxGeometry x="114" y="550" width="135" height="80" as="geometry"/>
                </mxCell>
                <mxCell id="22" value="是" style="edgeStyle=orthogonalEdgeStyle;rounded=0;orthogonalLoop=1;jettySize=auto;html=1;exitX=0;exitY=0.5;exitDx=0;exitDy=0;entryX=1;entryY=0.5;entryDx=0;entryDy=0;strokeColor=#E07A5F;fontColor=#393C56;labelBackgroundColor=#F4F1DE;" parent="1" source="24" target="49" edge="1">
                    <mxGeometry relative="1" as="geometry">
                        <mxPoint x="241.5" y="940" as="targetPoint"/>
                        <Array as="points">
                            <mxPoint x="300" y="722"/>
                            <mxPoint x="300" y="935"/>
                            <mxPoint x="242" y="935"/>
                        </Array>
                    </mxGeometry>
                </mxCell>
                <mxCell id="31" style="edgeStyle=orthogonalEdgeStyle;rounded=0;orthogonalLoop=1;jettySize=auto;html=1;entryX=0.5;entryY=0;entryDx=0;entryDy=0;strokeColor=#E07A5F;fontColor=#393C56;labelBackgroundColor=#F4F1DE;" parent="1" source="24" target="50" edge="1">
                    <mxGeometry relative="1" as="geometry">
                        <mxPoint x="464" y="950" as="targetPoint"/>
                        <Array as="points"/>
                    </mxGeometry>
                </mxCell>
                <mxCell id="24" value="找到对应IP" style="rhombus;whiteSpace=wrap;html=1;fillColor=#F2CC8F;strokeColor=#E07A5F;fontColor=#393C56;" parent="1" vertex="1">
                    <mxGeometry x="400" y="685" width="140" height="75" as="geometry"/>
                </mxCell>
                <mxCell id="80" value="" style="edgeStyle=orthogonalEdgeStyle;curved=0;rounded=1;sketch=0;orthogonalLoop=1;jettySize=auto;html=1;fontColor=#393C56;strokeColor=#E07A5F;fillColor=#F2CC8F;entryX=1;entryY=0.5;entryDx=0;entryDy=0;" edge="1" parent="1" source="27" target="24">
                    <mxGeometry relative="1" as="geometry">
                        <mxPoint x="620" y="720" as="targetPoint"/>
                        <Array as="points">
                            <mxPoint x="880" y="720"/>
                            <mxPoint x="540" y="720"/>
                        </Array>
                    </mxGeometry>
                </mxCell>
                <mxCell id="27" value="根域名服务器收到迭代查询请求，要么给出所有查询的IP地址，要么告诉本地域名服务器，下一步应当向哪一个域名服务器进行查询，然后让本地域名服务器进行后续的查询，而不是替本地域名服务器进行查询。&lt;br&gt;&lt;br&gt;根域名服务器通常是把自己知道的顶级域名服务器的IP地址告诉本地域名服务器，让本地域名服务器在想顶级域名服务器查询。" style="whiteSpace=wrap;html=1;align=left;fillColor=#F2CC8F;strokeColor=#E07A5F;fontColor=#393C56;" parent="1" vertex="1">
                    <mxGeometry x="580" y="535.7300000000001" width="600" height="108.56" as="geometry"/>
                </mxCell>
                <mxCell id="33" style="edgeStyle=orthogonalEdgeStyle;rounded=0;orthogonalLoop=1;jettySize=auto;html=1;entryX=0.5;entryY=0;entryDx=0;entryDy=0;strokeColor=#E07A5F;fontColor=#393C56;labelBackgroundColor=#F4F1DE;" parent="1" source="32" target="11" edge="1">
                    <mxGeometry relative="1" as="geometry"/>
                </mxCell>
                <mxCell id="32" value="&lt;h1&gt;&lt;font style=&quot;font-size: 18px&quot;&gt;DNS解析流程&lt;/font&gt;&lt;/h1&gt;" style="text;html=1;align=center;verticalAlign=middle;resizable=0;points=[];autosize=1;strokeColor=none;fontColor=#393C56;" parent="1" vertex="1">
                    <mxGeometry x="116.5" y="40" width="130" height="50" as="geometry"/>
                </mxCell>
                <mxCell id="34" value="为了提高DNS查询效率，并减轻根域名服务器的负荷和减少因特网上的DNS查询豹纹数量，&lt;br&gt;在域名服务器中广泛地使用了高速缓存 (有时也称为高速缓存域名服务器),&lt;br&gt;&lt;br&gt;高速缓存用来存放&amp;nbsp;&lt;b&gt;最近查询过的域名&amp;nbsp;&lt;/b&gt;以及从何处获得域名映射信息的记录&lt;br&gt;" style="ellipse;shape=cloud;whiteSpace=wrap;html=1;fillColor=#F2CC8F;strokeColor=#E07A5F;fontColor=#393C56;" parent="1" vertex="1">
                    <mxGeometry x="330" y="105" width="620" height="190" as="geometry"/>
                </mxCell>
                <mxCell id="37" value="" style="edgeStyle=orthogonalEdgeStyle;rounded=0;orthogonalLoop=1;jettySize=auto;html=1;strokeColor=#E07A5F;fontColor=#393C56;labelBackgroundColor=#F4F1DE;" parent="1" source="36" target="15" edge="1">
                    <mxGeometry relative="1" as="geometry"/>
                </mxCell>
                <mxCell id="38" value="无" style="edgeLabel;html=1;align=center;verticalAlign=middle;resizable=0;points=[];fontColor=#393C56;labelBackgroundColor=#F4F1DE;" parent="37" vertex="1" connectable="0">
                    <mxGeometry x="0.0312" y="-1" relative="1" as="geometry">
                        <mxPoint x="1" y="-1" as="offset"/>
                    </mxGeometry>
                </mxCell>
                <mxCell id="45" value="有" style="edgeStyle=orthogonalEdgeStyle;rounded=0;orthogonalLoop=1;jettySize=auto;html=1;exitX=0;exitY=0.5;exitDx=0;exitDy=0;entryX=0;entryY=0.5;entryDx=0;entryDy=0;strokeColor=#E07A5F;fontColor=#393C56;labelBackgroundColor=#F4F1DE;" parent="1" source="36" target="49" edge="1">
                    <mxGeometry relative="1" as="geometry">
                        <mxPoint x="70" y="900" as="targetPoint"/>
                        <Array as="points">
                            <mxPoint x="70" y="295"/>
                            <mxPoint x="70" y="935"/>
                        </Array>
                    </mxGeometry>
                </mxCell>
                <mxCell id="36" value="&lt;span&gt;主机高速缓存中查找&lt;/span&gt;" style="rhombus;whiteSpace=wrap;html=1;fillColor=#F2CC8F;strokeColor=#E07A5F;fontColor=#393C56;" parent="1" vertex="1">
                    <mxGeometry x="86.5" y="255" width="190" height="80" as="geometry"/>
                </mxCell>
                <mxCell id="49" value="&lt;b&gt;&lt;font style=&quot;font-size: 14px&quot;&gt;返回IP&lt;/font&gt;&lt;/b&gt;" style="shape=ext;double=1;rounded=1;whiteSpace=wrap;html=1;fillColor=#F2CC8F;strokeColor=#E07A5F;fontColor=#393C56;" parent="1" vertex="1">
                    <mxGeometry x="121.5" y="890" width="120" height="80" as="geometry"/>
                </mxCell>
                <mxCell id="50" value="&lt;span style=&quot;text-align: left&quot;&gt;返回报错&lt;/span&gt;&lt;br style=&quot;text-align: left&quot;&gt;&lt;span style=&quot;text-align: left&quot;&gt;或&lt;/span&gt;&lt;br style=&quot;text-align: left&quot;&gt;&lt;span style=&quot;text-align: left&quot;&gt;表示无法查询到所需的IP地址&lt;/span&gt;" style="rounded=1;whiteSpace=wrap;html=1;fillColor=#F2CC8F;strokeColor=#E07A5F;fontColor=#393C56;" parent="1" vertex="1">
                    <mxGeometry x="410" y="940" width="120" height="60" as="geometry"/>
                </mxCell>
                <mxCell id="51" style="edgeStyle=orthogonalEdgeStyle;rounded=0;orthogonalLoop=1;jettySize=auto;html=1;strokeColor=#E07A5F;fontColor=#393C56;labelBackgroundColor=#F4F1DE;" parent="1" source="52" edge="1">
                    <mxGeometry relative="1" as="geometry">
                        <mxPoint x="1780" y="140" as="targetPoint"/>
                    </mxGeometry>
                </mxCell>
                <mxCell id="52" value="DNS域名解析过程" style="ellipse;whiteSpace=wrap;html=1;fillColor=#F2CC8F;strokeColor=#E07A5F;fontColor=#393C56;" parent="1" vertex="1">
                    <mxGeometry x="1720" y="50" width="120" height="60" as="geometry"/>
                </mxCell>
                <mxCell id="53" style="edgeStyle=orthogonalEdgeStyle;rounded=0;orthogonalLoop=1;jettySize=auto;html=1;strokeColor=#E07A5F;fontColor=#393C56;labelBackgroundColor=#F4F1DE;" parent="1" source="54" edge="1">
                    <mxGeometry relative="1" as="geometry">
                        <mxPoint x="1780" y="200" as="targetPoint"/>
                    </mxGeometry>
                </mxCell>
                <mxCell id="54" value="一个应用程序需要把主机名解析为IP地址" style="whiteSpace=wrap;html=1;fillColor=#F2CC8F;strokeColor=#E07A5F;fontColor=#393C56;" parent="1" vertex="1">
                    <mxGeometry x="1720" y="130" width="120" height="50" as="geometry"/>
                </mxCell>
                <mxCell id="55" style="edgeStyle=orthogonalEdgeStyle;rounded=0;orthogonalLoop=1;jettySize=auto;html=1;entryX=0.5;entryY=0;entryDx=0;entryDy=0;strokeColor=#E07A5F;fontColor=#393C56;labelBackgroundColor=#F4F1DE;" parent="1" source="56" target="58" edge="1">
                    <mxGeometry relative="1" as="geometry">
                        <mxPoint x="1780" y="290" as="targetPoint"/>
                    </mxGeometry>
                </mxCell>
                <mxCell id="56" value="调用解析程序，并成为DNS的一个客户" style="whiteSpace=wrap;html=1;fillColor=#F2CC8F;strokeColor=#E07A5F;fontColor=#393C56;" parent="1" vertex="1">
                    <mxGeometry x="1720" y="200" width="120" height="60" as="geometry"/>
                </mxCell>
                <mxCell id="57" style="edgeStyle=orthogonalEdgeStyle;rounded=0;orthogonalLoop=1;jettySize=auto;html=1;strokeColor=#E07A5F;fontColor=#393C56;labelBackgroundColor=#F4F1DE;" parent="1" source="58" edge="1">
                    <mxGeometry relative="1" as="geometry">
                        <mxPoint x="1780" y="390" as="targetPoint"/>
                    </mxGeometry>
                </mxCell>
                <mxCell id="58" value="将待解析的域名放在DNS请求报文中，" style="whiteSpace=wrap;html=1;fillColor=#F2CC8F;strokeColor=#E07A5F;fontColor=#393C56;" parent="1" vertex="1">
                    <mxGeometry x="1720" y="300" width="120" height="60" as="geometry"/>
                </mxCell>
                <mxCell id="59" value="" style="edgeStyle=orthogonalEdgeStyle;rounded=0;orthogonalLoop=1;jettySize=auto;html=1;strokeColor=#E07A5F;fontColor=#393C56;labelBackgroundColor=#F4F1DE;" parent="1" source="60" target="62" edge="1">
                    <mxGeometry relative="1" as="geometry"/>
                </mxCell>
                <mxCell id="60" value="以 UDP 用户数据包方式，发送给本地域名系统（使用UDP是为了减少开销）" style="whiteSpace=wrap;html=1;fillColor=#F2CC8F;strokeColor=#E07A5F;fontColor=#393C56;" parent="1" vertex="1">
                    <mxGeometry x="1720" y="390" width="120" height="60" as="geometry"/>
                </mxCell>
                <mxCell id="61" value="" style="edgeStyle=orthogonalEdgeStyle;rounded=0;orthogonalLoop=1;jettySize=auto;html=1;strokeColor=#E07A5F;fontColor=#393C56;labelBackgroundColor=#F4F1DE;" parent="1" source="62" target="65" edge="1">
                    <mxGeometry relative="1" as="geometry"/>
                </mxCell>
                <mxCell id="62" value="本地域名服务器在数据库查找" style="whiteSpace=wrap;html=1;fillColor=#F2CC8F;strokeColor=#E07A5F;fontColor=#393C56;" parent="1" vertex="1">
                    <mxGeometry x="1720" y="530" width="120" height="60" as="geometry"/>
                </mxCell>
                <mxCell id="63" value="" style="edgeStyle=orthogonalEdgeStyle;rounded=0;orthogonalLoop=1;jettySize=auto;html=1;strokeColor=#E07A5F;fontColor=#393C56;labelBackgroundColor=#F4F1DE;" parent="1" source="65" target="66" edge="1">
                    <mxGeometry relative="1" as="geometry"/>
                </mxCell>
                <mxCell id="64" value="" style="edgeStyle=orthogonalEdgeStyle;rounded=0;orthogonalLoop=1;jettySize=auto;html=1;strokeColor=#E07A5F;fontColor=#393C56;labelBackgroundColor=#F4F1DE;" parent="1" source="65" target="69" edge="1">
                    <mxGeometry relative="1" as="geometry"/>
                </mxCell>
                <mxCell id="65" value="找到 域名对应的IP地址" style="rhombus;whiteSpace=wrap;html=1;fillColor=#F2CC8F;strokeColor=#E07A5F;fontColor=#393C56;" parent="1" vertex="1">
                    <mxGeometry x="1720" y="660" width="120" height="80" as="geometry"/>
                </mxCell>
                <mxCell id="66" value="将对应的IP地址放在回答报文中返回" style="whiteSpace=wrap;html=1;fillColor=#F2CC8F;strokeColor=#E07A5F;fontColor=#393C56;" parent="1" vertex="1">
                    <mxGeometry x="1720" y="940" width="120" height="60" as="geometry"/>
                </mxCell>
                <mxCell id="67" value="是" style="text;html=1;align=center;verticalAlign=middle;resizable=0;points=[];autosize=1;strokeColor=none;fontColor=#393C56;" parent="1" vertex="1">
                    <mxGeometry x="1745" y="760" width="30" height="20" as="geometry"/>
                </mxCell>
                <mxCell id="68" value="" style="edgeStyle=orthogonalEdgeStyle;rounded=0;orthogonalLoop=1;jettySize=auto;html=1;strokeColor=#E07A5F;fontColor=#393C56;labelBackgroundColor=#F4F1DE;" parent="1" source="69" target="72" edge="1">
                    <mxGeometry relative="1" as="geometry"/>
                </mxCell>
                <mxCell id="69" value="此域名服务器就暂时成为DNS中的另一个客户" style="whiteSpace=wrap;html=1;fillColor=#F2CC8F;strokeColor=#E07A5F;fontColor=#393C56;" parent="1" vertex="1">
                    <mxGeometry x="1920" y="670" width="120" height="60" as="geometry"/>
                </mxCell>
                <mxCell id="70" value="否" style="text;html=1;align=center;verticalAlign=middle;resizable=0;points=[];autosize=1;strokeColor=none;fontColor=#393C56;" parent="1" vertex="1">
                    <mxGeometry x="1825" y="680" width="30" height="20" as="geometry"/>
                </mxCell>
                <mxCell id="71" style="edgeStyle=orthogonalEdgeStyle;rounded=0;orthogonalLoop=1;jettySize=auto;html=1;strokeColor=#E07A5F;fontColor=#393C56;labelBackgroundColor=#F4F1DE;" parent="1" source="72" edge="1">
                    <mxGeometry relative="1" as="geometry">
                        <mxPoint x="2140" y="820" as="targetPoint"/>
                    </mxGeometry>
                </mxCell>
                <mxCell id="72" value="向其他域名服务器发出查询请求&lt;br&gt;迭代查询" style="whiteSpace=wrap;html=1;fillColor=#F2CC8F;strokeColor=#E07A5F;fontColor=#393C56;" parent="1" vertex="1">
                    <mxGeometry x="2080" y="670" width="120" height="60" as="geometry"/>
                </mxCell>
                <mxCell id="73" style="edgeStyle=orthogonalEdgeStyle;rounded=0;orthogonalLoop=1;jettySize=auto;html=1;entryX=1;entryY=0.5;entryDx=0;entryDy=0;strokeColor=#E07A5F;fontColor=#393C56;labelBackgroundColor=#F4F1DE;" parent="1" source="74" target="66" edge="1">
                    <mxGeometry relative="1" as="geometry"/>
                </mxCell>
                <mxCell id="74" value="迭代查询，直至找到域名对应的IP地址" style="whiteSpace=wrap;html=1;fillColor=#F2CC8F;strokeColor=#E07A5F;fontColor=#393C56;" parent="1" vertex="1">
                    <mxGeometry x="2070" y="830" width="180" height="60" as="geometry"/>
                </mxCell>
                <mxCell id="76" value="" style="shape=image;verticalLabelPosition=bottom;labelBackgroundColor=#ffffff;verticalAlign=top;aspect=fixed;imageAspect=0;image=data:image/png,iVBORw0KGgoAAAANSUhEUgAAAggAAAEgCAYAAADR64ulAAAgAElEQVR4Xuyd55Mc17nen56wsxm7iIucQQAECGZSTCJFUVdZpC6lK93oD3aV/dH/gKuuXHbZVXb5i11ll+s61aUg3SvpSlSiREoUxRxBEARBAkRc5M3YPKHb9XtnzqB3MJsXwC5wGhzu7kz36XOe7unnecN5T/Cv//W/jnbt2qVAUpBIyG8eAY+AR8Aj4BHwCNy8CAwNDen3v/+9gr//+7+PnnzySaVSKQVBYC+/eQQ8Ah4Bj4BHwCNw8yEQRZG6u7v17/7dv1Owd+/e6E//9E+VTCa9OLj57gU/Yo+AR8Aj4BHwCIxBoLenR3/7t3+r4Pvf/3709NNPlz0IHiePgEfAI+AR8Ah4BG5OBJwH4Xvf+54XCDfnLeBH7RHwCHgEPAIegSsR8ALB3xUeAY/AvEWABxTb1cyH4hxXs/15C67vmEdgEgSqCoR0Ou2B8wh4BKaAgCOwyl0nI5y5IiXXDj+tL5BdImG/J0o/rW/u/TAsf+76GPLeHCclx9t0v09E9OMJAY5lYyzu93hfJxMQcXyqXRM+LxQKlnflNvab7PqMue7gPsf4TeHW87t4BK46AmMEwjPPPBN961vfkhcIVx13f4IbFIGJCMuRuCNMSG8yITERTK69yjYcubn3x+tT/H36RH8m2zgml8vZM2LMeUskWe34ych2sjFOhBHkTvvMvKq2lYWKpLDkjXCCI75/pdBjjLRZDZO4UIm3MRVhMRm+/nOPwHxC4AoPAgJhvC/bfOq474tHYCIEeMDHCZAHfZyQneVIG5WzdiAd9z4/3b6uPddWPp8369PtW7biYy5x9nXts39nZ6d6enq0atUq1dXVlYcAucT7CAk58nPt8zltVI7r0qVLymazWrx4sbV38uRJNTQ0aNmyZRodHdX58+e1dOlSNTc32+e0wYt+sF+8H3we7wt9cITIeTnXiRMndMstt6i2trbcf2eBDw4OWns8QzgHU6QymYwaGxuVRBAhQvB2QNhhaC/aHRkZsfPSH9eH+PV1/a2vr7f2GRcvxj0wMKD169df8dyi74yRfZYsWWLCpqury3ByY2QMEViX+sE5OY4xcq6VK1eWhRDHME76Sr/5nI3zDw8Pq7W19Urh5L+mHoEFjIAXCAv44vmuV0cAInj99ddFgQ+IqqamxsgSUm5qajIihlwOHTqkvr4+7dixwwiU9yGHI0eOGBFs3LjR3oPU29vb1dvba2TR1tZmxPHRRx8ZOUCA7Hvx4kUjIOcCpy3OCZmyD+T5m9/8RocPH9att95qpMkX0IkB2tiwYYP1mXZo333G+xA8x0KWTjRwzIULF6zPDzzwgBHsq6++aiT2mc98xsTBgQMH7LPNmzfb+Bg3ZMb7LS0t1haYxTfGSN9PnTplfaGfEC1j5Pi7777b+uPEz+rVq7V8+XK98847hvW2bdts3xdeeEFbtmwxDJzXwZEz/QZbRAdj4nybNm0aI4LoE4KA8//xj3+067Rz50598sknRv5gSBuPP/64CZZ4+KG/v9+woN+f+9znxN8vv/yy7rzzTjuG97kO3CfHjh0r48p1AvtFixZZf+g340QQMI5z587p7Nmzuu222+yctMm9cf/991t/3Pi47+h7PHzhv7MegYWEgBcIC+lq+b5OioCzcv/9v//39kCH6By5YWXyEIfIIPa/+7u/01tvvSVqfzzxxBP2cIeovv/975uo+PrXv25EC6lDZrRHWxy/e/du/dM//ZO1j8i44447rC0IGqKDJI4ePWokSvExBMJ7772nn//85yZO2B9LlvawViH+r33ta3rkkUeMkD744AM999xzRmB4BNauXat169bplVdeKYuI48ePG9nxGUQMSTsBAInRT0gRAkQEfeELX7B+/J//83/02GOP6eDBg2ZZxwUCx0OeEBuYIDBoi3YYD32F+BEsED/nBCv+ph9vvPGG7YM4YX/GwPsQuyNvBBD9ccTMOfbs2WPED87vv/9+2dtDfyDle++9V++++67OnDlj4uQPf/iDXSvOzzEIAK4PAhDMEXaQ/vPPP6/t27fbdcebAf5gzHi4HrtuvVUrV60y/BEGjP3DDz+0MYIVY9y6dWu5XUQBgonzcz+B8Q9+8AO7TxBgiAEXUkG8gTPt+M0jsBAR8AJhIV413+dxEXAC4T/8h/+ghx56SPfdd589sCEAHuqQ0J/8yZ+Yxfw//+f/NNKBZL7zne8Y6fOA531I+jt/9mf65PBh/exnP7MHPWXInQsa6/Mf/+Ef9NlHHzVLHLJ4++239eCDD2rFihVGRhAQljrEDJlTrhSy5LM1a9ZYexARpI+1+uUvf9kEB14DLHEsUyxj2qc/kBXkibiAZOk75HfPPfeoo6PDCHhoaFD9/QNGvpA1xAxR4VGB8PF8/Lf/9t9M/OB1QIBA1i6sCC6IEyxohA1CAYEAaZ4+fdpEDZ9DhljNHAuB4zVgX4QX/cUrgACBXMGXLZ1OKZfLGy6Mn/cRPx9//LF5OBg754GAIWL6dOTwYeXyeesvY9q/f7/h88tf/tI+59pyTgQK57/99tvtGiBauN60/dRTT1n/ujo79dOf/czwA4eTJ05YqIPrQDuffvqp9Z1jnVeD97k2YMwxjB9hAnYIE0QIgg+hhjfBhWO43uDzN3/zN14g+OfVgkXAC4QFe+l8x6shwA2NRf+f/tN/MnKFLCBXHuK/+93vjDT/+q//2gjj//7f/2ukgyjgwf+Vr3zFfv6v//W/7KGOaPj40CH9+Cc/MYsYKxaygJgg9v/xP/6HkS/kDEEgELCE6QPWM4T90IMPGhG+t2+fUqmktmzZamLlxRdftHaIXSMaPv/5z9tP54ZHIGDtLlu6VD29vSY6+BwvBYTIsRAS46NPWMSQNWPHIqddxATjwfNAWAChQjv//b//dxsr/YAcER4ul6KQz+uDAwfMC4Aoggj37dtnFvldd91l7UH8iALIF5ECMdMPxulCLBAs5M/5EEkQJzhzPgQRG32mDxAtwg3RwIYnB48AWIAD7ezetUvnL1ww8kbEQMCIAfrHtfjsZz9r1wzvAaKIa4KnhA1BCFnjHeAace0he9qhX/xNuIKwAaERRBMhJZeb8dprr9m4EGMPP/ywCTyXMwGunJf23EwLxoGABKc//+53VeM9CP5htUAR8AJhgV443+3xEYAMEAiQLl4EszTDUO/v36///b//t/7ZP/tnZvEjECAjCAESwGrFFY3LGCL6sz/7MxMWWKsQEhYuAgBChYDxNGC5Qh4IBOLdEC1ubsgbkti4YYPuvuce28fF23GT88I9zT6cC1c/ROpi/3gPsGhpy8Xq6SukBhFBSuQP0BfOBfEhYCBTRA9tYt3SJiEPMOBzjkHYEM7AS4B4gOycBwLChCjZD4GARY33Afc9xOfEFj9xySOEEAZ4aiBn9h8cGDDPCtY+/QEbhAvn++53v2seCNri3IRpIHm8J3hw8C4grLh2jAFBRx4E40SocE7G48IgXBeuBQKDMSKWuEbkKPziF78wUeXCC4wNUcPYHnzgAdU3NBiW9BH8uCYIPnDmujivCu9zDgQS9wj95drcc/fdlnSJZwhhwXHgQfuICfZjvM7TMZsZK/777hG4Hgh4gXA9UPfnvKoIVBMIYaFgAuH//b//Zx4EyMkJBFzQkCCk8qUvfcmS4Rrq6/Xtb39bdfX1Zl1CblizWOcQDtY6oYdHH33UPkNw0AZWJy/IhPZy2awJBI7F0sVaJU8B8oaAEQa8j/seqxuLm2MhVM7LZ5AaRAYBsw+iBIsV8YBFz/n+4R/+wYgT65Y+QvKQPv3ifax1fsfSB4O4BwERAQGyQaJY9Zz7G9/4hnK5rPbu/YG51SF1NxOEBwfiibET08eChwjpK6QO4ePtOPzJJ/rMAw9Ye7z/l3/5l2ZZE6JgPM8884yRLSINrwHjRXzg/eHnm2++adjwN4SLgMCK51xcZ8IIiDLOj+cAUYF4QqjgBQGbL37xi4YVpI+Ioy8Qt7P4eZ/zkMdBv7g+bsoieOBNwPvxF3/xF3a9wPW3v/2t3QO0+w8//KF233abjQePAufkM87PeeJ5CVf1xveNewTmGAEvEOYYUN/c9UcAkvzP//k/G6k4MnEhBixFHvSQiRMIeAogXpITsZSx9rGKebi7DHoERt+lS2YtYhlD7i+99JIRNecjRo27HUsXixwrlnNBqljukBzkyWeQICRJLBxyhowgaNzvWMJYyXg0IE68AZASY+EnRIbFC7nRN2L8uPt/9KMf2fH8znGIHAgU0qVvnA9LmHMiEL7wxBM6eeqUCQZI0W2QLaEJcgEQTmwkc2KxI17iZEef6QtCAqHEZ5wHEkaAIJj4nT4xJvb95//8n1vb4ALRIqJ4CDkXPWNqbmrS45//vIkAJxAgeQgXjL/51FOqraszEfDrX/+6PBuBsbh2wI2+gMVXvvxlLWppMUGDwECo/Mt/+S9NCLicAd4DQ647AsMlGjJ+PDh4Beg7Hgqw+NWvfmVeAgQCXimEGu0hzBBiCASuOfeQ8xx4D8L1fzb4HkwPAS8QpoeX33ueI8ANjYX4H//jfyznDUACkBNkgwsZ9zXvkWvAAx5PAQ93yOcf//EfzQIn54BQBCSIYHBWJYSG1UomPQIAcmV//sZLgPXP/ljskCJEibcCEYEFjGcAYiOPgHNg8ULKLsRBvJxz4p0gVo/rGtGCmx5PAO9xLOfkPAgArGf6jWeBcANEakl5XV1G6pAX7zFWhAukyr6QGdY/pOhqK+ApIASAF+Gb3/ymXe2///u/NzGC+HE5Ei4ZFGIlwdAJBDwKiALyHcAHTwlhHsQK+H/zm0/pwIEPrS/Oo0I/XWIhpM722UceUSKZtGvCWBEIkD3ihWRL+s7vhGkYI7+D5SMPP6wtW7eauCAkQX+4Bi4Pgv4Q1gA3BBVtW1jlzBn98eWX7fq5qYqMkRfHcN3+6q/+yrwE9JewE+IMwfDjH//Y8iEQEfQfjLgvSO5EfM62INY8/8r57t3ACHiBcANf3JtxaI64WL8cUndT/3AjE4+GlPEeQN54DCADLGB+YnUyLe+nP/2peR7wNOBexmuA9QfpQPwQEhYwggDigsSwGiFLYvEQCN4FYupf/epX7XxY15wTksOyhvjpC2QC4dMXCBiyZ1/IlfNCnIgSiInPed/NOnDJgoxr7969tg+vbVu3akNp5kIySbXGYpliCNFZ7ogA+sk8f/rlChbxE08DY2X6Jx4PLGv6iOhwxZzYD0xdMiMiAQzpE+QJ0WJpIzSwtBEe5E8gpBxeznsCkeORWbVypX7161+bmx6vg8sPQEzEBQdt4IVAMIEhxEyfESB4ELgGCCUnELgGnMslsBIeQEQiasABgbZk8WL94aWX7H6JV4nkGDwdiDTw4Nojdn7yk5+ovq5Oq1avtutJ7gj9BEvuBcaLV4pjvEC4GZ9EN8aYvUC4Ma6jH0UMASxwyJuHNUSHy9hlrvMQh+zdVDU+x5rG+oT0eKhDGuwPISMaSDyDTNkWLybpb7URIR4BXPaQFYSGdQ9RuAp/kCvvY/1DOlizeA8gNoifz2kfIiUkgGUMsdI/+g8x4/HAVe1mG0C+rqYAxIVHgHEiZOg/+yMgMjU1OvLpp0bajIU2XYY/1jAiiPHRFpYuDwJX2RDLHjwgWpebYa7/UiVGF7tnf/aFfCFtXpA7/WYcWNUQtZtVALHiSSGxkJAJ4gTBhLDCol+9apUJBPCkb5yHBEWEHhY5+/EeoRYTQqXEQFfgqrurS6l0uvw+4QT64wQCGNBnPAJ4aPid/rAhABB/Tsy5HAQ+433uKa4l/QQbwlMcj7DBiwDG/E1/ua6EkxBuCMh48Sb/RfUILCQEvEBYSFfL93VKCDiyczu7B3RlDNjFn+MPcHesq4bn3MzOBe/ExUcHD2p4ZMQsUSxjkuywYBEckBmWOqQNGboqi1ZBcedO3XHnneayh3whQ/oBmWDRusJFWOYQHG5sBAKEiPhAlLiQAFazS75zli1ixpVeduNz5Z4JdSBMsJhpGxJ3haTc+JzF7MITjAExFceucuEkcMaKpw/0m2MQB7SNNwTBhNcAfGgfAUPYAfECoRIeIE8DkuV39mG2ABvjRUBxTt5HjOBRQdS48fG+K0sNwSM+wB+86QteBhc2oE0IHNwJ67ipl5B+PFfACYQ4LghNxCR4MB7GF68QiWAjN4Gf9APxgAjyuQdT+tr6neYhAl4gzMOL4rs0vxFwGfw8+HGzu2mHeAP4HW8BL/bjPfbDCjVX9pIlZoEWixoNmfXvEg4RDfzOBgnRNqTk1pVwCYKu7fh6E/Hz8X58HQfa41ja4hycm334u1oZYM4N+SJ2HAnHr0jcunbEzVhpiz5zDG074cVnjJMXG2Ttxsp7iCzyJDiG4znOVR/M53LKFwrlFRcZJ9a8Ww/B9cuFSFwtBFdjgnE6r1GcqDlPuT9Md4yt5kib8THGx+7EEX3gOsbXrQE3rjNtMz7G6de1md/fZd+7iRHwAsHfIR6BOULAZb7HvQ00HbdCHfnECYjPHdFWErE73u1f+ZPPIccESxSXDq60WJ0XxJ1jPJe36/9M4IiPuRIH93e1MbuwRnz6pMMojp3rU1yQxMcZP4c7rvK81XBxC0dVfub+duOKX4dKfCrHxedO6M0ES3+MR2C+IOAFwny5Er4fHoESAtMh6jiBVRMX8x3USjExWX+vtbt+Kv271n2aDCP/uUdgrhDwAmGukPTteASuAwILXSA4yMYbRzVr/VrCXBZrpSWqxzu3FwnX8qr4c10rBLxAuFZI+/N4BK4CAl4gXAVQY016gXB18fWtz28ExgiEZ555JvrWt75liTVeEc/vC+d75xEAAZdfUM3SXkjf4fHGMSZsQvJgKYnzWl191vDgnBP1b7ycjmvVR38ej8DVQsAJhL/9279V8P3vf78sEKbq8rtaHfPtegQWGgKzJeTpegMmI62FhN9UnzezxXi6mEwlB4E2r3W/pjsOv79HYCYIkETMLKN/+2//rYJ/82/+TURxFKYr+Rt+JnD6Y252BGbzvZmIJKtm4MdmSFTzICyka+EFwkK6Wr6vNwsCfC+ZDkw58eBrX/taxHzk6WRR3yxA+XF6BCZDYDbiwIULqp1jvHYdqVYj19n2ZbKxzvXn810gTHR9vAdhru8G3958QYDvJTVVKMoW/Jf/8l8iqn8ttIfLfAHT9+PmRmC235uZhBhubsT96D0CHoGrjQCVWVnYLvjhD38YPfnkk2MWK7naJ/ftewQ8Ah4Bj4BHwCMw/xDAaCnnIOzduzdiiVfKmfrNI+AR8Ah4BDwCHoGbGwEEgs1iYJrj008/bTXG/eYR8Ah4BDwCHgGPwM2NgBcIN/f196P3CHgEPAIeAY9AVQRYEv173/ue9yD4+8Mj4BHwCHgEPAIegSICV1RS9CEGf2t4BDwCHgGPgEfAIzCmkqLPQfA3hEfAI+AR8Ah4BDwCzoPQ1dXlQwz+dvAIeAQ8Ah4Bj4BH4DICeBC8QPB3hEfAI+AR8Ah4BDwCYxDwAsHfEB4Bj4BHwCPgEfAIXIHAFQLhW08/rbSvg+BvFY+AR8Aj4BGYKwQilry0qLb4NVKgIGIVzLk6gW+nXKodYJUoAzIbiMcIhL3f/3709Le+pVQq5dH2CHgEPAIeAY/A3CBQFggF5ZVQIZJSCpScDXvNTc9uiFaAtwCoQV7JBOIgOWZcM4V5rEDYu9cqKXqBcEPcM34QHgGPgEdg3iAAiWWjSAM5aTArhYXIvAhFz0LFFuFlGLvNlOTmDQBXoSNxjMCnNi01ZhKqSSHAgDZUpERViKfSHS8QpoKS38cj4BHwCHgEZogAYYVI2TDQhYFQp7tz6hsKlM1KUQiLXaY5Qg/FrXiM24q/eYkw3gVIBJFSClVfE2jZoqTWLk2rORMoqULJmzAz7LxAmOEt7w/zCHgEPAIegckRgNxzUaTeUenIuazOdeeVLaSkKKBUX0kllBISYkkJfOxyFkwczIzjJu/ggt8DT0zRG0NgoTETatOqGq1bWqO6xGz8B8VKiuVpjqzm6EMMC/5u8QPwCHgEPALzBoGiQJDOXSroYDveAyl0MXIEgnAj4CAIFJQEQmV4oSgW/DYeAuaEMdACZYKc1ixNasfqGjXVBKarZgqfFwj+nvMIeAQ8Ah6Bq4pAPox0qiuv909mNYz3ICAuHpmFWg4lxARCUTAUu1QpFq5qRxdw41FJRaXDvFYuSmj3hhotrp2pNChh7z0IC/iO8F33CHgEPAILAAEEwonOnPadyiobpk0gFJmf0EJMAlTOe4yQEddhszmYVc7rOjPfXBrlvkZKhjm1LUpqz/qMFtfGlNYMYPQehBmA5g/xCHgEPAIegakjwAw8BMK7p0ZNIATM03czGOICId7kdSLhoqd+fFkSXKd+TYT25S5FSkajWtmS0u3ra9VS446amSfBC4Sp3+N+T4+AR8Aj4BGYAQJOILxzalS5hSwQomJMf75tVwqEpG5fX+cFwny7UL4/HgGPgEfAIzAWgQUhECy8UcyLCEOmB0qJRGATLYqTKFwSJbMv5tcV9gJhfl0P3xuPgEfAI+ARmCICC0MgFEs/8+rp7FA+P6rGxgaNjozam1EYKZFMqb6xRclkshQhmR/+BC8Qpngj+t08Ah4Bj4BHYH4hsBAEQhiFJg4SgXT84/0qDPeqsaFRnx49YjkTo9lR1TUv1a13PKhFLS0qFNg/MfM5hHN4iUozHM0DUsxB8CGGOYTXN+UR8Ah4BDwCVwuBBSEQwoIKYV79vT369IM3FQ73qKGxUf2Dg1q+Yrn6+/uVyDRr++0PK1PXYNMzx/oPpu9NmGiixHSuxViBkC0JBJ+kOB0M/b4eAY+AR8AjcB0QmNcCIbbSZKGQV1fHeX345osqDHZr0eIlGhgaVtOiZo2ODKqhZYVuvfsxpWvqFCSZiRFfNOI6CoRSWkSxmmJJIKzLqCUz/T7Fbw8/i+E6fFn8KT0CHgGPwM2EwHwXCC73gDDDyNAlffD67zTa16mWJcvUfemSmhc1q5AfVbJ2kbbteUB19U1KmECIXcUZTH+cMw+CFwg309fJj9Uj4BHwCNw4CCwEgVBc96Gg/r4eHXz7JdUnQtU1tyqbL2jx0sUsUq2e/hGtWH+reRYQBwlbWrm0eYFw49ywfiQeAY+AR8AjcG0QWCgCIQzzGhrs09mjh1SjrOoaF6l/aNgyF8P8iBYvX63mZRuUTNfYdMhEkLTERtu8QLg2N5M/i0fAI+AR8AjcOAgsCIEQhIqigsJ8VqcOH5CywyYQOrq61bK4RX29XWpYtERLV29TfUOjojA0D4JbYMoLhBvnfvUj8Qh4BDwCHoFrhMCEAsHWY6jSkRlY5GVvP7/E4vJXNl+l0lFQnJUQBJFOHzuswsig6uoadKGzU22rVlpdhPMXe9SybK3Wrl1j0yEvzx4IFESxcEO14cxiVcXJLpOtnF2qEO2TFCdDy3/uEfAIeAQ8AvMGgYkFwhx1s7R+AqsaRkFUNuhZOyFRWlG6uMYCMiAcs95CkeipaVCcmZDPZhUW8kpSUZHaCOm0EomUsrlQUZBQTSqpRJBXyD/IOUgoGaVUXqfB6Y+KFSnHLPEwuwkGY0DzAmGO7iHfjEfAI+AR8AhcWwSutkCI1wGA0eOLLtrCjKU3ip+USioTUjAYzG9QChUUTXEIN4hCJUP2iRRayWXEQ2Ceg0CEI/ImDuwzJZQKk0pUcUxUq8pc6RyZrVbwAuHa3s/+bB4Bj4BHwCMwRwhcK4EAVfOvGF8wJo9FL2B+1logb4BdiuQf2R8JBWFehVzWyh9RIRGBEISRmPqoZEJBqtYqKiYDKZ8d1vBwv5I1aQWptKJEUjVBRinaQTQUcioUcpbImEylFBVMZhiayZoaKUgqLPWsKE9mt3mBMDv8/NEeAY+AR8AjcJ0QuNoCoegIiIyUw0LWREAqmVEyGSmfzylp4YNI+VxeyWTGkgupmlgojNj6Cul0RqOXLurk8U8VRoHq6xtKoYZIo9lhNbcu0orVW5WsqbVExvOnj+vEpx+rublBNZkaEw9r1u1QbW2DkolIHR3H1dN9VqPDI2pbsVb9fYPWrzCS1m/arJr6FhWihKIgWfZhzObSeIEwG/T8sR4Bj4BHwCNw3RC4+gIB70BBF863q7v7ghY1taous0hBIq/T7Se1bOky1dZl1HGxQ21taxUWQg2NDKp/sF+NTc1atqJNg53t+nDf2+YRSBCmCCOlUnXq7evVytUrtP32B5TKNGh0dFCHP9yn7o6zWtzSrJ6ePiUzDdpz92fV1NSiVCLUB/v/qAvnj2mgr19bNu/QubMXVJtOaHB4VPc9+IglOuaVUlASCLO9MF4gzBZBf7xHwCPgEfAIXBcEroVACKKcTp74RJ0XT2vdmo261DMsKatPjxzSylWrtWbNah09ekxr12xSV1e3WlsXSakaBZk6LVveptHuUzr68QdKZ+qVz2VFgsGi1mXq6u7S0uVLtWrzbgXJGvX2XFBf13mlSFDM5zU0Mqqly1erZdlqpdO1FoL4+KPX1dPRruHBIS1qXar+vn4lg1BKJHXbXfercfFqRYnMnC0b7QXCdbmt/Uk9Ah4Bj4BHYLYIXAuBkFCoc6ePq7vrnLZt2aKjR08oO3JJfb0surRIy5cuVkdnl1av26Kz7SfUkElpxeoNqlu0TIlMnfrPH9GH+14zq76utk5RIdToSE5DwyNasWaNNu/+jJI19Roc6CIJQZd6OtVx7rSS6Yxali7X4sWLVN+wSGEY6MihfRoe6NKl3m6FhDtSNYoKWaUytVq96Rat3nKb0jUNSkTBFfkHLO8wXeXgBcJs71B/vEfAI+AR8AhcFwSuiUAIpLPtx9XbeU63bN+mw0cOa2Sgx8IJNZl6pUSVxCFt3XOf8iNDOnfyiLL5QGs23aLW5as00HlSH7zziuU2NtTV20zIVJBSgWTFTL1uue/m/AQAACAASURBVONhKZlS98XT6jx/WqND/coND6llyVL1DwwqkQq0cs0GLVu+RoM9FzQy2KWerotqaF6sQiFSdqhX6Uyt6luXa+m67UpnmpRUldoJlktZbe7D+JfOC4Trclv7k3oEPAIeAY/AbBG4NgIh0pn24+rrPK+t27bq6LFjGh3sU75Q0PK21Tp37JByuax23f951dbVSblBtR8/rmwYaNP2XRrt79LpU0fV2NikS729KuRyaqht1ODIsFqXt6ltw60aHRlRb8dJXTh1VJd6uq3tlpZF6uzq0tY992r1+q3K1NTp0sV2dZ7HgzGgtrUb1dfXr57zJ8ybsXL9Zm249R5lGpcwJ+JKaL1AmO3t5o/3CHgEPAIegYWCwLUQCOQgnGs/qq6L57R27Vp1dHYrCHPq7evXhm071H7kQ/X3dOnWex5WdjSr5vq0BgcH1XNpUOs3b1dvd4eyI0OqSafVeeGsTXlMBmkNjY5oxepVWrFqi2pq6xREoxod6tPZ06dV19CoJS3NOnBgvzbdeqeaW5YrzOV15MBb6jrfrqHhfq3btFWn2k+rLhWqt++Sdu65V2u33aF0bUP16Y1eICyU29r30yPgEfAIeARmi8C1EAhRlFXHuZPq7rigRc2LlEpllAwiXezsVtu6jcoP96ur47zlHXR1dNhsg1RNjTL1TWpuWaqOCxdUl6nRQF+PhgcvaXR4WJlMg9KZGg1nh7VsxTotXrpMivLq7u5WLpdTU1OjRgcv6dTJ49q+5x41NLYqEYU6fuh9dV08q+GRYa1av17Hjx9Xc2O9svlIu++4X01LVrIUZLmA0xil4AXCbG83f7xHwCPgEfAILBQErrZAsNJICYoa5RRls1boKFKqONMgJJkgaTMICAlISRXyOauGSHkE6iBQ+yA3PKqaZGAhimQyqZFsXnX1zWpoatTg8ICJhVQyqdHhPuXChBqamhSNDun0yWNWC6Ft3Ral0nVWTfFSx1lrPxdJ6dq0enpY8Gmphodzal60RLX1dZcXeeIixisleYGwUG5r30+PgEfAI3BjIUACXHkFwlkMjXaMfCu2eIIdv9t+UaATPXntP11QLkpbRcJy1eNp9KEyda9YNNlVSy7+FUSIgED5MFAiipRKSCH9sKWZg+LvYYQBX6qyHKjA0s0R9RSlBCs6Mq4gUJBIWfuFsKBEIkmJRCE9AqojWgnnvKKwoCTiQ8lilUY+CPNKBJHCIGHJi8yIYL0GcGCtCBpNJGjfDZ7qjaXfvUCYxh3hd/UIeAQ8Ah6BOUHAETZEORuRQDsjIyM6d+6cenp6lM/n7VUoFMnV/Z3NZs0Vn840SE2rdSmzVkrWzU4gxIi0LBCQBqWyyhA0pE4JZX633UsqInZo2WoPbbGGUgMllMvHlQ6lKLPt5ko3W0MQ/WXJUizZXHqrPFURMcZxxc+KAsGt/mBLR5adBwGLPJT66mcxzMnt7hvxCHgEPAIegfEQgKwHBgbU39+vhoYGNTU1WZnhst1aNlunhyEEdvHiRT377LN6/fXXTRg4gcDviAL+RiBkMrXac8fd2v3gFxW2bldoBYJm4UEorbxUXjmxKAdiA3Cy4fJ7RQ1QInD3s7Rcg1uw6bKXvygGilxdFBkR6zHYwg4lYTVmWcYyqzt5YV6TomCwFoqLQZl4uNxXe+eyC0FeIEzvHvR7ewQ8Ah4Bj8A4CMStTGehuvcg5uHhYV26dEkfffSRvdasWaNHH31US5YssRi723e6ngR3HJ6DZ555Rnv37tXo6OiYXiJMECKLFi3SZz7zgJ586mk1tG3VRx0JjRaSRXPfLaw47StcPLB8eFhQPjtkSyHVZDLK5wsaGR5SGBZUW5uxWQnZkRHlsoQJEqqpq7e1F8KSRmElRjZbiTEKlc0NaWR4UI2NzQqSaUVhaImINbX1SqYyllwY34pemVCF0WGNjAwrSCRtdgO5DUX/RTGkg6Cx8ENEBcZRDQ6PWIJkOp0uCgjvQZj2neAP8Ah4BDwCHoEYApUxfj5yJI8owLI/ffq0Zc7jOVixYoUR9Ycffqh77rnHXkVSunzcVAF258ZL0Nvbq+eff15/93d/p46ODhMdEDDiIJVKmSB5/PHH9dWvflVtq9bozKVI77XnNJqHmWfmQXB2vQmEAFKPNDLUr9PHDytdm9HqdevU09Wlzs5uK0pUkw5Ul0lroKfHSiiPjObU1NKqZW0rrehRURwU+0KJ5Cg/olOnDuvs2TO67fY7VNuwSEP9fTp04D1t3narWpe2KQiKhO68FnB+dnRYnedOaWhwQIUosLoLlFgOktQ5KAqERFiqehBldfH8KR07eUqbt+9Ra+uS0j4sKFVs1ocYpnpH+v08Ah4Bj4BHoIxAPI8gOzqqoeFh45W6+nqdPHlSf/jDH9TY2GgvJwoeeOABvfDCC+ZV+MIXvqDW1tZp5SBwTkTB0NCQCYMzZ87ok08+sfY/+OADEwhOcNTU1OjWW2/VF7/4RT300ENatmy5zSA41ZMvCoTcZVKe2TrHRXd/GARKRpFyw5f0yQfvKl1fr01bt+r08SOWMLhm03YdP/yhotFB5bNZbdi4Wb2XBllvWWs3bFKQrrEkQsQKEYOkImWHL+nTTz9QZ0eH7rjnftU3L9HQpR69/tIL2nXnfVq+cp0SiSsFwvBgv04eOajVK9vU0zegkVykDVu2Wd0Elnm2BaXDhFKScqP9OnXikM6c69D22+8vC4TSGtTFYInLnZjife8rKU4RKL+bR8Aj4BG4URBwMw7iljtjw1rHO3DkyBFLFCTev3HjRrPcf/vb32rLli367Gc/a6KADVFw9OhRvfvuu/b+5s2bJ4TInRdvAPkEfX195pWgjUOHDtk5ORfeCXIc3njjDesPOQ533HGHvvGNb9hPRAqEl8tHau8paP+5gkbzyRknKRY7fVkgJJiNUBjWkYPvGvFv2LpNpz49pFwh0tqtO/Xx/rfVVJfWpb5eSxDM1DZq9brNWrpijSKmNxoXM9tBCnOj6u/rUE/XGRM8O2+7Sw0ty6XcsF75/XO6ZfedWrZyneUNFEUaHhjETqShgT4dPbhfO3du1/mOLnV09Wrn7j0WQnACIQgDBYW8+rouaLD/oi50dmnjLXu0qGWJ9Q2BwA8TWsXVq6e8eYEwZaj8jh4Bj4BH4MZAwBE1OQXE/CnQ09zcrJaWFu3fv1/79u3TsmXLLNeAzx9++GGdOnXKkgOfeuopHTx4UAcOHNATTzxhSYrvv/++1q9fbwKiaKiWsvwrkhURBngLCFd8+umndq7Dhw+bCFi1cqV27d6tPXv2WDt8/l//63/VhQsXhKfi6aeftvdxq9NGZ2enTp89r95Co/oz6xQmamcpEIrMiQcBYk+aQHhbYZDW1h23WaGkjgtn1dzcoDPtJ9W6eJFNbRweHtXISF7rN+3Q8rYNUpBSmMT9H0phqJGBfvX3dqmQG9KpU6e1c88dampdqaAwqpdf+IW27rpLy1attdwCqThbIwj4PdJgf68+/XC/9tx2m85evKiLHRe1a8+dqqlrUmhCImAKg4Urui+eUW1NqNNn2rVp6041t7ZZ311uA6OzGZheINwYX2I/Co+AR8AjcLUQwDtw4sQJvf3225Y7sHPnTi1evNi8A1jojz32mJUM/tnPfqaVK1eaYEA44OLnc37ftm2bNmzYYIRNG7W1tZcFApZrKYRACKKrq0vt7e3mnYD8IXiOweuwe9cubd22TW1tbcpkMkZ8fb29evbnP7cQxCOPPKK2FSvU1d1tQoU2jhz5VIPDWa3efq9W7HpMyZqmWSYpFqP/loMAmeZHdPjgOypESW3bsUf53Kgu9XXhElBPd4cKBWoSSBs3bdXJ9jNWQGnd+k3m1UjXNyhFPkaY1+ClPg0PXFJ/X4+Onziq2+68W0tWrlUyzOnlF36pLbfeqRWr1ioMERsDhmE6VWdMPjzYp2OHDmrj+g3q7uvT0EhW6zdtKoqDVK1qMkztDEyA9Pd2KgyHdfLEcW29ZaeWt61XqLQlN5oHoTQuLxCu1jfKt+sR8Ah4BBYAApVFixADA/39VvEPcoeEsdpffPFF8xJAwMxCwEPwm9/8xkZIIiDu/l/96leqr6831z6zFiB0LHmOox0+c16DRHFyvlnBiAK8D+QVEEI4duyYzp8/b6IAIUAbvFavXm3eC87lkiKt8FAY2rGID14cj7CgDca3YkWbtm7boZZ1u9QVrFBeNbMTCCTxlYgUBmZBpMMH95mbfustuxSGefX2dJmVn04lrWDR0MAlNTa3qn9wWLW19WqsrzUB07Z2i1qXLLOqh2E+p3x2ROfPntXRY59o9x23q3XZSo0M9OrNV17Uxm27tHbdJg0Pj+jTTz/RqtWrtHzpSiWSgbKjQ7p4+rTCXE65fGjHpTIptbcf19K2tWpd0qZUQAXHUeVzw+rtvqCjR49o0+ZbtGLlOhMtQSJRDjFwfbxAWABfYN9Fj4BHwCMw1wi4nIK4QOB34vyEAcgxgOjxCBBWgPxJLCSXAIImL4D93nnnHW1Yv95WJyRB8bbbbtOuXbts2iEzCggrxDfO4WYaIBzIJSDZkDAE4QTInryCW265pSwKOC9iobK4EvtSLAlxgSAgWZGZE4iEpUuXaseOHdbO6tVr1LyoVecGE3r/dF7ZMDVrgWA1imBQZhCMDKun65yZ3i0tSy1+PzwyZJ/X1mHlp5QdHtForqAgSKoRTApZdVy8qJZlK21KIpMmeTFdEYHWR2nkJYsthyA7MqiO8+2qb1ps+QKFQqiLF85amKepqdUiA1RTHB0a0jDLPgcJNS9ZqmxuVF1dF9TUulS19U1KmL8jlKKChof7LC9iUXOLlXOOWNWRfIaAkEcxyHC5zsPkd5/PQZgcI7+HR8Aj4BGY9whY6eEwNOsaTwAJgPyEiJmBAFGTS4A4wItAEuDvfvc7s3i/9rWvmWsbYuYzcgwg+Lq6OhMG27dvL3sKijHyeJF/mXCA0BETEDq5BZwfzwChi7vuuktbt2418ot7Clx/aY9+0yf6g6fivffe09mzZ60PeC1oA3GAp4MZDeZlUKATnTm9255TLqQOwiymOboCCJQyJvEPek2SR2AlBkTVQytolKQo8tgCSsVaBMXQBOrCkhTLd0ypagF5DcQkAikfBUrS+6igYpHlREkoFQseRWHxHCYu8jJxkGBNCIYXFWcvsA5FKaugmPMRhEokC/Z5ImAaZFJRWKzrgNejeMlKtSKmeDd7gTBFoPxuHgGPgEfgeiAQz/yHUPECxAk6Prd9cGDA4vMnT50yD4Gbfsh7JAOuW7fOZgQwXZAaBh9//LFVLEQc8P6qVavMw4Blj1igbUIIrr6BCyW4qoZ4C/BOYOkTRoDc2ZeERfITEBeEE2i/stIiY6EdRAH5CIQQECV4C+g3HgdCEPSVPAf6h7iIbyYQunJ671S25EGYmUAYQ/clgVCsM2A2d4n2SzkKpbUOijMVihQdFQpKlOIT5AdA5sWCh6UCBKUSyk5WsQ+qgzAFVr6rg8jCUBzniN0EQqEoKpKpQGEhb54CBelYNebi2gtFAYCMCW1NiGIdBoQHn9FbXiUvyxRvZC8QpgiU380j4BHwCFxtBOK1CCqrGEL4xN/Xrl1rZOlc8RAsooH3IOiXXnrJiB5SxpKH8LHeIWC8CBAwpLtp40adPnPG9kUMkE8AKWPlOzJ34oPYNefL5nJG6Fj2CAIInVkG7If7n/NA6giRRc3NSpcsfScsXNIidRYYz6n2dhMutEUdBEIXTKvEU4DXAO8H/XKiqLLQjwmE7pz2tWeVzSMeXDXC2Ly+qVy0YlShtBWnGrK5pREul1O+vEKikXppRwuxOCFhjoaSQKhy7vh1LfYWT0ipePJYx0ypU5c7Q8ihuIvzVVw+QbHEcnGaAgmPbgSlYsylM1WeYGJwvECYys3j9/EIeAQ8AtcAAScQnBs/bnVD8K+88opVLMQ6h5jxAGB9QzqQPomH1CSgyiBEz4wE5t5/5zvfKdc3gJA5HjJnf4gYl31lYqMjMhIcif8zC4E+cE5eCAVEAYKAqYkQO6KAssQuWTFO6HgL8DggLvBoEEagPc6NoKD/hCOWL19ezOQvVWU0Co2FNOJtIhBOduf0HgKhgEDA1Y97vsyPM7pqdo7LHFu1+FNx+YMr5wzaOxWZgHFaLo+ltLgSuzO1cvytNGXUnA4x5XLFqeOrPsSWeq7YbzoSwQuEGd0+/iCPgEfAI3B1EHDlhrGw8RZAlggGCJqcgeI6BJ/Ryy+/bB4BZgHg5ifBELKHvKkbwO/MUiCW/+1vf9vc+YQCmMqIVwHr3IkClwPgRmTeglIeA4ROZUO8BfyOmx9RQPgAUscD4ZIN3fHxAkxuNgNTKhEFCBTGxjg4fvfu3SZW6BeCqNJLMJFAYOGik13kICxsgWDZBuMwt8siAIcx2LjFIsu34ZUCoVJDuAUmp3rnVgqEtpak7liXUUtmOjLjyrMxDu7n733vewr27t0bUeSiMn401U76/TwCHgGPwI2MQPzBz+/OW4AQICkP9zvkCblC0vfdd59ee/VVKyxE8h7vMSNh06ZNRr4kDBK3x3vAjAJImARFRAJJiO5ZHLfMnSjAM0C9AvqApe+mFboQAjMIEC7xhMMxVj2LEI2OWpLiiePHrdbC0WPHzONBqIC1FHbu2KEtW7dafgJhhSQp+6VExcrQymQCgRyEd06OmAeB2QQwbdEgd2soT//OGStSXHvVia7y3Ss8CDFPwZixxN43H8G4nBsLfsQ9FmPaLcmIWBvFo0o5EGXlNsFpqsB0hUBYlNTt6zNqrZk9vl4gTP++9Ed4BDwCNxsClNctjdlZ8pDpL3/xC3PXY1lD+JA7Gf2QPt4BRAFEjYiAjCmFDHkzSwFLHcInwRCvAUWOnnzyyaoWOu0SauCc7IsIof4AeQlLFi/Who0bzcJHcOB1oA8QfaVF65aARlDQBi9yImgfL0O87gGhiEypqNJ0V32M3x5k8p/qzevdE6MazgfF7H0S84pMPD02nKP7rngtx7B/de6fgUAY08VqAqHE2+MVSyREMR3bPy4QUsppZWtSe9bVqMXW5Jo5vt6DMEc3m2/GI+ARWLgIVMb1q40knncAUWPd47In2ZDpiffee695Bph6CPkScoD4seghYD7DYsfyx0sAGSMYIHmmHeINuP+++3T7HXeMST7kGKw42qBeASEEjqN9BAFeB9pGXLhZCOWkxVIogL8JbSBgaIekSNcOngFyHVw7eEIYV+Vshtlc3YIinb0UaV97TpeGSeArTXV0eQvTYcPZdCR27BiBEE92rOJqcN2bqgfhegqEdCKvtUuT2rU6rebU7ID1AmGObjbfjEfAI7BAESh5BlxVwDIxlt7H4nZT/QgL4BlgwSIs9LvvvtsS+p599lmrcsjfEC85CBAvcX0WR8Lqx5OAu58EP6YXYt0jDt58803LI2BGAC+SAZ23gM8JH3A+QgCIEtz95ASQW4AXglkRLiegMknQJS4iWOgXeQ+0Q/uEECisRH9oBzHjPA5cScYcFwmzubpM6usdjXTkQk7nukbMixBSURGhUHUbz7Z2O1cjvomOGWd/m75Y3MbsMeHpxyPdyfpc0ffy9MrLsywvQ8F8ifGgqXJ+cxKESiqv5tpQm1bWaf3itOoSxYWtZuqi8QJhNne9P9Yj4BG4oRBwngTnLXBTBSFayPLVV1814idxD6ufrH7yDH7z3HOqb2jQo48+ahY6qxtilWP9Q+Zk/GPBU9UvPqWQ8IDzRiA4EAqIiWPHmJp42JIaaYPwhXP9E0Lg/G5aIReA/rpiRvxOu3gdmCqJMEAU4HWgHbwObm0G/nbFjErLE5ZWKoyUz+VUCEP7fLZ5adBwLpL6RiOd7RpV90CooXzCCg2Nb+O6qgPxW2wisqu2v6P+iUi9GrGPdx637xVphROQcFSs+njFxkyOueoXYi5SY620rDmltpa0GtNUU0Ag2NJPM/qeeoEwI9j8QR4Bj8CNgkA80Q0hABnyHsRNKWOEAFMDieuz/gGzEahoyDRFLPuvfOUrZuW/9dZbNuug/9Ily0lghgIuf16QrFFVaZqcOyfnw8vQTQihVGvArZqIECF0gFcBUeBCCNUKMDlRgAhw5ZPpGyIBIYGQwVNAe9RQcPkJ8dQ42sCzwFRJQhHMvKBv5EusWL7c1gqwrbjO8fQuf2k2Yp6lnwuRRvORsnlEjU14tEqEN+pWTIasMrqKpMhZjb+UZpBKBaqrCZROBiVZQFBkmtcq1hEvEGZ1VfzBHgGPwEJCoDLXwJEiY8B6Z0YACYW42yF98gsgeucNYDoiVvm/+Bf/Qp0dHfr5L35htQUQDXgXCCEQw2d/rPO4yz5+brwJeCdoCyJ3rn/IHBInHwDPg1s10bn644WRnJcDEifsQX9d6WXeo0+EIegfAgOhUrmeQnzaJEWRqOyIxwHPBXjUpNO66+67y1UbnbCZdsJinP+pQEgIwzL9AyVnzl8L4tabbuBjpoOi9IJVjKxwfswGXi8QZno1/HEeAY/AwkOglFfgyBWihpyx8HHb4yH43Oc+Z+RKQiD5ASybjAUOYULm7PPUU0/ZPnyONX7nnXdaKIDfIXm3ufNgmeMtwCsBmTvXP94JyBwxgacAKx9vhas1UAkwxExbbllmchQgdCoc0i7nJoSAMCAkgbfAFTJyYqA8c6AUmjAPRmnKpZsuSWIlHgxEBR6Fhx58UK2LF5fn909LIBhDxt3/xZUkq8b+F94dNWmPr4VAqNBfk/Zpqjt4gTBVpPx+HgGPwA2BAITIjAE2RMGPfvQjI288BYiCBx980KYnQt4kG2LFQ7gc54oYYZGT4Dc4OGikyWJHldY577skQfIKqDVw7PhxaxehQJ0DvBWIAtpzpBxfStlZ7DYLIZvVpf7+coXDoyypfOGCjYPwA14LXggXxoW3Id6nuCjiGMQEogdRwMJNCBzecxUTyaXAA0IFSBIt8Ww4D8bUBUKJusZUMiwKhMm38ah1omOne8xc7c9oqvdr7IJRY0c9vvt/ev1y57jcg6ngO4Ur4AslTQ6S38Mj4BGY/wjEXfiVvzsLHsKDoJ977jkjaIifhEKS+iBoflKvADKk6BEhB9z2eAYIH+D6RwyQp0BOgrPKOZ+bScDvkC1WOUIEDwUWPkQLASMGECC83OyBco5CydaOt4sIwTtw7OhRHfzoI5v5wHv0h/wAPAbMikAU1FI+OZksJxo6kcDVI4mRMVFDgf4TwuDzffv2mUDAY+CSHcGJ2RnsxywJcMKzQf+nN7NhHKJzyXkT8th0be/p7u88G+Pd29OdKVFdJMytQJj4HF4gzP/nlO+hR8AjcJ0RiMfK+d1NTYRMIe3nn3/ePAMQIeIBosZixtJ/7LHHbNYByX7E77H2yRdAEPB+tSRBR+i442mfREOIF2GAi5/2aQuvA20gMuL5CUZVJSvbWecQNGKGYkrvv/++5QWQG4GXgOmUjAVRA4k7IRBPuHSXwLVH3wiJUPqZsXzzm9+0ftFfNzsD4YGnBByYneFmTJD8yMbUyHgI5TpfZn/6q4yADzFcZYB98x4Bj8C1QcDVKuBszPsnCx9ypCARlvMzzzyje+6+W4uXLLFQwu23324kjhD48pe/bETOegiQL8cgDMg9cNa9G4WrD+CsbWfhM5UQdz35BQgKLG8IFq9DvLqh2YAVLnaXLMlxiBmEBSIDDwZ5EogZPA5Y/YQl8BaUpx5WzCpgf8QA4Q1yCPB+ICAgfvIV8EDgRbj//vut/DNhhj/+8Y/mMeAYN13yoYcesn7zN7kXCAkWoEKU+O3mQMALhJvjOvtRegRuOARcTN0RNlYvwgArl7CAW4EQVzxxeUoc8zuECYk+/rnP6czZs2ZVf/7zny+GFXp61NTcbOEHtrKVH0tuxONAKAKrGq+DSxJ0Lnlc8Vj5/MRCd9UNK3MUaN8tBU04Ag8B4Qj67SolkmhIGMFNc0TEmAcDkeGmHcauLKENvA4IFdogSRHPBUmPbAgAxBJY4Al44oknzJsBXoRaXMIkfSZswRgQSggWxoyooKxztXPfcDeYH5B5tfxaDP5G8Ah4BOYdApAnhBeFoRUXwmKuXLSIuD4PMKxqygeTVMgsBI5DLGB1HzjwgRobm+w9CPvtt982ocCaBxAnRApJIhzYXD5BvGYB72FpY+GfOX1ah48cMWGAVU2/ECAkG27fvl3Lly1TY1OTeSTiSYa0hyXPuCBqV4QJUeCmFnKMm56IyHA1C9zY42EIZ+k7IeNCKdRucN4FvBp4RAhtuNAI4ghRROgCYYSXBHHz3HO/VhhGhhliAM8KuNBXQhuIFfpWLqw07+4Y36G5RsALhLlG1LfnEfAIzA4BkvyyWbOocYVD7MTbsfDj5ARBQqzE1AkXYP3yO3UIyOpnw02Oq94VOPqTP/kTOwYrmt/Z13kiKjP+nVjAXY8QwSqHVPmJxQ954/KHfCFzN5OB40xcUN1wTPZ+sdYCIQSsfMIciAPaIi/BLcsMEROeqMx1cKWgXfuMl3AGYgAPAx4BiJ4iR4Qk6LfLtWCGRrwaIsLGYYKwQSgRkkEI0Bf6xNLRbslo3pvLtRlmd4P4o68VAl4gXCuk/Xk8Ah6BKSEA8RMnf+2114yUsLQhVix+iCpu2eP+xhpGBPAZ1i7EighAUHzhC18wSx7PAqGBxx9/3EQG5EqiniNNN+vB5QLEF0jC5c8LUcGG633Xrlu1efMWI2I8D05cVCYJuqWZIW3WYqAd+opIYF/CIYgMBNCa1atVW/JixNtzfaINNsgcLwBixSUXUqsB6z7uYQBDPt+8aZP23H679REM2BAWCATGSf0FcgvAz23jrcNQrqUwpWmKU7rcfqd5jIAXCPP44viueQRuRgQgMazZC+QTrF1rGfVMSyTrHku50vWPtfvCCy+YKMCSp9wxYQQS+VhACWsckQGpElpwpZQdto44d/59IAAAIABJREFUIUtI2C2QBIlC5AgOQhO43onJQ+q07QoQudLD8aqELoRA3/E48MIjwvt4NxAv5BYQGsHzgPXvChhVjo9jCBW88frramhstPUe2B+hgeigXcIIFGtywoJjSMDEU8FsBIRMV2enOru6TAiQU4BYcePCG0LegdsqZ1TcjPehH3Mx3OZzEPyd4BHwCMwbBNzsABdjJ8xAyWPWP8BKrpwBwH6QJCIC8iP5kBAFJImXID4LIU6+DNhVJeR4CBe3OgKB92kL6x6XP6IAcWFJgiyhXIGWEwd4OghH4MJ3IQTECTUGEARuJUdCG/HFluLNVa6PQKiAdR7oH7kBeEGw+t2Kj5R/5vysCeFIHtEEZpmaGq1bv75UZlm6cOGi9cMlX9IvxjT1wkfz5jbxHbkGCHiBcA1A9qfwCHgEpo6AWa+lWQOQ4+uvv24eABLq3OwCyBFSg+icoMDSYYN8eR/hUEl8Lo6Pt8CKDx07Vs4twHuAtwFBgBcCbwWWNURuIYhSEaP4SNy56SfWvKtKiEDg/EyXpK3tt9yilatWmVBwsXzXP1dgiXZJmESsIGyw+p13g/AG4gMxwDRD8yLU1ChfKNiiUXgLvvrVr5qAAhuEzq9//ety8iXv40nAe+IWauJ8XhhM/b68Gff0AuFmvOp+zB6BeY6ASxw83d6uV1591VzxLhEPKxlih+gg83iRoDjhOVKnrK+bmkgSn0t+xM1OCAAxQSY/bn9yASBThIhLEqzMK0AoQMyIAkQJJZQPffyxeQ1oH3KnLWY08NN5MVziovM+4OGwJaDT6XLYg+mGeEIIZUD48aJEjIGcAsIG5By4REzO+8tf/tLGQM0F+g4+iAa8IGDHa6L1Heb57eC7d50Q8ALhOgHvT+sR8AhMjABWPgmIzM93oQUEAS8I0FUVrMz2p9V4jQQSGV1xIGYNMH2PDYKFxMktIISA98DNkqgUGlj7bJC0q1mAy98tqYxYQcDQ3ob167Vs+XLzFpTzFEp94nhEAZ4C+oTXwq2fwDlIzGS85DiwIBQeDLcxJsItzNSgtgHhDzYEAwIBccJsDl4cj8cBscCY4jMYKlH3XgT/TRwPAS8Q/L3hEfAIzCsE3IwCKhQSRydbH+sYImUGAaQH0UJ61cRBWChYDgK5AHgJOB4ih0ARBQgMLG28Ba4iYYKs/FhmfmW9BfqCt4H2KHsMUeMBcLMQaA8RgyigT9XWK2BchArwEpB0SCImf5NbQRiCmRVUNETQ4J1gvC4s4EQPfSB0QMiF6ZWcHw8C/QEjchzwGpTXdoiNqdIT4i66Fwjz6vafV53xAmFeXQ7fGY+AR8AhAAHjwseyxk1fuQZAfNaAq0gI4ZILAGFi4TtvAdY9FjfJfZAqBOpIvFodBASIm9UQX3AJUscrQKIfdQv4ieiIFzJyAsd5HPjpzsXxuP4ZC0KH4k6IA6x+CjsRQoDgERCIgW984xs208AVK3JTG/FCcH5EAm3RJ5ffMB7he4Hgv1vTRcALhOki5vf3CHgErgsC1WoMQOJY3AgBpiUiDHDdQ5LE3PEWYImTLMjf4y005Np27ZGn4NpDcPA57n4EBu2tbGtTS2k1xzIhlxIrnbWPlU/SIl4KPB+IBCc8yKNw3gCmKOKBgPypTYAngM8Io3z961+3vxkTYgCBgSeEvpCsSDvVEjGvywXyJ73hEPAC4Ya7pH5AHoEbEwFH4pAs5IvFDYkiCtrbT2lkZNQ8DZAxlj0/+TteyKiadU27gwMDulia1cAMANZYQCxAwm5pZrwQi1tby8WMnBAg/EB/EB9uCWgsfMTBj3/8Y8tNgOipd+COoR94JggXsLw03g3CF3gQEAS0hWAgpwFRgmeE950nAo+Fm8lRGc7wIYMb8/6/HqPyAuF6oO7P6RHwCEwJgbj7H9K1WQMnTliJYtzzJPvVM5th61ZzuZNX4Ir+xGseFPJ5pdLp8jlpF4J1Cy5BxtQtIG+BDS8Bbn/aw8WPC9/NlnCN0AbWPEWZ8DhgzUP2EDn1Cqhd8Ic//MGSHwkVMKPBTbPkJ8mFCASKOZE7QFIhxxEqIKRw9swZ6zPej2ozNZxg8h6EKd1KfqcZIOAFwgxA84d4BDwCVx8BHk6Qppua6JY/xrqHMKkTAJHv2L5dq9cwNbHpihBCvBaCEwUkA+Kqx/OA0MDSZ7+2FSu0dds2I2sSDl0CY1xoIFJy2aytZkgfSDhEIOAlICyA6GD2AYmKzEgg/DE8NGTFiu67916beUEyJOfDY4BAoBw0dRLiSZLO0zATlL0HYSao+WOqIeAFgr8vPAIegXmDAA8krGc3a4AQglvpEGInIRAy3rplizZs3GjVDXHHOwu7WpVFJzQojIS4wFuAF4L2sPqpOUCuAhY+IQVCEmVvQSmvAEJneiN9oQR0prbWjkFkIDaoYkgY4Fe/+pUlHRKWePutt7Sirc1CCeQxPPbYY7pl2zYNDQ+bUOA9pjQ+/PDDFg6p3MZLKpzsYnmBMBlC/vOpInCVBIIrBRIvSGqVxiu2au9N1vXKIqeT7X89P68cX7HvbgRBsfq63zwCNy0CjgTjJA55Q+KQMXkAxO4p9EM8HjKnUiIE66ooAl6cFG12A0sqFwrmfXA1EGiTZEaOw0NAYiBEzqwBVxjJLccc7xf748l47733jNTJM4D0OYZ+ECrAa8DfJBkiRO6680699vrr1rYLi1DciDEwLn4SeqAOAqLHLTU95kaIJT1O5wbxAmE6aPl9J0JgbgUCzGecR1ER/rhMhcVOVBIif0+HJONtzvcLW21skfh3eUtMa/TzfcS+fx6ByR42lZ/jssdbAInjricPwIUQIG/yACByV/K4MiEvHkJwZYlpE+IldEDNAsII5BYgMmgLCx+hAaG7qZL85IX3gn15IQoQB/SDaZGIAjwWHEd+AcKAZEhqF3zpS1+yfAWmMOIVYMYBQoAwCH1HnPA540FA4KlAILjNk7r/7sxHBGYtEC7TXWWt8rJamIAEpyMOivCNJdjLkE6/pcvyZaoXZnrnKO491t/BX048IQ6mK5Cm2lO/n0dg/iHAwwZCh8CJzUOUkCwEjkBgJgDeAaxrXm4WgiuGNN4MhHh1QpIFie2Tr4Drn3MiBpglANFD2Fj9caFBn/A08JMEQcIaJEDiKSBpkCRF+oMw4Di8GqwPwTFMUWQlSTwADzzwgI0HMfDEE0+Y5wMRQLuICxId161de0WugZlOfvnk+XfD+h7NfjXHImEXxYHbihSYmBTeiQh3vEDCeO9Pj7yd2Ji0i2N2mMk5nEhwcimhUAmxJjutJafpQZlef/3eHoHrgUC8UJA7v/MUYJkTQsC6x1NAxUBI2YUQyC/Auua98bLznfufNiFphIBbvhgiRjCQYEgCIy/ahuyZGujWPoi3jdfggw8+MMHC/uzzyiuvGKG7FRfvvfdeC0sgENgPrwGzFfAUMBZKQrvZB4icz372s8WExFKJZefpcKsouvcdPl4gXI871Z9zMgRm7UEohxJizB0qUF6BsoVIuXykED4cZ6smnItNXUnHYyP4FQ1G0w9WzMi/P83z2IMgkMJASiUC1SalTDJSEEUlK2amsmOyS+s/9whcHwTiyXXxqYmUOyapD/c/ZI1FDyGT7IcbHiuc9+PWvRMb8emObiVGrHXCEvyEtBEBtIXbH68BQoMVD5OplFlCHIcogcCx7EkqhLg5J2EBwhH0h3bINyDEcP/991sIhCmUtOlWSsRLQLiCPuMpQPiQn0DSo6uuaE+xcco3X58r48/qEZgeAnMgEEo2Mku0GhkmNBpG6uyP1Nmb08BIQdkcfoYriTBIVCfH8dMQI1aBHV9sTCd/MZh+iMG+8NM5B96VoKCIpCkFYhp2S2Nay5vTaq1PqJby79O7Xn5vj8C8R8CVPYa4jx791KzzEydOWnwfIQCx2qJGGzYYucat6kpStWdKaWYDsw7cugPFNk/YsZROJrbvKiZWxvadYKHmwe9//3trD5HA3+QU4BkgJEHOgFvJ0XknSDJEVLDUNB4DxM1Pf/pTK9JECARx8eCDD5qXIl6XIF7vwF0w7yWY97eu72Cl3R1FlmT7ve99T8HevXujp59+esKVv8ZFMAotPyCvpLqHIx06Mayu/lDZKKXCuCxIYtCVLRoHV3vfPqjC0KW3pkO2451jwjtkBuch5wBcwkSgZBCqLh1pRUtGt6xIa0ltMIVAjL9n5yMC3AqFSMqFUiGM7Laclnacj4Oaoz5FUaiz7e362Y//Ue2nTqi5uUnr1q3XLaWVEyFnLG02RAMkHxcJjkix1m1J5c5OHTt+3Eic8sdY9BA7Fr3zFtAm4YB4zQKXgIjngIccRE9tAmYy4BlAoJCTQAIi4oMKiiwvTc0Cqhfi8aDGAUmNd911l+VNEHZ48cUXzZPgloZGoLhZCNXCK14gXP5uEH7OF6R8WDT2/Hdmjr50pWaSCSmdCJRKzI3xOUceBFR+yP80Eib06fm8Pjk7qpFCUlEiWerplbcCSXpVE48mMtXx14+vUsaxyCcIV1Rrbrxz4D4YN8QwXr9CCzEUPR8EX0I1ZJLauTKlLUuTSvrkpLn9hlyl1tz8GUsrRRhEUs9IqIt9kfpHqcrHA6/4cls1r9mELqOZJNhM95jp7l+pyccT9PbFCJRMJFSfkoKRPh3d/4YW1Se1fv1aLV+xQg3NzUawfOchbTwM5BBAtK4MMadzsxDwFmDVE+PH2udYLHU8BYgDVzHRlmguuh7G4O9mNZAAicfBzVIgPEBOAeEIPAK0jWDhXIRAHn/8cQspvPPOO/rd735n+3I+PBaIBbwGnJM+u0WfpuIdmMo+V+n2nRfN5iUNZKWLfQX1DYXK5iW0dVjNLTwda29ejO76dsK4NIpUn5GWNSe1oimpGkTCLHGcM4EAA/LsGcxLH50c1dGOgvKJdFEcmF++mkBwmfxVwB3Plz+RQJjOMRPFCiYSCOPdB5McY+RRCrSg8nauCHTrqhrLS/Db/EfAzT+xeTRRoL7hSEcvDOtsT6jRQqo8u6YoEFxK6mWpcMVvlZd9gtyWcb1d0z1mAg9Y+ds5Sb+q96V0UCIQyyZngkhLGxLa2BppWWNCNTUpBdz0hp3MK4C1/pOf/MRI+6//+q+NrK288Nmz5imAxCFrwhVuSWWselz+hBBMFASBWfK8XC5BpSfCzVDA+ucYvA/PPfecent6rGoi1wsvAkmNeBaohogIobwxOQkkHuJdcAKFqocIk2rLOU92F9/MAgHPwUAu0qnOvE5dHNFgtpiubd8WjMsq24S24GRg32SfB1FCAfk0yYKWNknbVtZrWVNKVlx88vkC45vccxZiKD0WB7ORPjw5rBNdUi5ISwn3wPQCoSgQsLIiLxAW2hcYSyeILGBUCBNq7ynoUPuIBnJJRTYbpRgrv5wkExfFY+/9aevPCfJlxtW54xwzW11cve+BEiYAsAZ57AdqSEfaviKtDcuSqkly10eKwkg9vb1WQ+DZZ581C50iQd/97nfN3e9KHzMrAWImfMD0RPIV2M8VRnLkjKAgF4A8h76+S2bl412oXLGRZENCDHgk3BRGQhJ79uxRbSZjQoG/2Q/hQljhzjvvtPEwSwFBwywJpjnSvhMn0610eDMLBMJxFwcifXQ6p86BnApBSoHdTIjGKwXCjELAC+2ZMpf9DbHFSWoLVZ/MaVNbrba2ZVTH13IWNujceRBKNQpwIX14YkgnuwMvEMztWSSH+MMkESAQpF2rM96DMJdfkqvZFtxfEgi5MKFPzo/qk3ORcpETB8VrPF4wq7JrlXJ5su9wtcjAdI+ZbH+7Tys6WjUCVzkYnkslX6bzFtcEBW1ZGmjn2oxqk4EKuawuXrygl/74iq0/gBggzADZYrEjAHDdY50jCJjhQFIg3gJXB8F9j9y5sOqx8imBTA0FVmT88le+Yh4HJyK4JoQxmJUA0eMNoO7Ck08+aW1TzwBhgFig3gF5B7TJ4krMgnBTFfFE0GblDIvp3HI3tUCQdLqnoPdPFTSYI9BavNnwIYyXeO5FwhTvrtiXlq9hSlmtbk1q99paLaqZXSb8HAqE4oUeyHmBMOayVjHZgijUjhXS7jVeIEzxK3D9d+PmLlnl2VA6eHZEn1wIzJvgJPpUCLhMwlVc+aYnxxlpVcv9GoUY4v0a76FdfEYVe4+nLK2ctiyRbl1XJ+WzOn70iH73/G/1+xdf0tmz5yws4MoaE8v/3Oc+ZzMFNjKzYdGi8voK1uo4gVSKGDG9EGGBJ+Hll1+2hY/IaYgLBDfVknacB4GyxwiMTz7+2JZ5JszA7IqOixeVSCYtKbHSE3EzE/xsv4DkH7R3F/TeyYKGc4HlZbk7Ztx7fqIvxGw7dAMeb4HNSEpGObUtSmjP+owWM1VuFttVFwhRAqtqHuYgjJ9tWCxcUHWb6Ik8zjFeIMzi9pwvh+I+wIdXFAPZMNJHZ4b18UXCDXgQXJCv+j1whfU/JbO8YuzX4pipnqO0X7WgYbHXoWo0os1LAm1ZUauPPnhPv/rlz/Xaq69a7YFEIlkuccze1B0gD+Gb3/xm2WKPj34iYob8SUKkUBFJhMxOoLohIQq38ZBDkOBpYDEl8gzIecB7sXjxYstrIAGSfpCsiLhAdJjYwStUEiheIMz8+4hAONWd174TOY3kydmR4AZzjM8kcXbmXbkhj3QQJsJIqSinFS1J7V6fsZlys9nmViBYIgoehOFiiCFR/JIVs/ev3CYsNVztrpksa2W6x0wnqdF1fw7O4T0Is7llr8expdwCI4qiQDh4ZkQfX2TZ3uJ7xW2KAqHaruM9JMv3XZVxT/eYyfafar9iwxzbpPsgUjoa1bJ0v4Y7PtWzP9qrjw8dsLLFRghBUHbX47rHUqfy4L/6V//KyHo6CYCEB5h9QGKjEwH33Xef1SigeBKeATwUPOhIQqQsMiEL8hsIRRBGQAyUw0POWxFbKMkLhNl/50wgdOW171ROI7lUcWZXgplvCITxjKvZn/dmacF9D5nJYB6ElqRuWzevBELRtWgC4eSITnaTpMh8J/6rOuFrAkv9Brqs3oNwY1zM0sQEfliI4cyohRjCyURrxegn4+ipGvFzqRvMUp7kKl2m/tiOExUbyw1r9PxHav/oDR375APVpKX6+jplMnVmuSMKsNpreGUyVqDo0UcfNYt+OpY6AoPcAhIWyUNAACAKmKZIOAEhQF4DG/kHhCTIK2DWgvMSuBlYk92o0+nXZG3dbJ9TTPdEV077ThY0yvR3/plASIwvEG42kGYx3suPoZIHYVFSt+FByMxuzeA59CCMJxDoYHUPwviu/FkgNd8O9QJhvl2RmfWnFOArCoRgxgJhZieff0dNlEDGZ4nCiJoKHVpem1OiMKS6TFKZTI2CRLEoEuIAgub3FK90uryEszkypjiBmwcYUxfJQWChJkQBVRVJdEQ4MPPAFWWKl2se0/4Ul1Weap/m39W6/j1iFoMJhFOXBYJKAmE8Hpidc/z6j/la9sA8MnZCLxCuJe6zP5cXCLPHcD604AXCmKswmUBIRzltaA21e2NDsaS4xfLHFjOKJxLGKyBORyAQViB0wNRJPASbNm2yZMPKFRvt0VnKJ6hW7XAqUxa9QJj5F7GqQLBnI8xWXQp4gTB1vJ1AwFtPiGHFoqT2rCsmKc4GR+9BmPo1mNmeXiDMDLf5dpQXCNMWCBRK2r2xXrUUUCotc14MNhYfWXNBuDzAEAYkPxK2YOqiq9Y4326hm7k/VwoENwV8/DjVbIjtZsN6PIEwj5IUfQ5C1ZvSC4Qb47t6FQXCZPH/agDGH54lO2zaOJcTm6Z9ZMmdOc4TnHbxIFwLgUDXyUOIbwiPuRAfM4DFHzIOAl4gXN1bY0EJhINUUuwOlA+K2ao+SXHszTHVWQzx1eHiv1/dW21mrY/nor1hHtRXWyDEhGRp8lfR+0qxelsNtGh3F7PtIyWCRLHAjH2/SJYMlSh+2aqUer58TSvFiB0ykyXMzQVQ/V651gLB5RYQsqgWPpjZHe2PmksEygLhZKjRsFhiuTi/8Xp7ENz6OoFGRwbsexQkk6qpqbXvWS47okIhVDpdY/UxRoYGFRRyVlE1kUyrprZByVRNcT0JhOlcgjaNtsrf66A0i4Ekxfk4i2HQTXPsCZRTqjhFfAYPoGlgM793nYEHgYccU8KoNEcslaxvrKT5ahlR5x4XL9Xw4sVlWAiHcTCVjDEs6O1qCoQKcWCkn0hY2ebig6coBojjU4+BpN9kkJQZzrYv0y1DJUux3OKPyadcujyChS4QFvR9dZN0vigQ8sVZDGMEAvxw/YhVUcH4afDSgLo7zyiKCkrUZLSibaVyuawu9XQon8urpqZeza0tOnPiUw33dth3Lplp0Kp127VoyTLlo6Jov14G0WXhHymlnFY0J+dboaRiiGGoJBBOeIFQ/OpPUyAgDij8QtIVCViPPfaYEex8tYwgJsrTslreI488YovcuI1a+2fOnNajjz5my/Mu6O1qCoTK+8R0QN5IP5FiwbNAIQ8fvAdRQWEhq0QipWSQUphnsaK8kqmkEqx9UvIgXJn3Vek7KCn3MQtLTd3+mUqS4rUKMSzo++om6fx8FQhBWFBQGNUnH32gdG2dmlpabfn2xYtb1d5+QqkgUFNjg44dP6b1Gzbr4rl2DXSdMwGfV402bLlNbWvWq6DiQmVTnHwz51f9criQlWG8QCgDXHZtj+fecVXfQDBWFa3qFbKrO8eLlM9QILz00ktW8e3b3/62zRGvVKaMm2lczP1mTjfzwJnuRVEY9qVIDD/dvHLq0VNdDgufz9ifynGsY0+FOSx8Psfq5z2mh0FQ/M2LKWksaMM5eB/PAC5d3qNIzRtvvKF77rnHzkeiGO+/9tprOn78uL72ta9Z28xBp89MO0P0cB76wUI69I++0Q93Hs7Le+zrPBOMmzEzBvrBvogPjqcdKuuBAd4MfmdsHMPvjImENorrMDeev6es+K+iQHBBAXdP4toc7OtWb2+Plq9crSTeF/MiBApzI+q4cFqtLWBSp/6+Pl3q7dbyFStV21C89ibVg9AWwSmthyNbNNSeIuU1RUvTj4t/R1YlslgRslJKjFubYbIQQ0spSTE5d0mKLpzAfcj15t7gOk62jSew4zMbTKfFnvCTifLKzyvboj36yYvvmiVPSiqEod2v7v6N9z3eZrX2Jrpf42E+9qsM+013bJV4TIbxRJ9XFwilI66jh9m8crkhvf/uq1qyYpXaVq1VGEaqrc3o0KGDaqqv1/LlS/T2229q4+btutTdoZHeC1IyodF8Uus23aoVq9crShbXZCkahdfea+4FQpW7jxseF2wxLltSb46QY8W+3ZfF7VftRsZl5DaL+87VNgOBAGkeOHDAVrv78pe/XFUg4F04dvSo9n/wgc37pq48VvxDDz1keLzyyiv2k6pyEDJ16lkZDwv/xRdfNKJmxTpW0WP5W97fuWOH3nzrLStDy6p1Z/FkvP227QvxU+P+7bfeMswhbMiXNiF12qQNm9eeSukzn/mMlb5FIFBjH68IC/RwLeg7K+/Rb1buY/U8CBzypi3q8rO4DgKBhXyoi88DlmMhBYSHK3jD+SmMg8cF0cAGfg888ID15YXnn1fr4sVlAUK/L164oD23325led0c+Ukv9zUQCEUNi5cgr57zp3S6vV07brtLyXTKxhQkM1J+WIcOvKuNm7YpLITq7uxQdnRU227ZoaCGMsFpDQ72q7u7Q/UNtaqpySiZSKizq9NEWl2mVh0dXVqyfKWSQajs0IAGR3PK1DWquWWJXTsLa8Q2C21VADQlD0JZICA9iomEs53FAKlyn3C9uce//vWv24qLkwq9Uq2DMc8Cnh+lRZiKMZzS7IqSSHKfOaKOk649e0rJkfFz2z68X7rP8a7xcp5APkcwcM8jslkTIi4EqomSSrK388XGU35uxa5bNYFwBeHHxnz54YdgjHHdHJnE81EgME4e+1Ehr5PHPlEuO6Tm5hal07VqWbJE58+fU25kVHV1aXV0XFDbqnU6f+qERrvPmfDORimt37pby9esU2DiLzkmsjfRyqmTPm+mucOCEQjkIBw8MayrHWIYexPHzJ4qAmHMVRtn6bCpWE3TvGYlNXml2JgoSdFZSAcPHrT68l/60peMeCsfgDycKAzz/PPPW1lZHjqQKuQK2bK0LQ8gCBaLmgpzCAKI/siRI0bSWN9Umvunf/ona4M55JA4omLVypX61a9/raHBQT308MN2HDkRP/zhD60/eAveffddEwkcxwOb4yhf+8c//tEEAAR98uRJq2rH54iOHTt2mMdh//79NjbOR/7Cww8/bP1HVDzxxBP65S9/aUIFccD5IHawwbPCsZTmRRjwPmKKZXohfDwHv//97w17zveb3/zG9sViA1PwOXXqlP39rW99a+qhj6ssEAphQWdPn1Rvd4e5PHvPn1BvT5c9gKIElecCbdy8Q+kgpwPvvaFNW7arr7dP/f3dSiQyalu9RsMjI1q5Zr26unv08Ufva9vWLaLd2pqM3t+/X0uXLNWaNeu07/0D2nPXfcoOXVIyKihbCBSlMnZsbV1dOd+lbBDNWCBIuzfWqTY5dwKB+5Z76sc//rHd/3jYuO7ca3GiZD++BwhOfiKwEIPO+8W+/M33Co+S81DxneE+w7vFTz7D8qd92nFeAMsTGh217wTvcbyJOEmj2awJLc7Nd4R7Hy8a3zf2ZT8ENZ6wP//zP7e/aYefHMe5XcIl/XELW3FO+sx+rl+c19WTYGy0Qz/ZrFplKmV/0yeOp08up4n3OQZBk6mttTb5nXNQuGpS0TWNB2I+kk5ekYNQauB6eRBKuTp4EbIjI+rpvigWdM/UNahpUYvyuZwG+3sUFgrKZGqVqatX98Xzyg30Weg4DFJqXbJKTYtbzQMX4IWLCSovEK6wKiJVJim6xOqpRzcnuetKBVdwn44MD9lNXFOVSo25AAAgAElEQVRbV7RwLCG2NM+6VJwlLOSVy44qmaJyG65at09ROZqDFfdtSEJYaF8+vlT2wCmtJTGrvk/Tg8Aw+NJCZrjt8SBUCgTnOuQBw4PGWdMkCyIG+KITluBhARlifVuIob5eQ8PD5l4n+ZGqc7jn8T7w4OK8HE8uAb//4Ac/MK8B1o/zGOzdu9csf4gbQoesERcQPeSLIPnFL35hYQYsVoQKooHxMBbEBCKAth9//HHrA+IDUYDHhKV2+Z326DtjhwB4uDKun/70p3aNvvKVr9g5eMg9++yzJpC++tWv2njAjb5hWfJwfuqpp0zIOFFCu4gKyIVzT2m7ygKB5KiervMa7u/R6GC3Pt73irIjw7plz/1qbl2uVLpOjc1L1H2hXQfee03L2tbZGieF/Igy9S1as3a9Ll48p8237NTQaF5HPtqv22/frc6ODg0PDerM2bN2PVavWquPPjmqPXc/oAunT2lxU72WrVxjZdFr6pqUSBbXJZgbD0JcIJh/ZFYeBPrFvYpwdiIPTxHCNL5+gxMR3EM7d+60fY8ePWr3G14prHe+E3ifuKf4m3uejfuFtqjEyP3FvcRS0Nx/iFCKMHGPIU64p1limr9XrV6tjz76yL4/fNfY2JffEakIcb5ThAM5L94+7lmWleY4vhP0BXLm3Hj2qA65b98+u8cZE99RPIT0g+883zvucUIsYMPYaJfQJO1wHj7Dg4Gnjn0YB+/z7EC88JzjvLzP84KXq0Q5WYhlSt+b0k4mEFisyUotu1kMV0MgFO/dcYr7l7tcjri5NDE7LDTvWUjdDmbEUAE4yhcLOUVJBUlyg0IpX1BE1kGQUDJRIyXwj5W+M27GkSUUj1/r47LFPx0Ux983nqRIDkLb/EtSBM7iYk3mQeiW8kHasL28IO7swIjCgrJDg+Inr+6OsxrNZbV6/UaFvBcFStc3KZmuEcIgPzyo/Ei/ujvOK13bqEWtS5RMppWqa7QV5QYudSo7OqKaTK2pRb4sfJEa6zJqbG5R/aLllplanIVRuvHmwOUWqKAdKwLtXlOjVCy0YTd2KbeAL6/zCED27iFAH521xEMD0iNEAAmvW7fO/ubm5mHIT8gTMcBD7sjhw7a0LZ8Ru/3tb39rxMlDhweeWw3vjjvusH5gxSPAeABzfs4HQeM9wBvh+sjDjAcT7yM+eIBv3rzZHog8nHk4Qv48mBAciAIIGkHBw4uHkvMgYB1ibXEsD0L+ZglfPBIudMKDnz672RH0AwJASCxdskRvvPmmtUm/CEfgKSA0gfhApNAnHry8z4NxSpbS1RYI9tUIFeaGdPHsER079LYK2VFt2HqnFi9brebWpcoXEhroPqcD776mtjUbdWmgX/nsoBqaW7V+3Ua1nzimDdu2ayRf0OED+3XnnXfo/IUL6u48b56gusZG1dfV69Tpc7rv4c+r72Kn/j977xVc13ndff9PRwfRCIAACfZe1Isl25KbLJfYjh2X13Eu/L3JvPPlIpPLzOTKF7nI5CqTyUyuMokd259f27Eix91xkWVZVm8sYgNIgmhErwenffNbez+HG4fnoBGUQWlvmwJwzt5P28+z1n/18eEB1TTUamv3TlXXtygSjXvRMivh9OW+pyY9eRCCPgg+6Ag6T65q3QP9wChPnz5te4b9AGNnr/Leg22xd9jLaJLYczyD1ox9BWOFgXI/DJZ98stf/kIf+chH7TPu44LRd3Z22tl66KGH7He+Y8/CqGmbZ2HQMGO0YJwXzgXnlbPLmenZsUM//NGPzOTFfexVgAPggHdy3/33m1YMYM1z9MF39913n+1Rfkfrxrlm7IBgTCtozzjTnHunvQDMoJ1jzuxr+mfu7Hc+4wKMUBCL+f3yl7+0z69evWptc865l+9ZK5O5NoDe0Q7FmvqW1GIIOHBvWBQDsAC/G4AoDN454t4YKeGige1Y20Qx7Xl+G3l+j0o5q+DqVZvEAdG0AzyQ88zaMUsAVlAuElPO+Jwzo/FwxhNVTcj0ir2ZIEofZiHyqoR6/0oOk92+NjO3wW8/pYBX7nnThTleBwiv98551Rx9r+qNAgiZhTn1nTul+Zlp5bNpZRamzOGnsbVdi4sLyhai2rnvhJpb2zQ1Oapzp15RKlbQ3My0ChFywVdZ3vedB44plkho8MoFayseT2h+bk6NW7ao/8plJRJx7di9X+09BxQpRKW8h0e9l7AS6VwZBLGJD7WrIkCA2WES4OBCNJCiQfVIzhxsDr8DE9zzX088oa7ublPlc+hRUz722GMGJJ544gnTiMCAX3r5ZSOOMEkkqJ///OcGDPgbXwGq4kEMUXFCJGgbgka/qO5h7jB6+oGwQKiRohgfBAwJ1alIITb4BKBBADhAuOgD4srmpy0n3UHo+RwNCEwA0wPAgGchqkh3qFoheIwFAukcMhkHWgBACUTaVeaDUHPxOQADyRNiCbBAMmPs2H9XHV1RAhBO9qd1eh3FmirtDs//IK/Z6Wsa7n9T8dyMxkZHtaW1W3OzafXs3K2G5k5lF+f16gu/0/bd+zU+NqqZ6TElUlXa2tahoStXtPvQIaVzeZ1941XddeddGhwe0fjIoK1fU3OrqUwHBof13sc/o0Q8qYnhq7p8+axSdY3mkV1dXevFNawCJFScyy0CCIDZH/7wh9YtYBhTFgwaHxf2rLvYX9yL+Y0LHxqYOdI70rJjii77Iveyt2C07Hueh5ECCtgr7EH2CT8xV7GXKBtN32jSWCvOLGCcktUwb84hZw3m/swzz5gWC6DOeaQvxssexowGuH788Q+ro6PT9iiMnjFy9tAmAIDY8wBcQC3AAcAL0GAMnDvmSP+cebRrtI+WAO0Fv6OV4+wwLsAAAJ4zi3aQsQOo0GYAbPDx+MIXvmBMbaPc8gkDpNzzC32YtGCrfgIOI2QrA9KVqao15HsHIuHTBz4BFISy2tJF0OtAAYzfA6xebpFIzvtZiOQMZGQJKQYw411QkPKEHhOtgLNwNm0APp6IK5ZMyYxL1rDn6BvJp5Ug/FgR5dA4FAp23rKmqY4qGvdKnpe91gMQXPclqZY3USbFWw8Q0nPT6j3ziuLKaeBKr3LZOTU1NSudzSuJ531jm7b1HFVtXb1Gh6/qled/qYMH9yuKaSGf1ezUhEaGhnT4rge1mC3o0vlTyiws2KZA41CVSml6ZlrRRFy7D53Q1u0HFKEipcWgu8106wGCY6xI7EhDphru6jIJHiLD3w6BQvCcShHw4Bz1IHRsQPc3gADCBqGE8MFIXVQB90IUYNCOiLpqdxBICKgjnhAd+kH9CoHjGZg7nzs7KgCG/miTf0j6ECcAx8z0tOrq620+qWRSE5OTBlJoB80C84Wh8xxtwvwZH2NnDMwfwk5brAFzoX2+5zMABvcDaFgb5sjfrB3qXqdK5Xe0HYzdgS3GSJuszQ0lh4MAIRfRyYFFnRmMIExsyGWao5lpDfaf19z0kOL5BQ0MDKoZxt/fr/raOh2+812qqavXyy8+r23bd2l6ely5xVklq2vUUNuo0ZFhNbe3K1lTqzffeMUAwvDIuADW46MT2t6zU1cvndOly5f06Ef/lxG8VLKghakhXezt156Dd6mhscmTXjYEIDgTgydp2f8Dx2et0inaPRge+4x9ghYKBomjYjFKwCe67B+0R4BPtA3st6efftr2E4AYp1nMczBzNFyADfY02jWYLH45AAKAOYyaNQHoorFg7wAQnPmLvYLkDeCGgdMHTsH0gR8MbSP5s395DjMb+5TzA9gGQODUi8YLrRkaMrQDfM4effCBB0zL0NvXpz//8z8vmkmGBgf1R5/4hIEl2kMjyDkADDQ2NJjfAX0DHpgX6824uDg3ABNn5gOQs44IAMwP34iVNAisiaNRrBnrUOmdOoDw4qWcFjK+rT7gL3bzVNXDBvk8ZuOsMWpodyFCuHBOUSVtbGieFY15Ah+agAggIKIYTocz08Y3Mpm0YsmE8YF0JqPFhYwa6hrVtq3LM1UrorHBy7p44U3V1jequqbG2mzbtkuJFEA1r+nRfgPj0KDGxmbNzcyZRqKQj6q9e7tSNQ3eGMtRjxAgrI+m5nMZzUyMaGZ8WNcG+5RemFWOePGCtHv/UXtBsapGk/jHh67oxWd/rj17dhtAwDFwdnpS01NTOnLPwypEExq50qdMel6Z9JyymQWl5+fNq5VMWjXN7dq+/w7V1DSAGf0Bb8g2NjVYJQ2CY1aVVsgdwKAKqvRQLqeeCqq2XF/LtblaVZe7z7UftF86VVppWxAXwAHaBYgYhAnNAkQ5GF1QnF+g6l7p/Mt6evsmG0fogmNyz7vnIKxIT4wB1TOMA5CE9FWUb3yClnYAYSii3NIsv+vb2L7fyeT4Nc3PTGpxdlKTY1c0MNiv7bsPKernO9i6tcNyHoxeu6aW9m5NToyo4IPkqlSNBq5e0UIur5at7bp84Zz27t2nXD6q2qqkLl7oU3fPLs3PT+jUmZO676EPanxsTNHcomqq45pZyKljx35VVdd6c1ijijM4cUCAZ2LwAEJ13F/Boj53fcsEsUVy5ifvC4aPhA5IAAijprf35UcYoCWCacLUYcpPPvmkMfUPfvADGh/3TAK8Zxg/pgQnfePEh6RPPzBbtFCAE7RwtA/YQJqHkaMNcKGWSOROO4cvA88gqQNqYOLsOUAo2jUYMiAGjR1AhvkA/OkTswGaA9pDqweoRcLnvCDZA6QBJDBkxgSgBdwgKMDgGT+AiTkDsgEd3OP8jNDc0Q/avwfuv1+Xr1yxc4gmhs8A62gTlgNwzAWtFPejGWRNGLcLnQ46jdLOWwEQIvmsxoaHND0zaoKEOTYr4wHt5g7V1xDBc01bWttVwIk1Pa/Z9Jxq6+psjafHh/XmqTeM3rtjjaQ/PTmtrW3btPfoCSVSNcqmF3T+5CsaGbyiJgv9nlY8WaUDxx+wUON4vKCzrz2na0NXNDc3q507d2l4cETRSEELmZzuvPchNbR2StFE+TrrIUBYH4FABTs/N6258UHFCvOanBzTyPCAksmE2rf1qH5Lp5J1bUrEEhq/dlWvPf8rHTpyVIpVmWpoYWFO6flZ7dh3RLl8RAOXLiimnPKZtCbHRzR2bUg1VUmlqquVqGvS3uMPKFVd78eHe86PG+GZuhJAWA1IKDK7MqVqgwx/pUO+hLAH7GKlzHw1IIRnSoFBUAopbZO/nTYAYsmhhtC4XA5L+iyZZ5DBV5J0SkFEELy4ebvPkPb+9V//1UAC2gcIOtIfKmCYSEtTk5JVKZOs09mITg0u6s2hiLIbBBAYB/4w+KTE8lmNDveq99JFHTxxj1KpWrN7sgPRMkSjEaVq6jR6bVCjI/2KFEiSFNd8elZVtfUWyw3Yra2lcFGVUvGIaYGQdqKJgkbHrqm1bZvmpqeVy6aVxBM+Xm1SDU6KNwMObO+uAiCsFniWUgq3J9AiwNRQ/bscG84nxWl/AHv9V66opbXVGCgmK/YYUjmMmuddTg60T2glABkwU+7lHvYjawfT5DmALPsB6d80YjMzBhJgMDB504z5uUZgoOxl+uGiPcaIRgug4zRggBsqUjoTItI9QITPeZY+ADsw3T/5k89oeHjExkGf/KMf1oDvaYfxMgc3FrRoTpPI3qZ9xo9TI3+bP8TcnIEnPkMbwf6vRDvcu2O++CRh2mANWDvODCDfafZcVU0DCOM5K/d8azQIBUULefX3ndfoyFV1dmzV3MyMCpGM3jx7Vtu27VJ3Z7t6ey+qvXu3JidG1bKlQflYXJFYXG0tbZqeGNCZN15VMlGlbM7LXNvYWKfJiSm1tXWpc+9hKZbSxOioxof7lYxmzeQ3Ozej9q7taurcrViiyuDFhZMvaGSgzxyEO9o7zFyI71khktDxex9UXct25SNJz8et9AoBwnoBQkHpxQXNjV/VyJXzmpqesKxy14YHVMhl1N65W3sPP6TG5jYND1/R8OCbuuOuB5WP1SuPFiCPE9iC4omkFhfTujbcr9zigjILsxrq79PczJQiyioaj6qqrln3vOdxxVPYZAMahA2wlwEQDm4t6Oi2BPk2ijHNQaZVjnEvYbZ+rHWp5FxJSi6ryfKlxCCgcGpCvHVL46FLNQ3lGH6wn+tOOJ7zT3BsDgQF27B0wb4Tpus/2Gfw3tK2PEejpUV6XJ/lAERQ48GcYQj/8i//Ys5nEEgYB0TXVND79+vggYPat3+vduzaqaqaRr05nNeZ4YiyG2RjcMK1pSsiQmd2XKPjo2ru7DbbJSKNScbmHV3AcVrZLOm455VN+0/HZBJOVVWNTJNqDrBEZ+Od7eWYV7RgfjvxQszsrDhkAT3IlVDI+542N2k2uQ4QCjq6s0ZJ1Lg4fPnvqNy7Xw1FCDKscmDU7Qnep4Uc+smCghosl7KcfRbcA8H9xPMW/mfr7NuU/b3lch/wXTAPgusrWMK6FOi7cfB5Mf+C/7vrKxjeiIaCfwAEAAr+Dvfcc08xBDLYvr0/fxGDYysF6LRvuS6ghS4HREDT5tbEjaMS3eB7wD1hz0Q2ATLQUDiNCtoLtCCABbQojc3NujodsSiGheytMTGwAgOXezU6ckUH9+9T74XzSqendG10THUNberuaNXg0KDauvfocu9FtTU1atuu/RYhlIzHNTF0UW+8/KylMU8kk8oWckqnZ7Uwn1bX9t3adfR+KV6t+bkZxSM5TY0OqL/3rCKxiLp37lFD6zbLJzI/O6vzJ1/UwtSYZqamlcmmlUrEzG8hlqzW9r2HtH3fHYpXNShKaMQ7BiCQ09pSLc9ZHoSsEviGbFgUA0RucTGj4StnNHTlTTW0tFk0wuToNU2OjVmceGfPIWO6l/suqLompa6ePYbUvFRKvpdrvqD5uSkNX71oaiby209PTngesNirIMTRpI7f94iiyRrTIFjGLeNBZRDfaqibPez7/RRymrn0nCZ7n5fymRsYZ2lz5ZD8ShJYUMKupH4vBSFBYuIIaSnDDxKlUiZdem9wDMuN1xGjUq1A6TPBdSiXpKbca1hOg+IINT8hwNi0kdgc83GABYmwrqZW3Tu6tXvPbh06do+qO49qItJu4PFmDU+OsJuntF0FRfKEtmUlUi37hntzoMKaX4goitdUIWf200LW0oRZ6JU5SUVjZnajNbLCcR4MBpiN2PsskvOyxODOxf9jG+B869bf4EpuQYtDZzR4/gVFMlOKMjbzQfCTEQUy/ZXuz1Ufp0CyolKGVm5vOtMD7ZsK3NdKOeZcCjpc/gG3h9xPPndXMFzOtbPSngv24+4NMmvaBuDg/4P6HsCKpA+jRSIvrrMPuvm71GfGgYQgSHcg2p3hcoBruTNd+l5I0HX23DlzrGS8DlQ5c4bT1uzavVuHjx5T6847NBbtNnpsG/H6dr/pM2RrECnoqgGEfh05uF8X3jyn+blxpTNpxeM1qk1FNTM7p52H79Hs9JSGr1xUorpa23v2aktzqyaG+/T6y7+3s0ToPPPJ5dLK5PJK1TTq8B0PmY/B1MigxscGNDczpuzCnGmnFjJZ5WNVauvcofrGFo0OXtHc5KimJsdVVVNvYfS59Iz5XTW2dmj7vqOKJeuKTo1B2usFPawNpRfvdsWaNmOYI3MizDEYxbCRAMHz9C5ooO+khq+eV3PndvMynZue0cLcgg4duUPJ2kbzUSAlZkvHdtXUN3jZFn2zqpHRfE7Tk2N2X31dtTnOoYZjYxtlzefNifH4vQ8rmqz2PGAhxrapNwAgKKeR009p8NSvVch5CUwqMbdSYrOSFB9k4I5wrIYAlzLzcsw5SMyC0pnb3OUYfCnxLQURtOMkNsf0g4elFOi459295SSdIJFbiVg7IIQEhLTmVLGOiNNfMpFQdVW12trbtH3HDh2/634177pXU/FtOKzcNHELxkRbeFU+p9zCjEndFhoVidoetlDbSELxRJWPuvPKZTKawok06SXrYX/GEimJvVyQctmM8uZ86YGJiIVzGSZWNJGy7IxWrAnw6hPsjQA8eHFP9b6ksy/9UrH8rAcQvBdbLCTlGO1K76h0zwT/Xg6Eun0QZPDufZfuZbePHKPme6eFcMDCadfcuIMJioqAoRi6tnQVg/spyOCdrb4cIHdMnp/cV7pOlc6GowFBbYAtvb/+pUDI/R28fzmg4O4DuACo8YdgrYIX40ULhwmEHBFHjp/Q9oMPaCq5U4Vole3FjQcI0kB/r0aH+3Vg7x71nTuvhflJZfM5tbR1aKS/T4vpjA7f/6idl/T0mK5c6VU0Va3d+49obnJEfefPWLTb3Ny8OTdWVyc1n17UlpYObd99WJl0VmNDVzQ81KuZ6XHjF81NTRoeuabtO/epo3u3qmq3aHJ0SCNDlzQ/P61t3Xs1OTGtmXEvJ0l7Z7d6DhxToppU79c1CMVsvjcBEKARm7QWAyrkGwEC6oPrJKEsH1zTh7DnsaFeDVw5p2iqxuxHZLpKJqq1Y+c+RRLVWpydMDtQEk/ReLyoenPjQBNBMRwSJcViEbMPTYyPq76u3jbF9PiY2aD2HblT0XjKxofa10O96wcIRuRhiJG8eupm1dOwaMBjucNYJG5F4uqpmp0KvhxTLseEg0SpFGQ4Zh8cRznQUg6cOAllNe2Xe9GO6Drpo5RIBQlv8Pkgoa/EJIIENQhoSufG30hr//Zv/2YOYxA7HL2wA2Mzxmlx3569ZmLY3tOjxuatujSd1Nlr7K2b1yAYQbfJIeUXlJ6b0oVTLythTD1q0szE9Iwi0ZiSVfXavmOfauqIZMlrYnRIp199TqlkTNV1jYpEEurZtU/VDS12HqlGN3T1ipRbVDLOYcwpS4KwQl5NbTvV3N7jVYS0LHBrOooVb8aYkCBZS9WceprzSkYpRe0AwvXz496D23erkZrKgYng8+XA8GoAQnBvB8GDA6tBsLFEe+VX3Czda0GQ6xi2CxsMzrPUJLHcHl8JIJSuYyltKHfui2MLmBkqnblSYIbWDUdPIj4A2AhYLiS0u6tLu/fs8U0Me9XW3q6xTI1evxq1FMVLmMKGZFKEtuZ19Uqvrg1f0Y6uLo0MDpnJGK1Bz+4D6jvzuqYmJ3Tk3vcok8mpoTalqakRjU1Oa+few5qmzsLsjAkDw0NeNEMiEdVCOqPuHbvV2tFjjoXZ7KLm5sY0ePWyaqtr1drSpNdff0MHDp7QlqZ25QsRnX3jeV0buqj5+Unt6Dmg/v5hJWLSxOS09h8+pt2H7jBzQ/DQhQDhJumPEVFUpOl5RQqLiiaSZleFqeezeUVjeK1GzeYKQM2RlCK2NGtXsWaDU88V8sosLnopaUnFms1pfnbGCKZHcL3YV5co6WbigosAIRDFQHhNKWFcQqyCwCDwu1OPugO+nBRW/M7lbw9kpnaSRakOYyUJYrVS33LtBAlRkFmUG1NQPRokauUYwmoIXCmxwwfhn//5ny0GHU9sQuOwofJvx/bt5otQVV1lIJHUxG/0L+j0sKfu34irqEWIFDQ7Pabnnv6JutooQkWN+qgyOam6rkaL2agOHr3bSs9m0/O6dP6MBi5fUNMWEllllV6M6NDRe1TX1G4q9MsXz+r8qdeUiuUVj+aVLWQszpv47K6dR7Rz352Wytn8Fdam1VwWICQjOe1uLujYzmqlTFgM+iDcuGalTH4j1vR2b6MU+JY9cxuYq2A1Z9WdPe7FCRQfhG9961tGO3FsJGQUR0XOD46KqN+j0GhLlOTlQUibD0KAN24QQMjnM7py+YKujQyoeUuTkvGUYrGChoaH1d29W5n5GQ0ODKhr10FdGx5UIpZTqjqlRFWtGptbNdh/RdXJuOZnpzU5Ma6sn4KbeiaZbF5tndvVvLXdokkmJ0ftvi0N5NaY1/nz53T02AOqr28x3vPm689qdKhXC4uz6urerUt9/SZwpDM53X3/Q2ps3SaCL4NXCBBu4sT6KTCEH1WUzFYwO8CCX8w+ioDvexkUsx5alTqXgtnfk74N1AoyBRimd/i8Xsio5ctzfrrMmxh4mUdLoxiWAwhLNlAZO3GRiPijXy3j3tgZbVxrq5Eib7a3cpIYpgWSyED0cLCC2KEexQvdtBx+Yhd2yC0FCGQjnR7Xc7/9kbrat2hmdlaRQkJVqVrFUgmTvvYdOq5EVZVmpsY0OTxo6vuFuWktLsypqbVTrR27zbkWU9lA33ldOn/aasTnMvOKxAtaJMtbLKHOnUfUvQtbKFE+3rnaiItmEgCEFulYT5VSxg+WuLze0I1jTqYZsnwz69fUbcQcNmMbwbPxhzznjIN/RB4RAkpSKbRs+EgQ6UEOBmo5BMebi0R0yQcIC5nImkwMy++c62+KTDxzc1PKLM4rkUgqGa9SvuDVuaiuqlUsEtXCQlrxVI0y81NW+CxWVaNkda2FYc7MTJmWjXBHdmx6IaOaVI0a6xs0MTmlqvo6VdXUWs0TNNDVqZQVTLt8+ZyisYh6dh5TMllr2ma03JnFaWXyGdXXNerayJiqa2ot6ql9m5cHwTcaXp8AJkCP8azbB+G2MzHcrA/CDZKtn4DLI2Zecib64HKMvbjiAaHIS0N5PWOXbV6z/fvOh75+NaAr8Nq8BZRiJYDgumRj4ylMGBOhUUEHJXfP2w0g3ILlXrFJ1pC4cHxRkHaIXrCiPEFAZp53ni/LrQAI3iDxOShoZmpCT//ie6qvjVtilVQ8rpnpKeWjMVXVtejIHQ+qtqFRc7OTWpwZV2Z+1jKA4pjQ1NKqusZmVdU0KJVIqP9Sr4Vkcc/MDA5TVcrgvR5LqbmjR7sPnlBNTaOfGGljmPJqAQLrjh0bUIa6uqO93YoGlZqtVnyB4Q1/kBVAkibCgncIbXLFr8pp9W4aIJRxaHSRP8HJW/0E89UB1GNoJhrFo+Qx87/JWzZDTF6YeguxhO/UW/A+59ls2u5HAx0rxCzCIZvLqYBTr/n15BSPxyzyB41zOj1jvsTxZL0ilkZJimQWzFyYA+hihsKczbrZQn0AACAASURBVE18y2eWdvm607vNxaXddw5za3ir1/2YNrEPAkK5i2LoG48oswFRDJWEGi8fgaeb8gR+fwcFPb4CC1xuMwXjvX3fanuiQhNreF3L3wpAONwhHe3yajE4RM7Bwv7tcgPgwew8hD/3uc+ZPa/ctVrV4IZN4G3YkK2hbSNfe+T7ixTX9pYDBN9zUF5Cr2d++X1tqU+ZrTQZi2p+fk6NLa1azCW0/8jdSlbVaGToikYHerUwO6mpiWnVb/GyIMaTKTW1b1NnZ5dpFWYnRjU9PqpELKJkKqmZuVmTfGqa2tXRs181VfVeYbKb8K9ZSqSlZNQzMRzpqVIVkhF+P6wp4XgFL2oEs07vxYs6d/687fkvfvGLpr25IYvl23C/vR2mVEnbd4OGzqCvZ2J4kTDHnJPo/FWoaGLw6bt/mzFQNo8f8psjGgemb0Qb1u7XN6A/53hL6QRyGsSili2RfeiFCvs+Zcas8Qvz0iKjWbbcODQQjaGiNpMBVzF2xZctHZzGjJEvZJQvcD8FnHya7kcO4S/mWfC8egzWv0XgyO614fuabtNj2/jWln769gAIfrGmW1WLoRLjLlVBrVZTeiu0A6s5+GzFI50eQGCToVYFiZN4hYQogAI86kneQzIS1N1/8zd/YxkGQ4CwmhVe/T2ljlt2WEvyQ1wneLdYg0DUQgEfhHG99uIz2rurW0NDg0ovLHiZ8FJViqXqtHvvUSNW4yNXLaUrJWhR9za3tZumob1zmzr3HFQ8Wa3RkUFduXhOmYV5NTfWG3GdmZzQ+OiA6tt7dPCOd2lLQ5NJN16x4pu/YAbJSFa7m52JIWISFBox9jihcWQIRDVNRkE0CPh9/N3f/Z1lRQwBws2/g41oYTlzHzvF+VSVagzKmT/YE71+saaFPDkoPI2c447ldh55OvwbDLuaYE2uFPs4qgwMNlKw8EbyCRQrOLpmi1pmP6eLsyK7n37YOuZqaHI+SiVTmQ8bJ90rquSckPPKWznHJcEXXpEnPN8iRMd5yCRGmLGZJL3xGR7AH65YzMkDI6ZMKAoe3n34AlnOEgutX/15DAHCRuz4TdIG22NfS0bdtXMaHhyw1KkQTH4SNkQ2MzQJLpyKDGX/z5e/rH37999gm6rkv7BJpnpbDKOUwJUCBJgXVSITycQtNTGYO00hr9GRAY0MX1XH1mb1X+7VwvyMFRBbzBTU0NSibTt2qqa2wcIXs/PTVpeEojFNbdt0ua9XW7e2qXXbTiFhXTx/Rr0Xzqg6gQRVUGZuQbVVKUsPW9e2XftPPKjamnrzvEaFuhEXdDKWX1RPY1Y7WyKaHB1U7/mzOnPmtM6fv6Ar/f2WSRDTmQuPw9/jr/7qryxz5caMYiNm8s5uw9N03yhulUZ8FL23XCbW0mUjI2FLi6bydXqtP6J0DmZeHiAUe3PGeA9BeBJ4Pm+RBYXFjMeoKZRElBr5CtIL5mhOhtE4obsw6Tw+CdOKJ2KKE/rrfNLc+PI5S2aUS89b8rBYVYNq6pvMfLAwP211HRJVnpOlFX8OAAQDSPmcRTTEk3HLiIhGgMg4MvPGUjU2tnw2YxlSCzlAR9ZCKAkvLogqjy70FDiSt2i8LJlNk9SNSC4tXLLCVgwBwtvorAIQWiIjmup7Xs8/+1udv3DB8rZDMAEF/AvaYfF+RfXqSj4Hl2JVns5vo7Xb6Km4dQ7mYHBmBRcbT/a6j37kI2rvaL+lUQwABAjKyFC/YvGYMosLVtK8kM8ok1lUa1uX5tMLqqmvV0fHdotamJuetMxuW7Y0aXpuXlevXLaiPxR5QknZf6VPvRfOKZWMGpGbn5lRbarKwhxbunapa+cBJZIps60WJbCbXGSIFSVnW2KTWhy7qN//5mc6e+YNCyWdnZtTNns90ZARyUjEfD4ABziFlu7ptQynHGAOmuCCYNCZ9orZQ8sww9UA8JVMfKtVxTuGUaoRNZV0matS2KO7tXRc5fa6+6zcGN3zlb4zOT7gTFppHdB+PfzII9p3x3t1fqLWMzEUncI9z7CAi4FnNvZwgcdEI+TBLVi9nIH+fpF5hHOC0r+tc5vmZuc1PTGufCGnuoZGNbdsM0AwvzCv06deNsfJ1vZuS6rnfNFoF/Pb5XMntTg3o9m5BbV09mj7rn2Kx6I6e+ZV0wp07zqoVBX1PVC+eWoMp/WdGB+1FP3burstgylAhVDJ0SFqqOy3BEmjI0Pm25RIxjU7PaGWtnY1tXaYBuR6hl5MFFlNTXihk7t271FVdWPg+5VPQAgQVl6j2+YOAEJXzbRq01d07s3TZlJAgwBIwNSAw1zwkBNiR9EYNnq5i4O5XGrU22Zh/gADLUc0HdNya7qzp8dK69bVk/nsFoY5AhByOasXgraCHO/Z9KypHbPZvJqatipLBEJUSsSrtUCRMSSOKpwqkxodvqL5+QW1d3apqjpldtWZ6Rml59Ne6tjFRUsxXldT46lSEylV19abzxQZDq087gZcEKu4stpWs6BaTeri6VcMILz55hld6ffqFwCGHYMmqQ7A4OMf/7iFkwbTGzuwvNphVWLoDhi4pFzub3d2aL9SsqJy97o94piiuyd4r/G4gLkqOLbgvnOMvtQ5091fOif3dzADaVmw4Pt8uLUL9hls07VTOnY3x0o0h/vNdh/I6GiflUSg4Heye+9eVbft1anhhBayfj4ZMyFUAAhLUBJOhVktLMzozOmT2tbepUguq5GrF7Vj124NX5uwonqJRETXRoe0Y/chVVXVa2RkWG+88qz27NunbT37LWeOgRrf14aUyIsLs4rkc5qanFRdU6vq6rdocX5Orzz/tOrqUtp//D47X76Dkkn1NudcToNXL1mI8f4jx1TT0GxjutZ/URfPvKJj9zykhi2tOn/urBYzWXV1d+nKpQuqqduirp3Ol8wre21OlQWKsA3otZdf1N333KOGps41nccQIKyWQtwG97laDMe6U1aGmiyOZCPD7wAfBCq3UXQF2ywqWJwT//Zv/9aY1HKH9TaY+qYbonNMLEeEi4STI2zqU88umc5F9cYV8iCY9XHDVOIescWMSTSDGVyVV86Tr7yMyEacLKuA1QrwsiPiYGhScD5tBKyALZVMiZbVz0utbCpZm2zOAEcBO7BJMRYz7BHqNdg8l3uRmDbwQdjbFtORHUnFCzlNjo+ZTw3aspMnT9lexx+BwkLMhSidv//7v7e8E0EVdtnS2yWdA6gxzQGg8aYPPs93rA0aCs4SwAQVbrBd3i1AxIGFoFTtPi8tZ8y9DlCUS3NcTnp3gGgJKKGku89gaSdYBTEoJATBA8+70uQ8U6oBKQUawXaCwMZ97ubIc+X6d3UbgsDE9RkEJkEwVLo/CCPsG8v6tRi8pPeeD8JSgGCRQp794XoTRBtwFvIZTU1OqTqe1OTYiOamx9SxrUO9Fy+rs3uX6qqjOvnGy9q5/7hiiRrNTE/q0vnXLbnZ1m4AglfaHYDAuLOZjMU5TE2MW4r9usYWC0OcmRzXwMVTSsYL2olDcDWlmX0vQj/EngM1MYp/zxnt3H/YHH7RLEwPX9bpV36nQ3e+Sw3NW61t5o6J8Oql82psaVdLxw4fFHhtelQEbeCYXn7pOR07dlx1TduKZojVEM3bByAsSm/0zal3LKJMJOE5YtyicMHVLNxmvKdcNUcOKdnI8OYGHEBA8UngJ2F3f/mXf6kjR44Up1Oq/rODWpI0ZSXV53rW5la0WUoIVxrXcoRoo8YXlCZRHRphocCPClrMR/TGlbTODEdNNV/pWqstnXcIszAPbPOy9uolmBuUZSJ03s1+3QVS8JJS2QcpxGb7DxVTe7kt4W0PWspaJEHePMm9PCF5gAREakMS1nge5IkoTooRndhZpaSfFwcin15Ia2x8XIODA+aPwP7GUREHxr/+67+2MRLdAEPH9wNwTNntUgkZBkkkBM/hyPvDH/5QDz/8sJUc5l6AAqa58+fPW5sAD+6nhDJ1DXieZD7cg88PEUO0Q7pq+mxubjbgfvbsWQMV+AFh5gNc0B7ABjAPKCExEBefA0gou+zKNlv6a/87+gQkMV9KLtMH9yIcMDbmSVv85OJ+SnKPT0xYTg7u54JOUCKd3B1Us+QZaARtMVYSFGGODF6sE/cTkkiVR0ISGS9CCHSGuTI3zDxkD6W6I/cyBr7nb9rmvfCPMttUf3SAI0CYipFAwf4JITQnRao55nxNVQWA4EwLnjnA8/73PP89TDE3Oa6p8TE1kJegKqrTp8942UVT0huvvaju3YeVLUQtu+ilc69qa3untm4/VMyKawDKbzm9MKfxsVHV1tSoprZRE5OTyqTnNDHYq0J2QbuO3msZeU27AqAmFJJ/MXxrBnT5win17DusmhZvLWavDejUS8/o4J0Pqn5Lm+c3kctqbHRYhcy8mrZ2KFHTaHl87PyhkfDTI89OjerlF5/XseMnVNfctS4NAqtFquWOd2IthpUYx+3yfWmYY5BB8jtggcPoQsEgCGgPIBLuQC5hhEFg4P9eqs50RKroyFsSzlf8vkIypqBUVkoUSqXvYLiga9ee8T2fjdlauNt17kr7weI4pW0G5+3WK6gSLVUDlzKU0r0RXL9yfS2530nfvm3UAEJ/WmeGihUGym699ZQGN8ewIqD2iYi3iJ60D2mzlN+eVsBVbPRdvP1xeJTVLa/3PpxN11vzor+Bw5UbCOKtmqNuBAjBRcJ/AnMI5gYYGwwXRvf0008bs4KhwxBhymTjK91/jtnzLG089dRTuuuuu4xhIwUDFAACfM6+eve7321M9Gc/+5n1A7MksQ8RQmgyYNowQ5g1DPahhx6yrJqMC7BBf+95z3vsfhgn3/34xz/Wfffdp09+8pM2NUAl4P4nP/mJ9YnJBM2IOwM4Zn7/+9830PGFL3zBxgHzBTTAgNGCIAQAdJgvzPuZZ54xEyTjv/POO+1zhAgHEHj2xIkTNt/fPPWUgYkPfehDxXBRt7cBXb/4xS8MUDlTDuNl7owBQMPvgDJ8bl566SUzefI3awxooHQ2a0ofzJv7VntlC4EoBh8gEKXgWHVFMG25R/z/FfKam57S/NSkqpMpy2yKf8LFC+fU0tppjrgXL5xXW/dOZQt5VaWiOnfyBbVt7dS2XSc8HwKrrYL5DS0CAGlM10auaRtVUxNVGh0dUT6X1tCVC8ouLujgHfcpQeGmXFbxZJ35MZAIiSM4OTaovrOva9fBY6pu3mYHbmZ0UGdeelaH73pAtWgksjnzQ+DE1dZWKVVVo2g8rkw6o2SqGjufaTFikZzmpsb1yosv6AgahOaONQMED1AVzP+nozGm4ztSaqlaq5iy9I2yf9i3X/nKVxT5xje+UfjMZz7jFS1a8/XW1GJY87A24QOVAEI5JuZqFED0+J1Di7Tj6rdDQJEG3OXUmBBZqhPyHOlP+RsiwQURRVKA8DqJLVhwxRFjJCwypDmJCaIH0UaC4IKoQKggIEgljIW9AxGCsCIJOUnGESrADgSSZ6xC3e7dymSzeuONN0yCAzggyRDuBnF1Y4F4Mm9ncqE/+sccw9gh/kh+EDIIK5IijIPxQIiRAN24XaU8CCOfsT48T/tItFzMEymvKL0Ww5GWJkry8v6Vv9YDEG7YAzd4kpOF7vpdrgKkl/NrGXVGmSEWNbkbpDko7kEDCBntbo4u0SBUWifsuXiRs2/I7Y9U/+ijj5o0X2picPsIAA3h4h3z84knntAHPvABc9Bkz9AGZwVmzb3uXZL5j33NPewVQAUAwKvcl7NsmuwDmD6/E1qMXwQaCvbJ/fffX2yX+wDu0Ex3wbwBOWgu/viP/9gYNxdzg+lSTpzrwx/+sDF2wlPpl5+MlXGRD4KfjBstxVO//rXZpQEtDkjTHmf65z//uZ1RzgvnnX2PvxLz5XLnBy3J73//ezuvf/RHf2TngbPmNAWcA77nPD344IMGgJgL55d38MADD+j0qVPa0dNjYwJc8dlqLwCCy4OAic626xoAAgwWp92Tb7yuzNyMqpJx1VbVqLunR2Nj45qdmTXVVSpVrZbOLkUTUWUW5/TKc0+ZBqFr1zH19l20DI892/colSJSIKfx8VENDAxpZ89e1dRUW0hxNjuvM6+/qIX5WR256wFNTk3q2tBV7dl/XHX1TZZPAYA7dLVPF868pn1HT6i5c6f1P3Llok699KyO3n2/Wju7NTQwqL4L51RXV20whxoVaPAuX7qk7p171dDSbk6XOCKPDPYbQMDE0N69q2gSWc0aW0imp5MwgNDeGNOJECCsZuk23z1rAQhO0oUNkVP8V7/6lR1qmCjMlhrxEDl3OW98GCo50iGUEAyKEHE/0hEEFYAAsaMd2kRK4TuIBgwUMAGRef/7328OlBBLNBiPPfaYSRVIUY4guVA1JB+YOlIPMe4f+chHTCIKSvMQtddff92IG17tR48eNcZOH0hpSHZ8/qlPflIHDh4sErEXXnjBngFE0B9RBRwIgAXrwTMAn0cfeUSDQ0P6v//3/xoRY6yoQyGIriIewAACyMWcIPIABJgMwMWljGX+PA8DQ3IozaRoJoZbDBAYY9CLvVQz4mkQXFLQdQAEf+PcnJyx9IyZk2Ikoz3NUR0PmBhuAD9+WJw3/oLtTyRsQBr7Ey0CTNll6HP3eeFrc8bU+QcY/epXv2pMl73k1oh9ArNmXwEckJDZL7TL+3bv3qn02XswafYJ+5I9QpuAxf/6r/+yn0jOL774okn9MGlU/J/+9KeLzBhmz16mX55l3zE3ziPaDBguWgbaQSPg5sTYACFoKAA6TiPGWf3Rj35k4NsBBNaJM8SZgHm/593vthBozizjf+hd77KzawzD1wiyToCD3/zmN6ZhAFS4vvkJ0OKMA7oBRc8//7ytMRdzgsbwPPMB4LOGbxlAIMkWUQzZRfVfvqT07LSUy6ihvlbbunYrm4toYvya8rmCGre0KFFTp0gsosX0nK5eOqfaujo1tnZpYOCy5Sjo2LrdogoiUU9TS72TxoZmq9qK8w4lnkeu9llIZVvXLk1PTWh64prau4kuaLAoB0wHE2PDloukaWunaptaKcOq6fERjQ5cMnCwpbnN9iaRSPiaQSoQbKKxqIaHhtWytVvVja1mIMQ8ODE6qsGBfgOk+CpEfafK1XCwECCsZpVuk3tWCxCCBZn4/c2zZ01FCvFC+oYRs+E+/NhjSzIAsgxsTIga3uEQFggHNkMIE8/BCFE18j2qUggO0g7EEeaPJIFU8vjjjxtx++lPf2qfIy3BiCG63/72t41oIqEDQBgT7UNI6A+AABEJeklDVCFGEDmkKZ5/3/veZ/3yHYQJZg8Roz0IHP0yH4ghxPU73/mOSWdIgrQDCEI6A5R87GMfM8nnBz/4gT7xiU8Y6IHBBLUHVJ+DaN97770GAGAWEMZvfOMbNh5UyXzmJNilfg2+D0L/gpkYlksutBEaBCPiJfs6yMyXFHi54c41Hoi14YuKjdNMwhIlARBSRR+E5QAC3/Ge0QbBLHnP7FGYJfsrWPUQaRspFqDHnuFengEI8t7YJ/xDQ4Akz16F6fE3zB1my34CzPI5+wOtE3sPxs/7Zw+hbfjoRz9qIODJJ5805g4D5z5nHqCfz372s0VHQebBPnQAgTPFHqUt+gB8wqTZe4B79jcgAOmd79/73vcag3AXoBjggKbtoYcfto/Zq8yZMwsocEICY+ecvssBhIBGCYDAmjGuxz/8YdMEOIAAEHj11VcNmAEEAEy//vWvDSCw7s7EwPthrVh/hAE0IKu9bkaDYF4Iflp8c6jMeX/jBxCPJQyikwPBizCIW0SOZ2Ijt0Daq6AbT1oVU+6NReO+z6GXEhFgEYmgNffKoRcKWctxYPkXqBacxweC9ORoHQgX9t2B8hlrXzDymJ+3wKoEL5r0HzVnYc+5MsLnkYjtS8wqjDcaTZhDsfOHwIxBbhMTZFxa5lUusAMI3B43DUI01CCscu023W2rBgiBkXMgUJmiUnR2USQkmH8550VUikhjHHZUhjBMGC5SC8QI5Iw2AKJHm0hWMH4IAocQUABAQAqCCCNdABo+9alPGQGDif/7v/+7EQoAC1IOhIv7afub3/ymgYMgQKBtiAwAgv4gfmgxIDQwcLQDjAUmzZidg5edR1TA+bwRRe5BBexUxRA/xgeBBFhA3P+/b37TpCpCFA/5pgLagVn84z/+o0mUzvELxsLYvvvd7xqxtgqOO3YUndhMjR/wzVjMSyetmmPEnKEqXRsFEJbbwEWAcJO7fD0mikpdrhYgBJ9nfztvet4n6nuYMvsHhgfRdOYzl3mU/cI+hemjOYDhczZgyjAy2mCv8zv7gn2FHZ7y7l3d3WZDZy+zX19+6SVjtsdPnLC2kJJhkoBXgAVgm/3iTGQABIAA4BSTwDa0bzHP+Y69bYz48cdN4mYcnA+0dZgzXn75Zd177z360Iceszk999xzNm7Gg2QfjCRgP2J2QaPCOnCxTqwB+xzwwLwxycDIAQgPP/SQDh46tLRYUi5nWkKAPGeU/c0FCOBMofVgTmjTaBcQDb0BYDMe3gNgmvFyhjibztlxNVvv5gCCz5F9AEx2Q0+Z7mIdAnmV3a1LVGLOhnbd19/zj/RDgww2BB8ga6L3N5lNXX0es/EvSYHseQyZb5Bf9ddbC8+Z2J63/1rFIH+ZSvsqPlGMaPA+WZtObylAWLxdTAzkd/dCrdY23dVsudvrnuvCmVcw5HBHREe7EkrEVl8gB4KItA9B5NBCsGDYMEp3OWm3FCBQlhUVKoQBgglThknSJgQC5sqhNw/fSMQIIfdyHyDC2VUdQEDS+9rXvmYgA4Dy4x/9SJNTU6Y1gHj9x3/8h2kTHrj/frO5uXYBCEh+EFcAB/cgTQEQLpw/r988/bQRIwiiC6WyI5bPGyhBg4JE98gjjxR9KJB8UN/C2JGmFubn9cqrrxoAoS/mgJMX84Po/cM//IONmXZ4ljEgObEGzMs5vmGaYW2vj8N7izgpnuxP+wDh1vogrLTLNyNAYMxxNAhNUR3fVVmDEJybYzy8A0w6vIeTp07Z/mKf8g5KiwGxx5HmYZgwTxgX+5T7eZ9IukjrAGm0AuwFtFYAWZg6Z4iCO6fPnDEJH6ALk0SrxgWzhaHDJNmv7FMu9hWggnPI95///OftjAAA2KcwYZg+2gBn6wd8MB7GzHOAAcaMmQBAwR5lr8GEaZMxs1/Zn4AA5sQz+A1xNmmH9pD8GTf7mXYwF3IGMM1AH0x6jkZtzvTFuBAqONvsf/NxeOopAya0AYjijCJQAFoQKhgHAAsgwvwAZWhm6Nc5Ya60TysDBBfoWKGFQLrlJUzWB+bOjybIfsu3BBP3E3Tl/SyGftvlSrZbmmci8Kj3YI37qZdLY/Ls+Lt6EF4+EQ8jODdg53ZcTJvo/VIyYO+uAKhYo1/QbQAQPDviTEZ6vXdWfeM5ZSOklIz6sdsrbaG39/duw5GPEy/Ywx1RHfGLNa3kce/tt4IdSgACEg4HFxspKksYWamXN4wfDQLEDoaLBMRBR4NgqYNbW4tEDiIEUYA4QKAhdC5rI4QDNSxEjf5R20MUYKJf//rXrW0IBcSUMaAShhgBECCoD2JiQGVmoNjF7xdMK8GYAAZINBB/tABILxDW5qYmH1x6hwZww3whnBBWxsDvFPt55ne/M0mQ/iB6DiShssWvgL4wjTBviPs//dM/GeNhHb/3ve+ZFIjjFuppiCke7UhtEFrarAgQhuRpEMphhDUe8HXv/o1E3htpYhDFmqTju66HOS43R94Z7x6JHxAH84YpYkuHUbF3ecdOuuadwvx//+yzpilCa8B+gEkCFDA1YVKD+bG3YfIABNqBsdI2pi6YKMwbCZozwT6EefLe2e8wYIj97j17ir4qjBXJG7MWe4N7aYNn2fucUc4f54lzCkOmH5grGgEcCQHA7FU0CzzLvYwNgMKZYw4tzc16+re/NXDC3uQeJHxs5S+/8koxpJEzzXg4P5xLQARr5XyTUGsDaFgL9j9aRebKc8yRsw2d4BwAaADajg44R0nWz/lq8H6YC+eQ+a3m8gBCxoo13eikuEJhoiUgwQhJUUIvOtquZhB+LQRX/hdzgpdfpMwh8osrudBfF0FU/t4AQLBYTFdmInigHEEIgAN/Kh7E8Mbh4w2bzVqO9m0BELxqjgW90Tuj3omscgIgxMxuU+6qRI/WsjCr2hdvwU0V5+J/UYj6qqh8XolIQUc6YzrYmbBqjqsFCKg9se1DXDiYECiICWp+pCgkD2fvh6Fiq4fRIz0jWSCh8LvHq73KkUjlSBUQNIAARBcJxTn10RemByQzJH4kd76DmCBlcEFQITTci1kC6Q//BKQiiBCEzTldQZzpi/HC8CE8AAI+hykDeHjG2TohxhAp5o3UBIGkf+aPHRaNAoSVfhknn0OEIZjMgz74jD4AI6wP6wLBpm8kR5gFWgQABf1BZGEMEED6u/5+UBVGrmsQhqScVZErf92O+3gjjoqZGCzMUTqxq1oJw1DXFcKV+mA/sjd43zA1mBZgFTDgNAjuWe7h3QHmAH7sAWfCgrmy52CSMGPAA+pwLu7lGRxs6QNTFozPOeRxD3ub+1xlVfYqzJzP3V7gM57hHeMEx/6lfwcC3DjZc4zFaRdok3vZ39zPnmYu7kzW19WpprbWQA1AgJwRaMTQwnE/Y2XczlmX880/gAk5EyzqifVPJOxeB5adScKZaWiDOTmfIHcf4+I5F3LM2DAJAtLc3Pnp8kLcUBa9wsstAoRLWaWzXgbBsomSKm2OUntdIKnXDefPHbwKB/P6ufT25FrOb/Be2vEAigMIvsPwGpm7AwhFRLAO4SKY4yxW2IQmBhYKgDBnAGFSfSRKwgkDH02rzX0juVwW/a1jkTaCuK2njWXn4eXY8SuDFSytZyruAYQDBhBWZ2JwEhagABUfqtH6hgZjwo6ZQhCd3R4JAIaLxPXumtGSOQAAIABJREFUhx9W36VLRjCPHztWPBAcfiQuk5IkY5hOZQtRhYgAQCCMEFqIGUwYoAGYAIRgT6UdJHoYO88AJiDAECDr8/hxG4ezMWMLdc6FtIOk55yuUHPSN8SQzyBsEDG0IawBkg/SFL4LzBGpyYVTOqmJ9YGo8Rxr40LZIKrMke8ZH9/TFpoCfrIOACYu5sl8libpKQcQytsU17OP3i7PAIWTkUVPg7CzbtUAwc6Jn1XQAUrHOEtBtItkgJGa45ezGftOrTBhxxTZF0jVLusg3yG105fb36Xtu3BK907ceILjKkYYlckd4ubixu8cjoPP8x1jDGZC5O9K2RTNMa+k9oE97/vIlI4x6Fwb1DC6uZUTTMqtA+CDdQ4+5xx4i/NbYfNuKEBYQW2wsrlhg09aoCrlelsuBR5rbWfzaxD8GtnpXEHnB+d1diiv+XxcOT+t5Y0T9pQ2nnmnPIa7XSSwyprZiCJ5H1X6SSwi+YxqUhEd357SrpbVm184nBADmLGTwCF6SFkwOiQTGLkjLtwH6seTl0I+PAva5x5HvPieiAbaQcqGOaIlgOCijaBPJG2kegiHqy7Jd0hF9OUkIMYBk4WQIMFDVByxcxng6JdnpqYmlclkrd8GkuBEozYv5kHbSFtcQamOsdK2a4Px8jdqaebO+JgbfdE3a8T4ka7oYzGTsc9dKl7ao0/GjdRmzGRy0oAL/QNuXH6J60TTe9MZS5S0oDM4KeZXB/DWeuBv5/sLyik7P67q9IDefec+tbfUmZxWTkgox6SCjG05Zlb6XfC50vVz35W2HWSqwWfK3V/6/WqZY7l3GQQgpczb+esUn7MkWd4VXK+1rE2lsZcDQmsZ72rXAOu/mRjIpJhZJtVypY1fZMLW4yY8HitryG7loEujGDqIYuhJqTl1c2vF/tiYREk+t88VCro2U9DZoYyuzWJvKl8y1JiUnxvuhoW7jbQHbuyV0tib1yv58QlxiRSUShTU1pTU/s64mpKk2fzDXTBYGCmMEKZYKik4Zgzjd8BjNeaQP9yM3oqeC0pnpTMDizo1VPAAQgUJ8q0YzWbsI19Y1HD/mzr1zA/UUR/VPXcc1dEjh9W+tV01ARC7HEPfjPMKx7T+FcipoEvjOb18Oa+5RXyRLJ+477m/gg/C+rt9xzxZChC2NUV1bPsmAghFfUBBSucjGp3P69rUomYXcvKquy5FMma/qaSdfVsBBM9Ll8mmEhHVV8fU3BjXlqqIyEd4c/huY/Z/OWnGAFxA3btaSWFjRrSZWyloIZNX37j0en9WC5Q/+IPCvM22VlatQpnZIY1deFFDva9rdmJUWxobdeTwER0/dlzbu7vNzh40DWy2WYTj2dgVyBXyGpyRXr2a1/hUzqth4hM/xKTNQAc3dsZvbWvXtdgFJWM59bTFdaAzri3xm1vZDdMgOIDAcEg/mylElMkXlEGD4K/VkqEGnTlL5nBzU3prX0xRg1CmW8M/LtQW9TrhX9GI2WRJ1/mH1B6UDrecujIIEELNwfU3TeGZifmIzlyd09BUXmkqIxarJfq7t6Ln1B9mf958r9cn5CWl8QtFOUJvEqEX0pyIpNVcm1P3lphyc6M6c/I1vf7aa7p4sU/1dfXmJY9/Bx77mJlKbe6hZuHm39ZmawH+MJWRzo3kdWV4TvOLRACxXwAHIUC4mfdVdMnIFxSP5tVUG9XuzqS6GmOqsnDN9XPUDQMIwQmatSFQB919VzrMyrb7m1muzf/s+l/X5p/b23+EXrVFCjxOzqbVOxnT+IKUzXjlgl2ClCU6s6DHtSsbW26hljsQlTbNWlywV0KzN4zJtxsWI7Q8oyB573Egxa8jlUyaYyz/qqqrzZ+jtT6izsaoWhvilkUxm0lbcqJTp8/omWeeNQdSTFqEx+JsSmZDfD5cKuwQjL79ThH7hrTkE+mCBscyGp3JazZbUCEfUdT301o6awe0S0ISSqIEb36l1nPobr7XjWvBWx/+S63ZhmqpoymurQ1RVSfw+0F9j2i6Pq5zSwACA17OgWbjFidsKVyBt3oFSMXqlWXmms+TOElCqParQhcHtDSc6vo4K/mrWEK2MtOp5LS9XKbGyj4xlddrVc9EIpqentUzv/WqGRJX39LSbM6hOMO2traoeUuDmhvq1FRfpYa6lLa2taipudkyYQ6PjFs+AqJf+Injq0vSg2ahrbXVC9f1sxK+1W837O/WrICVbPZDChdzBS1m0SBwZlwJ85X6DSrR/XvXx/NW6uj2+L6EKBhAKKChLqgqEVHCy1F40wsVAoTbYzuEo9yEK2AKAy//k11LZBFj9jdKJytEaPlZ25ZOtiKg8E1Y5ZZmo0CIJ50snQdMfeCqV9b4v558UiPDw+ZdbzUQEgklktWqqalVfU212lqa9L5HH9HD731YtUSsUK0+4+U76Ovt1Wuvv16sl+AqaBLqSm4NIlButTah1Ivf5nsTKtlNuE03zZC8IGH/srPj7avrmXZX5vjFyLcNmdVyrVVykNuQjje8Ec+c7Wsw+RnNW/rnJdkZ19HrLQMI6xhL+Ei4Arf1CgTZqMdUg943lfQJ16e8ViuCx7zLXxtlefD68FPUBrrK5fK6dm1Ev/jlLyzxlCvFbTblCMrOuPnYUN72f//5/9Yj739U1TVV8jLTWSUd0ygQVko+C7IFkmuDLH0AA/Jj4KdAEiuiaG4F04b4EepKXgT6cOG1t6Kv23pj34rBF61xsLDy56RSt+9U03S59VhKVZxDkEd7yEHkKMTK0KsCHdmwMMdbsYnCNsMVuI1WYClAqDzwtTLv9VhJ19oHoy3/jCPgZbQhBVlOC7JZfvc/v6vz584rvZg2pzOueDSh++97QP/n//0/2ntwnxe14AOEoAnSMWoSb5HACvMD+TjI20EiMFIZ49CI6aFcEqH1bBFCekkxTn8ABPJ9AEjIuBgChPWs6BqfWequsyYL+cYChPWclDXO9S253QMFrjJkCBDekkUPOwlXYPUr8PYGCOXlF5g7Sad+/etf6Xvfe0KnT59SNpsxgp9KUNdgpx5698O694F7tGvPLjU1NCteps69i1wgORZAgdTdaBRIiwwocDVBSNrlCgit/s0svRMTCWnLSSuOWYPMnfRLRk/a3ygQst7xvVOeW+15KV2PjQcI5Vq8vUwMDt57moJQg/BOOUPhPMMV2LQrYDZkczTLa3JqUr975hl95zvfNXMBhOrAwQM6cOCg1baAKe/Zu0d333W3hTm6qAXKeLtqn0ba/IyhLksmjoyuHDGSPsyc1N3UyCCFMmaBtUj8zqaKWYSU22gnaIsU3gCDYL2FTbvw4cDCFVhxBZy5YcUbl70h9EG4ufULnw5X4B27AqUOfhRJopbHt771LQMFlEGmSBZ1Dyg1TNVAwASliCmORZgj/gauiJZbSNcuP0mjjZ8CzByNAuYHIieoqUGNDf7xe5CxV8qjwOcAFeqPfPOb37Tyxpg9AB5Uf3TlkdcCON6xLz+c+DtiBUKA8I54zeEkwxXY+BUoFwEAswUMkOvg0UcfNdMA9wEecGSkcigaAXwA+I5qigAGmPNy2gCABUABsMHzgA2AAiYCc2i84w51dHYWEy9VqvFAvQ/KHtPGl770JQMeFAL71Kc+pcOHDnnaCD+KgT75B4gIr3AF3okrEAKEd+JbD+ccrsAGrUAlkIBNnyyJaAfcZaaIyUlzQEQbcOrUKSvQhQYAbcKJ48fV0tpqtUGMURcKZn4Iahboj7YBB2gCcDK8evWqJWrCfwCnRhIvARxcKudgMST6+/3vf2/9f+ADH7Cx0M6f/MmfGGBxZg40DbTLeNE0uOuGQkobtI5hM+EKbMYVCAHCZnwr4ZjCFbgNV6AcWCidBgwW/4KZmRnTBsCc8VmgYhxMnUgCfAzwNUCjECxvHGyLvmD2zqERoIC/Ap9v377dtAoHDuzX1q3t1zUTmCxyOTN/UJIcbQdAgJwLaDEo8Q2gYYx897vf/c4cMDE/OBDSvnWrgZZK47oNX1s45HAFKq5ACBDCzRGuQLgCG7ICqwEIdORKLOdzOc3Nz1uZcRg8kj3MmygFnAfvvvtuCzt0+QluABu+vzZMfmpqykwYL730kmkHYOy7du3SAw88YFoFQIPzTXBVTEn/nEgmDRRgsnD3wfzRHPzqV78yAAF4+O///m/TcuBTATDBoRENSeivsCFbJ2xkk65ACBA26YsJhxWuwO22AmsFCEHTAWYD6jsAFF599VVLnkSkA9oEgAJSPo6IXEHpPcigYeYw9kuXLhlIQDMxPj5umgGYP9EKzqExWPcBbQbggu/QYtD+6LVr+vn//I9pOjBV4KuAdoNxAEKqUinde999BjwwnYTl0G+33RqOdzUrEAKE1axSeE+4AuEK3NIVcOGNqPYBCmfOnNGrr7yiwaEhAwaHDh2yiAVMD42NjR5D9uthBKvVucgHAAdmgdOnTxvoIEMj2RIJsQR0kKHR+Ui4vp1/AQCh/8oV/ef3vmemBjQHmDJI1DQ3O6tMNmufv/vd71ZTU5OZR/bu3WvtOw2JW6xQw3BLt03Y+C1egRAg3OIFDpsPVyBcgZVXIJhZkdBG1PgTExOW0IjQRqIiMAUcPnxY99xzj2VWhCFHI16i3nKMmHZIpYxDI+0AFEjAxL379u0zPwXaa2xoMFNDkKmjQfjN009bGCbOixSmIhIDoLJ161bznQBsAGQAD1/84hdtPIyb/AwhQFj5nYd3bP4VCAHC5n9H4QjDFXjbr0AQIAQni9kAoIAm4Le//a2FJwIUMBcQRomfgavVUEladxoCzA8wdJwPAR1cMPn3vOc9HlBobDTwwD/6RVtAVUkAwDe+8Q0zQTz++ONm/mAs9Av4wEeCiAhXxhq/B0wVwfFUys3wtn+x4QRv6xUIAcJt/frCwYcr8DZZAcwFy1RRRBuA4yFMGGdGNAHxWMzTBNx5p2kUYPClSZeCq4OvAO3g0OhKTgM8MEfgW4CfAoABIJAigsIvOc33+CBgksCk8Mwzz+jnP/+5gQo0DACIhoYG01bwk34ee+wxc4rEFELYJldobnib7NV30DRCgPAOetnhVMMVuF1XwGkBkOwBCjB41Pznzp7VQjptvgk4EWICIG0yeRFKL9pwmgqYOECBUEtMDwAPHBqR/IlawO8A0AAowCeB+2HwAAy0EPwDIGC6wGkRTQb5EhgXSaDe9a53mbMlvg5oO1zCpVKQUElzcru+p3Dcb68VCAHC2+t9hrMJV+BttwJBxu5CJAlVJLNi78WLetWPfEDSJywSHwX8C/AVCBZeciCDBXKREAAOHA6DDo1EQeAYCQDAMRLAAFDgog0AAP8YC/kUXNZIskH+5Cc/MS0GZgfMGI888oiNBbMEYIHIDHc5s0Np9EeoaXjbbeHbdkIhQLhtX1048HAF3nkrUCpxw+AJRYTBUweCfAao/MmqSL0HzAYAhdKMjo4Ju4yNODrC9PEpOHP6tJ57/nnTEgAkaAPQgfnBRVA40ILWAdMCuRuIlKAOBd8BKPhJdAOOi4AQwAIaCsCNMz+UqxwZAoR33r7erDMOAcJmfTPhuMIVCFdgVSsQDG1EUsdkQB4EnBth3Kj4keKDRZ3KqfaddgKgQOgi5gPMBGgIACKYEWgHoACjJ+zRtAB+wib8FL761a8aIME3gtwKPMd9aCLImYAJgvFhciDagZBLTCJBUBAChFW99vCmt2AFQoDwFixy2EW4AuEKrG8FYKQwbKR0GK3TBDhm7lp1PgL8JBwRLQKJkmDG5FXAmRDmjjYARh90HCznF0A7LuMijJ/oCQAD/g+uQBTAA6bv2sLEce7cOYtuQGNAESiSLFkxqTvvNB8HPsNfgn+YSHgeswPz4icaCzc32uAZHB+DkRpBk0QIJta3r8KnVrcCIUBY3TqFd4UrEK7AH2AFXNEkQhNxPETiRhPgaiYwpHJggc8BFqRupigUFSYvXryg+voGY9j333+/+QTQZjAzozMduDbd3y7TI6CDtgANAAXGQ0VKBxRcBUgACuAEEwLPolFwZa+//OUvGxhwORoImcT5kXwL+DswP9pBc4EGg7BJvnMhmAaGmHegkNUf4NWEXb4DViAECO+AlxxOMVyB23UFIFBI2k41j48Adn2yGAZrIQSlauf8FzQZIPkT9QDQgPHiS0AKZ2o+EK2AdqKcmr/UgRCmTu0IgAKlqzEj0BZAAZ8HF/ngzB6AFDQart4Dmoi/+Iu/MI0AjJ42qPmA2cL5KlAcCidHHB7J3fDxj3/c0kW7KIr5uTlVVVcXtSluvrfrOw7HvXlXIAQIm/fdhCMLVyBcAT9yAAkbkPA///M/prb/xCc+Yf4FjqmXMnLSMLsMi0jbeb/6I0CB3Af4KBCtgISP1I5WgTLRqPODDo3BFxDsA/U/WgJMCkQr9PX12a20BVjASRItAdEQLvESuRt++tOfau+ePdp/4ID187Of/cwAxsMPP2zABW3CJz/5SdN+/Od//qdpE9B2uBTTl/r6TCNy4o47tG3btqIPxHI5JMJNFK7AelcgBAjrXbnwuXAFwhW45SvgQhNhxkj/SONI/qjsSxl50fHQdxoslayduQDfgonxcZ2m3sOrrxqT54Kp4ysAkydkESDCVS4MMdgWfgIulTNtoQkg3BIfBcACTov4KfA5GoeR4WE1t7RYHgbMFWSE5H7AD5EQH/7whw108A+fCcaLOQMNhat4SUZHxhhe4QrcyhUIAcKtXN2w7XAFwhW4qRXABwEnw1/+8pfGKJG0UeOXJkLiOxguqvtySZJKNQEFnBD9rIpoEgiRxARByCRAwaVfDqZMXi6Vsys5TVuYH1y4JeAADQAaCrQAgA60IYwXjQKRFoASfCWefPJJAwE8w3zxkQAMYZbgH2PCJAE4wu+hkqbjphY8fDhcgcAKhAAh3A7hCoQrsClXABs9qntSG8OAAQcw2QSSfUlaZhgt6ntMBjBkVPNcmBdK7y0NcXRZFZH+kehhxvga4OsAwyZhEkABv4Byl9NU8NMlXqIaJAmcAB5oBVy4pQt3xOfB5UMANKDJwPRBTQd+B2R8+tOftueYP58xd0wkpHFmPAANxgQgctqOTfkiw0HdtisQAoTb9tWFAw9X4O25Ao7h4pzozAowVmzuMMJSBs/fJEr6+te/bmr3j3zkI2bXJ2oAwABYQMUfjEzg99LoBRguJoze3l4DCdj60UrgIEiiJFIpw7Ar1VZw7ReLPfklp0m4BMNnPEj9QZ8HajtwPwAHUMK4mTPPkDYaHwbGwlhZD0AL60B7jJf7cXBE61EKEoLze3vulHBWt3oFQoBwq1c4bD9cgXAF1rUCOOrhe4CUDCOF2Tvbv8sXQMPch20exor9HiaKWQKVPReqeldh0bXhQgbLDcwBBUCHy6XgtAD4BGAu2LF9u5WIRvtQLhsi7TqNgsvQiJMlmgBMC2gPnAnBaSjcnCYnJnSxt9d8I/BbwGzC/YwB0wKaBrQG+DigYQHEYH4AyAAy0GIALBhXmCdhXVsvfMhfgRAghFshXIFwBTbtCgQdBGHGLjshEQfOBo+T4Ne+9jVjkDjvwWh//etfe97+J05YdADRCXwH44ShInk7TUC5ybt8Bg6kwNhR9dM//cCo+Uc2xEqmB9cubXG5JE60gekBcwZjoRIlZhG0FEQ+wNhh8mgzAAg8R0Eo+uF7IjA++MEPWm4E/CbwS6A4FPfhu8CY8WvgHwmiSjUJpRqYt+blW0yJRZYYePL/8buZgcJrQ1cg6sXw3HSbIUC46SUMGwhXIFyBW70CLq8AEj3SNIwflToMFOZJ+eXPfvazliURR0FqIrgkRk899ZSBhS996Utmw//FL35hzBW1POYH8ikEEy856d/Nib7pB60EQAGGjFMhfgB333WX7rzrLmvH5VIo1U4siaYoFJTN5QwYkGwJZ0YSKpHvoKO9XXfdfbeZMjAjuPacAybzxfzBM+973/vMmRHNCZ8xb8ACYwK0oKVgTtxHW1xBDcxbn9o5r0IholwhorlcXnPZgjJ5KZ8rKOJQg7/gRfeSSIn7iMtpXYH1WTOlPNFvuxKrXOszxaGuoZ+19uEA1KrnUkBbJcUiUiIZVVVcqopKUVvIiJdUa50HNAQI61y48LFwBcIVeGtXAGLlVOhI/0jZSOM//vGP1bRliz7xyU8aE0SKfuKJJ0ztjmMfjBMNAsWS0AJQrwGmyb2o7/ErIBMiP4Omi9LZIaGTFRGzB4ADsAAYoQ3MBGZ62LGjWNDJ+FWJM2UQdGDKoD3G8/prr+mNkyfNjIB2w/kpAGRon7EyNr5nDoAGAAR/Mxe0DQCOz3zmM3Y/a4LPAyYX1ioei6lt69Ziyubg3N4KM0S+kFe2ENHYbEGXr81rcqGghUW0KtSy8KRdj4ld5+gFn6td1ztcH3UF/lxxQ5ZjkCW45IZnN+KZt6IPQwf5ghLRiKpr4tpSG9P21qQaUrGbAgcOKFOX5Ctf+Yoi3/jGNwpssNAj9q0lfGFv4QqEK7D6FXAqe1TpMGk0AieOH9d73vteY5gkGEIrgDQN48RejxofRvib3/zGmCTfAzBg0iQ94l7U9gCJ5S6Xl8H5FWC+QIOBvwASOw6DZGdEoqfN5fwTnGYhT8nphQXTStAegAZ/BQABWg7aAzBQ1IkxM0d8D3BapA8X6UCWyc9//vOmjfjhD39oQAMTA5qP2poa7fbzPGBmKQcQSvNGrP6NrHxnTgVNpgs6O5BT/+ii0tlYUT1QKmF7Ka4C/y3VMCzTXTmGvJL0vNZnKjH95fpZax8BqLT0XZWbe0GKFgqKokWIRVWbKmh3e0K72uJKAVBvQoUQahBW3tvhHeEKhCuwiVagyFh9iX58bEyxeNzs86jfSTD0uc99ziTnhYV5ZbM5c+xD2wBjBwTQBswbgMDnqPUJHyxWaAxI/uUkbGfHB6xgtiDqAMnemUCw/7/3ve+1SAQXQQHDd8+V8wNwTo34VJw7e1a/f+45A0CMkXYeeughHT161Obp7mUOjIE543eBJoTxIPUBeEjgxPc8jw8DgIM5uis4t1vnm1AQAOHqZF6vXlrU1FxMeVGUSvK0BIUlOnAEYgca+H0JmHF/VOC4FRnxMly99Ksio19rH+W4ut/YmsZV4ZnlxhX116UQiSgZyairKaajXUk1JlnbUlvN6g9zCBBWv1bhneEKhCuwSVcAyZoLdT1aAyRuFxKJ/wAMHEmfy5kR+IkvACGG5BwgqsDSJ589q/qGBtMCIIWvFC4IEXUlotEk4EToGDMMmRDNYnZGP7KgLMPwQYnzt2BcFvnwyis6dfq0JXHaubNHJ07coWNHj6qltdXmiJmDOTJv7kcLASDA/wBfBEAL/hiAILQpgAJMG2ga+B3ABGhYaZ7rf/UeQLg8ntPLl3KaS+NCF1Eh4swLvpE8oErwfq0gky/FEzasir4BgS8rmiUq2BIqmhgqDKvUl2I141rWjLHGcQG2WNG4supsiup4d0LNyZwikdi6vRBCgLD+XR8+Ga5AuAKbZAWc9AtQQGJ2EQ4wQsIV0SzwO74CMG+YqrPdk+YYaRtJH4CBJE5Bpo9+9CM6dOjwqhhn0PQA6MBxEOdDgAkmDCR7ohQwQWASgLEvZ/t3/njOQRF/Amd+QEMAUyfMEdMJQILxMn6+4yIDI/MFuABaMKl86pOftNBMtAvPPvusmTTQKjB/EkJhjrgV/ggw76ykS+M5vXIpr/lF33wQzStiqvEAJ7TfPbX4UhB1/Z5yjLioWFgDUy0ycL+vJY+WQXDu++Bwi9u/DGhZouxYw7jKOjUGGisHdABbjIu1iUVy6tgS09HtCbWkgAzR0Elxk9CpcBjhCoQr8IdYAV8XbdbrQqFYIAnTAjZ9mLRjnFRJxNmRSAikbpgiDo14/yOl49OA5I2ZgugE7oHJImETXgmz9QTcyJJS0wZS/CJRABV8BLD/A07QKsCYcToEKGCCcEChSPthlmVKOLuQSxdJgUaA9tAW4E+BYyShl644FJoPEkY5XwbGgQaDvp1JBSdLTBb4JszMzhpwAXQAKOgP4BBMJuUA2Hq1DJmC1DeW1cuXc0pnPYW4aRCMsQa58XX9eiWAsGHby+8btTyBqAZNXKf2C0zXCxjkws7vwRan0N+wkdx0QzYyHyDElVH7lpiO7UiqJeWcP9fXRahBWN+6hU+FKxCuwCZdAQcQYIYwZSRpJHbCHVGrw/BRwWPrx4QAg4XxI0EjVX/nO98xW/373/9+ux9AQTs493E/5ZedX0HFapKBtYFBE2GAiYMxoGHAnEHuAsACSaBgvMtFULjmYN4wccYOk8fvAc0CGhNqNJCOGmYPiEH7gOMi60AfAAtMKPzjb6pG0qerDUH4JsCDz/B1AMQwX6fNKP70gdFaXn82L/WNZvTi5YwyhbhUgMnC1nyuVtJYkRevpZN13IsGIx+JKBcBAHj/PPSXNwCTj8QEgGCoMeVM46ECKvvNdTnowjvCxNDeGNWJHUk1V63korn8PEKAsLnecziacAXCFbjJFQg6MQZND2gFyBvgTA0wVZg+EjfSMxL6888/p6ef/q3+9E//VA319frN00+bSQITBIyZeg+f+tSnTEIHPCBp8/tyyZJc6mWnUYAJAxYAHWgRiFKAqROSaSGJfhXJ5ZaBeTkAgHYDLQXzA0AwH/weAAzBGhLM25kXeJ6U1GggGB9Jm0jehMmCMWAacaGWc7OzlrsBUOE0C5WiMyqNebMCBC9aIqK8DxCus1O0B55ug+/5r3lOLKv/v8mNexOPBwFCzAcId4QA4SZWNHw0XIFwBd6eK4CUB3EPqPyZKAwVpo49f2DgqtLpRdMewBSR6vnut7/9rX2Ggx8q/J/97Gfm4EeqZkILv/3tb1uuAS7ABs+gaTiwf78vefr9luRAYCwOrDi/CEwARB8g0QNQkNrvuvNOdW/fXvQHKBdlYAJuwKERYDNDDYm+PtMS8A+/BMwj+CkDfr32AAAgAElEQVTwDz8DwBD3onkADGCWYG6YJr7//e8bMCGSg7bRmvCT3A5oFgA3aD1M27Jrl+KJxJr8FTYjQPB4vR8y4TN+5xdZDPk0u0NEBcvXcKuuMiaWNXYVAoQ1Llh4e7gC4Qq8s1fAMeTSVXClmXHsgymSkRBVPZI9Tn5/9md/ZiYGHPlQ35NbAO9/zAOEHX75y182Zs/fFFL63Gc/qz179y7ppmxOAR+4cCOSPsx6eGjIEiTBhHFsrKmuNgfD++6/3zQBSPjl5nGDMyGVJPN587XA0ZK5AAJcxke0FK7kNNI/cwfcACIADiSWwizx2Ic+pInJSQMMaDfIvfD000+bNgHmOTg4ZO2gTcBnw0wQlaINAiuyWQFCHn8V8y/ISfgbRHz/iELe88EAH0TJ+MjfXvTFRly+ccVvyukoXMtr7yMECBvxVsI2whUIV+AdtQKlzNVVXGQRXDghNnekeCRvVOtIyTBBmCxOi2gM8CFAqoZpk98ACZ30zpgpPvaxjxmAcBcABG0FVwpnvzKOh65/xoDDJKp/wAagBA0Han78EzAVILnjHxEjj4LfyXJM2bWJg6QzZ6D9oA3aw7eAeQAMMBkAVjAxcC+MnzkzJtaAHBH4KKBZ4Pcf/OAH5uzIHDGJ4POwUnIphrwcQCgUXQSvRzbeeh8EbyWzBSm3uKCrly+otX2b6hq22OcWlZJd1MTYiCKRglqaWxWJpZQv4Jh6c06KN+oLQoDwjiJK4WTDFQhXYJOsgB9VwGgcOHAhia7aoVP/I9Hj/Ic6Hb8CGDaAAUYJg4VpYk5AqkZNT/VIIgEInQyq/GkDZospYf++ferZufO6j0LA/FE6HudTgNYCnwJMHDDxAwf264477rQqlTDjUh+FYN/B35kXGgUyL9Im82EeACIAAvPCT4G54l+BDwMaBy5AEvPFV4JoD+4jhTVzI2U10SFoKj70oQ8ZUFjpWg4g5H2AgMU/hnOgcWhMNS4i5ToDvR6050cZWDwkT/pSd1CbgfmAQlnmOGB6Ai+1AtoCi53wAFd2cVYv/O7X2rnngDq6d3gqA77PZnXp4puamZ7SwcOHlUiizfFDMG1fRRSJUn6cohJ5LwLFLBZE0dgkfA8Gkln5eR18v4bgepmng2kwvDF6l4MRmKa8v01/EfXmyji8OXtRCks1CItqb4zpjh2p0ElxpY0Zfh+uQLgC4QqUrsASE0AARDjwwP1EAGBSQLqHMeOrgDmCe8iVAPOlQmSpBA1jReMAU0Yb8IEPfMDs/UjdhBWS9bGUqTtNRzBKAYBALgWcJAEve0mVfNddFoEBSAlmZlwu/NDMGWgpxsYs/wO+DzB4NAXkZwAA4IuAScGNAxDCHJg7wARg8Ktf/cr8JOifUFCAFAABgLHSVRYg+Ovu/P7mZiY0M3FNUZJJEb0fS6qQy6mQTUvRnKKxuPKKKxaJKp/NqJDLKBZPKhJLqqquUVXVNfac51yYN6abyy5odmZK2UxWqeoGJRNJTYxeVb4QVSRerWQ8pvrauF74/a/U2Nqhlq3blExWq6Gh2frp73tTY6OjOnjkuJKpai0uLmhuelzpdEZVtfWqaWhRNpPW7MSYopGoFtOLisajqqmtVja7oPm5WeXzCbW0dChVXV0EJYZrDL/kND05oWxmUclUUrV19TbP6ckx6wtNUqqqxv5Oz0wadokmkqprbFF1bSMluK4DBMMuBcUKGXU0xnQiBAgrbcvw+3AFwhUIV2CFFQgAhKCmgRoJC+m0aQIwIaBqx1cBSRuJm9wJqOydJoJnYcZoArgXgPDkk0/qI48/rpraWvMzAGDwTLBOQ2k+BTda5yuBah9nRswPMHUYNH27cs7cv1J+AqcloU3mA3ChTeengBYAR0wSJuGXwJyYB8/xO0AFkwVmD8JEMbeQmZEy1UHzSqWVLgcQbExOVi4UNDU+pCsXThnTjERjamreqkQsrvHRYS1m5izJU219k2KxpGYmJzQ/Pa5UVbVqG5vV3L5DtQ1bPC2RSdg5RZXV8ECfFhcWlI/EtbiYU1tzsy71npbiVWpt36Hxoavq3tas119/QTWNbWpp7dD87LS6tu9TQ0OTrva9qWujozpw+JgSySqNDF3VwuyYUskqzaUzau3YrqGBfhE5UFVdb2vU1tqkTCYt/Buqamo1dm1SPTv3qKGp2TQEJvkTNaGCtTc2Nm7gYTGdVte2TjNtXBsdMfPU7MyM2to7rI+p0UEtLEyrtr5BW7ftUlfPXhUiCUUKRGEAjEoAQk9Kzam1+zME32EY5hhSz3AFwhV4Z69AGYBQbkFgmKjoiV4gtBCpG3U7GgTH5NEqYHrANMH9fIeUDRNFI4D0TsQEz+KMiBNiKUF2DD/I1AEGMHVAAowdLQW5Gx588EEDDC6ccSWHQQCMC7ukDbJM0h5jRkuAFgHggVMjTohIsIAPQAEXPgvMn3V49NFHLTpiJXDCc6sBCNmFSV04+aJmpidNau7s3qUtDY3qvXBO45MjxkQ7t/WopqZBg/2XNTZwWdV1tWrv2qmGrdsVr6o2NT0+AuQrSEbzOvnKs2porNeWti5l0lklInldPH9SNY2tau/aozdfeU7bu1r05vkzau/aq9a2reo7f1Id3fvVtrVbV/vO6troNe0/fEzJZJXOnz2jmkRe27q26fWTZ0zjMDYyoFQ8osaWdvNl2da+VQuLi+rvv6rqmlrV1DZoa3uHp+GIJoqOkJF8RqdefUGJqlp1du9QIZ9TbVVSly6cUyaX0c6eHkuz3dnVbaBlbnJEM1Ojqt+yRfXNndq++5CiMQpvRQ0gEKq5RIMQAoR3Nl0LZx+uQLgCG7QCwapAy3jlI4HDLJEUUfvjsAfDxWkRVXt1VZUGBgfN85/7yDWAeYF7YMiYC1DVw3wBDoQYlrtKEzABFugboABzhqkj1QNIYNKYCVD/05ert1AOLDgTgjOx0KbzU8CvAt8JgAi+DwAPgAxABKBDu9yP6QHw40In3fiXAyeVfBBMze57BOQXZ/T/t/edQW5ddfuPdNWllbY3e71et3WPE6dBCIRAIBBCIJgOwzAvwweG4f3EVwbIwCfKkKEM7QX+DARCCYSWUEJCTSCxHXev12Wrt2qllVb16t7/PL+ro5U36yJ743iz587Ia0nnnnvuo3vO7zm/evrYfswmZuDy+LCqawPa29rR33cUM4kJlGwb3T2b0NTchqFTJ5GYGhXb/pp1m9DU2YPZuRQsu4S6ugb4PF4YdgnHD/0X4UgITe1rYBZMGFYRp/oPI9rcgZbOtTi679/o6mxF/6lTaFu9Fo1NjRg6cwLtqzaisakTo4N9mJqaxJbtu+DxBHDqZB+CPqC9owPHj/ehua0D6ZlJxCdHEQjHEGtsRnvHamTmMshk5jCbnMHE5DS2bd+BQDCMgmkhXBdzyndbJo4d3A/DF8Cqrm7RpZBojAwNIF/Io6trNY4ePoK2zk5k07NIJyYwNxtHOBpFtHkVutc7BEG8EzRBWKKFQHejEdAIaASuAAHlp8DdOBd6ClQKa0YJqDLPdO6jnZ9JlVSZZgp2hkZyV051ftfq1RLhQGFLMsF+GWq4UGVf7cyozBg0E1BQUyNBoU7nQl6HWglqACi8FVFYeKuLhU0q3weGedKEwj45fn5OgqDqSFBTUV3synHMs0WdfiFTx4UIgspH4CoVEB8fwGwyiZLtQqyxHa3NLZgcH0MqHZddeWNzB5qbWjA9MY7cXBL5gonm1k7UNTSjr/8IzFIe69dvQyQUgV2yMDUxiFQqDo83CK83iJDfi6GBPkQbWtDY0okTR/fJjn9qcgbugA+BcAAu20J7+zq43D6MDBwT8kcHxlisEYmZGaTTCbjdLlg20NzaiuHTJzCXnBJBzyqVGzZswtT0DLJzGXkmpmfiEokym0ojkUxh4+atCASC4o4Yn5rA+PiEvA+GgmiIxZDPZzETn5KolUIhj+a2dkyOjSI1M465dBLBSB1iTR3oXtcLtycgWSmlUJPWIFzBrNanagQ0AhqBK0FggSmCXVHY0h+BqmWSBAptClElsO+77z6JOqAfwRNPPCE787vvvlvaKEFLR0Cq+KmVoC8AhTGFffWxcHeuNABq90+NApM8kaxQi8DoCpoJSBQWRj1UEwT1/4Xhn6oyJMdFskOzCJ00b7/9dtEqUFsiu+ByCKdK4czrMTfCwuPiBIHBBiZQyon/hmUbcHsD8LgMlMwCLDsvtnu3xw+P24sSnRTtEhhAQLU9HfvSmSnAZSIUogOnV75DKQ+zmBbnRa8vJH0Uckl4DB8MbwCZzAz8Xj9cJTdMlwnLVRKhGwzUoVQsoZhNiNbE4wvB4w2ICaNgFsWp0PAYYnI5+vxeeFwmItEYJiYn0dOzDsFACKZpyzXgKsHn86BoWiiWLITCdeJjIRERNlAoZFEqFuV38vqDom0qFnKAZco1XIYX+UwKMHNOZmrDCxh+eAMhuFxeIRqVWgzVToraxHAls12fqxHQCGgEakRAmSKqMhlyQedOm4mHqCUgSaCWgMmFKKzpr0DfAarpmUOB5KBaK0DTA3fuDEekoGeVSQpi27Ik+RFLMTPfQnXkxcL/sw8SDJIU9qGICh0iGc7IPunvUB35sNCMQSSqiYgyp1SbNFRyJfZJE8TqVasQCAbFGZORHdSMKNOJ8svgXyEI8YJTi8HyOCGHdK6rDkOVIluU6iq9sbscVcHPVd2G8lbZYWdO1UcVekgxKdLS2d3zrYvRD7KvJ0VQNRQsJ9pBumCdSdF9OJGQVdeWuguSaZEplhnS6EaJeROUk6FlwgMbyeSMaIAMlyGCv76xCX4fazjwyrzX8vjL/hGqBIV6lGTItuWEM8pzpQIX1f/K4ZLl+3WyhC4S5qg1CDVOZt1cI6AR0AhcBQTUTpzmgmKhIILY5/fLzpv+CHzPHT01AwuFu3IcZNvHHntM2jIBEZ0aqYngrpy1Guq5M1/gH1Et0NkPNQo8hxEUNBMIWfH70bt5s0RPMEMkzRjuReLxHYHrSEn5t5yumvdE3wc6NNJPgfkUGAJKwsFxMWcCEygxIoJOjvfcc4+EdpKUcFfMbuk/cGa6iH3DBRRKXid+X4TchY9KYqgLNJvPGDCvZneEP4W6U2DJzbDGcn6D+a4olJ0yyaQlbrIKKd5UruwokQEcp83aTYCHhKVc+ZGpl60iDGZZhAulEt8LI4FtGPA4ZSpRYrGn6oqVArFTBbSSukFVIq34wdQeeVBWRmgnxasw1/UlNAIaAY3AJSOgog2qvfkVCaAjI4UptQDUIPBzClr6B6hcBlSpU3vA5EjcrXMXzsREND0wJfLJ/n6s7enBLTffXBHgFLwVQVM1UlUamkKdan9qL2giYFQFTQKsy8DQRIYoXiw8cTHfBxIQ9qv8FOh0yegHfsa8CDyoNWHmRRIFkge324Bp2RiIs5pjHkXLIQhORcelOeaJBnfrpXKSJRfcrnICIpv5Aua1BOqqDkGg0LcBswiXRTODk3xIMmBSkJeJA7wsgW1I2edCOoVkIo5IfQxB+juwdyYxYl8kPsWcmEBEg+BkZxLhzTFQy8C+qzNs8jshmZT0l3FognAZoOlTNAIaAY3Ai43AYgSh+prVGgOaAphLIRgMYMuWrWIWoKMhd/2MaGAkgkqDTMJBocucA5R4r7/rLgkxJJmgNoIRFDQ9LEZMeH1el0SBApxEgeeSLJBc0I+AfgrUANCR7nzmi4qGokq7oPqlWYR9/uAHP5A6EtX+DPRRoBbh/vvvF3LDnTUJwnODBeRLhiQVWkqC4NRcsmFZRVhWvmwqccPNzIwSKuERgSz3KdoRZbmnE4MjlGenz+LowedRMEuok4yVBtKpDHK5OSE9G7bthjcQEaPB0KkjOLj3vwiE6uDzesUXYeuumxGOMkLBhYH+Qxge7Ecmm5XIi5mZBLKZlFMAa/ctCMeaJTeDwuDyaMH8U6YJwos9y3X/GgGNgEbgchGoEqAX6oI7fHrFcyeuHAvpq0CBzayG1DKoJEWMVKCpgNkcueNnnQRWl6Qw4otOg9fv2iVJmM53KPJCLQWvy50/EzbRVEBiwT7oFEmNBQmK0kwownC+0EV+z+yMT/3tb/j6178uGRqrD/ZNksCETiQJPevXYzTtwt7BIgol+gIsoQbB0ebDZZcwMHAKExPDaG1pQcAfhG0XcerkSXR0ENuYjJNajWKhKKGEmewc6upiEk6Zio9g4FQfAoEwUnNpIROxWANmE3E0NDVi7eYb4faFkZtL4XTf8yhkZtEYa8TMTFwSNq3beiP8wQgMl4m+w88gMTmMdCaFjlU9mJiMIxQwkMnksOumWxFpWoUSfHAJ3bjyQxOEK8dQ96AR0AhoBF4yBKpzEFCTwDBC2u35OUMJ6fhHuz41BEODg2KKKBSLoilgumMKdgo47sxJECi8aeenQ+RihyIH1d+RKChnSvookCiQrFBo0keBjof0I7iY+YF90wTy8MMPSyVI+iiwb4lAkMIDjq2dhOfmm2/B/Xv2ILpqC45MupE3y86CS2hioP7AgI3RwTOYnBxBd/caTE1MSrrjgYHT6GhbJVgNDA5g9aoujI+PSVbLYF0MJXiEPMxODuD44f2SvtkxGbgRjUQxm4yjY/UqtPZcB7g9SE6fRTGXkQiJqYmzYlJY3b0RDa0MWzUkBfSZY88iOTWCuXQKoWgD5rJ52GYWhtePzTuuR317D2x3AG5bOU5e2WOpCcKV4afP1ghoBDQC1wQC1bt6er9TPU8bPkkCCyAxtJCOidzV8y99FSh0aZqg1oFJkehHQNOACpXkjak0z+yfBKL6UJoA5VfAthTqJBz0fWA1R46FWgyaHngNRltQo0CHRpXnoDotNNvTPEItB80Y6kVnS5IOkiD+5bHrhhux+457Uazvhe0OOv4AqtjQlerX5QpMF2Th7MgApidHsbl3k2gOMnMJZOfmEPBHJMdAIjmL7nUbMDJwGlYxi87udYi1rILHH0Ji8jQO7fsv3IZXTDcW81MkZlEs5tBGR9EbXgN/IIxCJo5ifg7xqXHMTI3D4wsgFKlHJNaASLQBtm2g79CzyKWmkExOwXJ74PMHgFJRwjRbV/Vg3bbdUhvCWCKSpAnCNTG19SA0AhoBjcDSIsBdN4UpwwoZpsh8Btx5U6OgfAQomGlyYAQB/QjosMgdv3LOozMkiQZ9DUgQqBEgwVCpktWIF5oMSBTYL4kCNRQkCvQtYGIfpnGmUyN32tWEQ/k8cLx8cfwSvVF+8V74oqaC2hC+iiUbvqYeuNt2wPDXOc56ZZJwgcSVNQBNglDCyPBpTE+NYvvWrTh14gRmk5OCRzBQDyufRTafx+brboYHJYyeOob4bAqr1m9BR/d6xMdP4/nnnobL8CDg9cNnuBEwPDCZByEYRM+Wm1CyXJg+ewbDQ/2wrBxKBRMtza2YTaYAjwud3RvQ0bkOxUwCqcQ4kjMTiDY2Im8WkU2l4PWGEK5vQ6xjnaRY9lymU+JCYDRBqOFR0U01AhoBjcByQkBpFShYVZQAd+QU0NQUUBDTB4EaBlZSpE8CQyF5UMDv37cPh48ccdI9B4OViAX+n30yeRH/v1jCJV5baRRGhodx8NAhISokCiQH9I/gOFjESeVSuBC27Ev1qcwOTBI0krJxZNJAwTLEOe/FIAhnh0+JBqF340YMnjmDbGYWebOE9tU9GD5xAIV8BttveZ34DLAuw9nhIaSyBfT0bkcmMY6JsUFE6uoQn5yBVSzBb3iRy2fR3tWF9jWbkcubmJudQnx6GFOTY3DbXjTWxzA2fhYbtmxDc1sX3G4/Jgb7EB8fRC47i6516zE+NYl0Mo5EIoWudVvRu+NWeENRpxL1EhyaICwBiLoLjYBGQCNwLSJQHUWg8hnQBMCdOyMcqMpXRZModOn8t66nR1T/DGF85JFHhEjQ4ZBRECp7Ik0S1CzQVEFnSGZqpFahOkkSr82+lWAn4WB0xZEjR4QokJRQo0GzA1/0h1B+D8qvgpguTLxUTUYY5jg4wyiGIvImzQuMYijnA1iSH8TRIJw5eRwTY0NY3bkK2XQGLpeJyXgCPb1bMT5wXMwCvdffJg6bsZAfJdPEXN5EZ/d6zEyOAlYOhtuFibEJmPkSPG4DRbOIxpYmtK/agHBdPSzLRCo1gbGzI2iqb0e0LogDB5/Dxm3XI9bQAqtooe/5ZzAzMYRMNoXu9b04PTAEvxdIpTO47oZbsbpnG2AELpoH4lKh0QThUpHS7TQCGgGNwMsAASV8GerIFMp88TOq/2lCIHmgjf/xxx8X0wNDJEkq+B1zKTBJErMbUnvAtiwkdcPu3ZVMjhfTAihtBh0Z6UzJnAdMskQSwv45jvPVe1jYN1MJDMyYeG4w7xAEsb0vXR4EpiuySybik+NIJqcRDdch6A8x1zLiiQQa2zpgF7NIzsTF5yA5PQ6jlIMnEEEgEoPhD2J6agyRkA8T46Mw8wXks3mEgxHUReswk5xGc+tqNLV2IJPJIpGclARUQV8dRkZOIzk7hW033IxwOAa3beH00f1IxsclUqK9cy1Onh5AfSwiIZQ7d+5GtKENJdvJzMijWpFwOS4ZmiC8DCa8vgWNgEZAI3CpCFRHPahiSipVMskCyQEdGJkngep/5kagDwGjH1gDglEKdCCkKYLVI2mmoIA/X9TDwnGp69O/gWYPRl3QgZJ+DtQosCgUnSUZZaHMGue7twpBGMojX1QahKUkCMyCQElbktoNbpcBw2YIIdNVlwCDSZPcThu3AcssStQDow4s2w2zZME0i/D53eLYSO1GqeSCYfjgD/iQL8xJLQfDbSCXy4jGhYSLPgjx6TF4AwbqmjqlPRMp5WanmV8RBcuC3xfAnBRuqkPRLMHvD8PwMtEVR1BFEMoZljVBuNQZottpBDQCGoEVisBC9b1KyUxnQOYzIEGg4H/yySfl79atW8XBkSaCe++9VzQIdDykRz5NEjQz8FgsA+NiEKvr8Tv+n0SBfhHUJLBfmi6Ys4HXpcMkozCoreD1FtMgDFKDMFRATgjCxfMglEW+M+byv04KZad3JwlSJS+yk77Z5SRC4ssy2cZJGGWzrcsNt+EkS2IhJxVHUSopIW3B5ZbEyayIxNzKssNnTiX2K8Wf5Pqs78AkTOzBAuwiUzTBdgUkkyIHyLLSPEy4xWRhlUqwpU/W7bDh9Zwb3ihlGBRfcjI+V26Ud+R069x4telGkQmtQVihi4S+bY2ARkAjUI0ABQX9EPiXWgFVWppCnO8Z/UDHQlWK+qmnnhJycOedd1Z8E86XAOliSPMavDZzIFCTwCRO1CxwLPRNoPmBuRSoYVB+EFLMqmxi2HsRgqBKP6tCTKpckdSOoGAvFymStMUU+hTaUjOBZzoFoBShKJd3kgyLbOg2mOLYKawlxRcog8t/ySjcUj/ByazohHWW6zfM104qV4Bif04aZiEiLLTESAe3R+o4WCjBbTkFoSwWiGINKTdgOoN1CJrUophHWxEEKSNdcqgRi3U5ZaXLBEEqUM0fTj/l+3AKQ+paDBd7gPX3GgGNgEZgpSBAoZljgaaJCSkMRcFMAa5CFelHQBMENQx33XVXJcHSleCjHCpVtUdqElSOBmovGJpJjQWdIhl5QaJCCSkahMELaxAcguDs2KsrTzraDPoulHfyLu72ufV3BDBNC3Cx4uULFfTOztuSfA7Onl9RB0dYS8nostpBiEa5vRCISq6GqiqLQhgcTYGT3pnEBfBKjQWp+gR3iU6ftlR+dHHshqr5wF5JZCq1mhyiUq7UyNgOIRzlAlIcHw0RjhbEIUDVmgRNEK7kSdbnagQ0AhqBFYBAtb8CTQuskUATRKFQkLu/4447xFeAwlpFLSwVLBTeJCc0e/C6jH6gGYSVI2l6IFFobG7F2BwqUQyOsD/XB6G64FI+n0NmLgWzkBNSE4rEZDdNJ0OzaCIUDiEUq4Ph8sJllZCcHoPbE5QaB5VtdfkGnTwLNgrZNEqFHPzhOrjcjg8Av4tPTwlxiDY0olg0kcvOoWSy2JKNcF0Ufn9Q/BZkf14W5KzwWMznkM9l4A+F4fEExbExm51D0czBZ3gRCoVh+OinkMNcOoFgXRSGN+AUa5LaEc7hKCgsmPk8crksIpEwWCYyzwiL9BysQk5oTaQuhkCQdTMc3LQGYameYN2PRkAjoBFYIQioCpJ0ViRJYIphFfWgdquXa2K4EITUXJAoUKPA8EhGPzDbYnf3WrzlrW+Fp6Eb+4eLKNheUbEvVqyJQrNkmRgdHESpOIdI0CsCvLWzG5ZVwvTEmJTRdhleNLV3IRqOIjeXxNEDzyAUbcH6LbvOrZJYVhaUbBNTI2cwNTaCdb3bEAhHxeEwn0vjyIF9CAf9WNe7A5NTM8imEojFIhhjOub2TjS1tAGGV3I1OgLdlvDI6YmzmBobRs/GLfDX1UtWxVQiibpwHeJTQ2hsakKspQvZ5DT6jh5C7/brEY42CdmQ6o1VnhW25URgDJw6ic1bNiPc0ICzZ0eRSsSlRsbM9BSidRG0r14P2+2v/Axag7BCJrW+TY2ARkAjsFQIKH8E7nipNRA1/1U4lH8EiQE1GczfQMfGV99xJ/xNa7F/1EShxOiCRQhC2c9Ayl+PjcBvWGiI+NHXdwyNbV1CFEJ+D1ra2zE0ehaNzW1ob+nAzOQ4+o/sQ6SxHRu237igjLJz0xYsJEZPYeDkcWzasRvhaIN8zrwI/ccOoSEaQc/mXZiOp4BiFm2tjTh2/DAamlrR3tkFW+ozOBi6bBMlk2RlFGOD/diwbRcC0Rakk9Mo5YuIhWPoP74XkVgUrV0bYOdTePZf/8C2G16BaEMrbIPai7KfAdNF2ZaUmU5MT+DIQabSvh7hplaMj08gl0mhtaUZZ4cG4PN5sKpnC+A+N422kD7tg3AVnm59CY2ARkAjsMwRUFkZq+smLLVZ4XwQKVMH/ROUQyM1Gr5AEGNzhviseS0AABZQSURBVJMHocQIACebYvUh4xbnPPoZMAyxiPj4MDJzaSEIJ/uOo6k+hLZVa9DX34+mlkY0xpqQmp7G2MggfJFGrNt2w6IEgRaNXGIU/UcOYMO2GxCMxJBlOujEDMZHBxD2edC98XopweyFidnEBCanxtG5uktqLJTglSgEwdG2JDIhPjmKkdNHsbZ3J7zRVhiWCTNbwOjAILLpaXStXYtIawfchRSe/fffsWXnLQjGWmC56fw47x3pYn92Cdl0Agf2PoftO3ci3NSJguk4PxZzKYwMDaKlpRX1zW1OmehKZIeDoCYIy3zS6uFrBDQCGoGrhcDCkDjlWHg1rr8wPJPv6dM/EC/iWUmUZDghgov6IJRD+ewS0ok4ZpMziNY3SGGj44f2oTHiRUvnGhw/eQqNzfXwM1ywWMDE8AhsXwQbtu+G1+dzgiDo/V9RnNjIkiAcPYT1W68Tn4bJiXGpvDh5dgiG28KGrTfB8IWQSyeQmIkjFImgrr5echu4XIxQcBwa3TZgGC4kps9isP8g1mzcgkBDOwzLhlkoIp1MYHLkFJpb29HQuRaGlcUz/3wKm3fehHB9i+NsKIg4ERgkCG6YyMwmcGDfXmzdvgPR5k65Vn4uJeMMhEKINjbD4/UJGXAIghPdIARBjBY6iuFqPN/6GhoBjYBGQCOwhAhwv3wmXsRzAw5BWNRJUaQ6HQEtpBPTSMfHEYmEYLm98AVjmBgZAEpzqG9sxcRMAg1NTfCQZ+SzGDzZB8sIo3fnjRK7aBaLEtHh9nDnzwRJNjLTw+g7ehCbtu2S6ovJ5CzMQh5DZ47DZeWxeectkt0wOT2KcDgC2+2BPxKDbZZg5rIINzTD4wlIiCS1CDMkCKcOo6d3C0INbUjEZ5Cdy6KlsR6nTxxGXbQebWs2wF1K4+l/PoWt19+KusZW5OjMmJ6Va3j9IQmvdFmsHDmNA/uew/YdOxFr7kR2Lo2Z8VF4PF54gyEYwTqEI3UVJ0yHIDgMQROEJXxYdVcaAY2ARkAjcPUQIEEQDcIFCAJzD1DgmWYBZ/qOIj7aD5/fB3gCWLdpO7xeD84On0bJtkQD0NLRBa9hIJeeQd+hvSjBj94duzE9MSKah029mxEI18NiwiOziInhfpw+cRQbNm9HS8dquFxeSZvcd3Q/7GIam7ffiOl4HEOnjiDo98O0DXT3bkN+Lo3J0QFs2n4jIrEmKTJlFwsYHTot5KJ74yY0dnRJaejpyUmEggEUs7NoaW1HINqE9Mww9j37NDZt34321WsRjydxpv8o1m3YhPqWTieZUzGPibNDOHxgvySeYrvxs6MYPHFMkjuVXAZW9WxC5+rucuYmpUHQBOHqPcX6ShoBjYBGQCOw5AhUCAJNDMXzaxCcpEo2cpk0irk5CQd0G14EInXwGAaKuQxMmPB4/PAyZFAyJjI8cJaZDhAMRlEo5lEsFREKheBxO7kR2Gcxn0Uhn5PduN/nl7wIxZIlYY2wTQQDUZSKRXEMZMIkajkCkXpYJVPOlZoNbp+4KjKXQj6fgZmfEy2A1xcUn4tisSAaEI/Lhs/nh+X2wCxmkc2k4AuG4Q+EUDRNZDMZBIMh+FTWSdtGIZ+XMMlgIAifPyghqrnMXDnvgQvBcBg+P7M1ln8eSSKpCcKSP6y6Q42ARkAjoBG4eghcCkFQo6muT0B7Pw9mKBSyIEkMHWdGlTVRFOyucr5kuJV1X85zLPNOkiLnnZN1QN6JUySzMDpKerc17zQp50kqZ6PiACj9iW+D4xQoUY/UeqjsTuoGKkkOyn1Xcjepq5Ng0PeAgZPqbhepS6GuM88H5ss6LcgHpU0MV+9Z1lfSCGgENAIagSVEoFaCIGJdkYIyQagI6HKIoDM8JfCdzENOfoVyzF/5hHOSK1YJb3WucyLPV8WTSDhURkVDsjLbbkegqzHM50muZCKooFVu5eztyxkTz02SPA/sC/M+XgT06vzMVU01QVjCh1V3pRHQCGgENAJXD4FaCYLI1jJBUJmN1Wa78r5q+OfIzYXS+BwpXP3lQuHu6Bso/Of7c7QALzhrsW4WgXNhvYXqJhcmBwtyMV/kp9IE4eo9y/pKGgGNgEZAI7CECNRCEJbwskvWVbUVYbFN/MW+r3kg59EUnK8fTRBqRlifoBHQCGgENALXAgIvC4JQBnKxnf8lKhQu/adYCoKwxo/GQM1GjHPGyBwWrNz52c9+Fq6HHnrI3rNnT6VM56XfjW6pEdAIaAQ0AhqBxREo2TbOTBfBcs/MgyAefuIcMJ/sR2NXhcAVEAS3XUBb1MCu7gCaNEHQj5VGQCOgEdAIXMsImJaNgbiJfcMFZItOHQan+LImCIv+bldAEIwyQbiOBIF1nVS6xct4QLQG4TJA06doBDQCGgGNwKUjYFrAyGxJNAjpLBXymiBcEL0rIAisJdHZYGD7ah8aWNfJyel86T9WVUtNEC4LNn2SRkAjoBHQCFwKAlLC2QamMjYOj+QxlcyjZHtgScohJ8+AOs6RiwuCDC5PxF3KCK/FNucLjHzhWB0HSScCwwMTQaOIta0BbGr3IuTUddIE4Vr8ifWYNAIaAY3ASkdAEYScZWNspoTBiTkkczbyJQOW7fgjOIWG5vMAVRIIlD97ITm4mKvgYqjXQjEuXUC/OL/v+ca6+LikJoPLRthTQkudgZ42H1oiLIpVQfayhqk1CJcFmz5JI6AR0AhoBC4VASnl7HIhZ9pIZiykchYyRcCyuPl1hOFCgnBhcV4rQaiFHJzDVC71Fl+Edpd+j6znQFIV9LrREDFQF3DBR+6l+EStt1++G00QXoSfdTl3ubBU6+Xey2LlZa9mydnLHbc+TyPwYiGwop//SqVGgEmRaXJgfQTHG0EfV4JAhVgxFbUbMNyO+6eTSLpMvTRBuBKIX/7nKsFfvUixuAjZu9vtloIgpZKTz9wwnCLqUsfdsuTFz9iO7atJhEJOiqxwOwCgWCxKO4/HU9kdqP74uepDdhXl9KUL+1a7ipf/L6PvcLkioJ7d6jnBOcDP1RxSz3H1PFLzSs09yQxYBqH6uWe7hXNJ9a/mkcLOtiyUqubptYapQwUcYbVYosNq+eV8zzMuJ0HxYudcpnQ87/WvBroXGvO596jSS5+DoWR/VEmf54s61TpyrUGoFbFl3J6LzeTkJILBIOrq6jA1NSUVw9ra2pDP5zE+Po6GhgY0NjbKXXIx4meHDx9GV1cXOjo6KqRBEQm/3y+fsR+2TyaTePrpp7Fq1Sps3769QhB8Pp8QjEwmI1XWAoEAJiYmpP/Ozk65bkXVWK1yvIIQnWX8U+mhX+MImKaJmZkZefabm5tFkPPFz+PxOFpaWhAOhyvPdDablYQz8uz7/RgbH0cwEEAwFBIywTnJ558V/cwyUU8kEvjPf/6D+vp6XHfddRXCrcg65xLP41zivB4ZGUF3d7fM32qiwXn30h3nCrNFRNt5hsaWiipUN1Fi8Hzq9wsRhFqIwvz1rz52td5juaaj8vaskIN5UlZlxKnpdjRBqAmu5d349OnT+NGPfiSLyCtf+Ur861//Qn9/P+69915ZYB577DHs2rULb33rW2UxSqfTOHPmDH7+858LoeDix0VLkQcShje96U0YGBjAqVOn5HsumseOHZNFqqenR/rhArVt2za0trbKgsdr3HDDDXj00Uexd+9e3HHHHVIDXWkguOByUVy4S1re6OvRv1wQ4KI5NjaG3/72t0J477//foyOjuLUyZNobmnBn/70J/ls9+7dFa0b59FDDz0kZPgVr3iFzCkScwp49vH6179e5tiTTz4pc5LaPM4/ziWSig0bNoBknPNpzZo1WLt2rbTduXMnrr/+erkm5zPn45YtWypQx2IxNDU1wavKCl/1H+GFgnZehDPU8dKOl9pl8NJG+dK1eiGOjjZ3/mCLS0V7/ixNEF663/SqX5k7m0ceeUR2GhTex48fx4kTJ2TR4g6HixwXng996EOys//rX/8qWgAK9dWrV8sCNjfn1CfnebOzs/jf//0E0uk50TIcPXpUziOJ4KJGrQD7Y/8kAOzjN7/5jeyYuOBxLFxoo9Go7IK4KOZyObzzne/E29/+dlDroA+NwLWGAJ9/PuO/+93v8MQTT+C2226TOUWSTOG9b98+vOpVrxJBvba7G2u6u/HPf/4Tv/rVr3D33XcLWf72t78t82Hz5s3y3S233IIbb7wRBw4cwMGDB2V+DQ8PC0mgcCdpXrdunWjm+Jfzl3OJmj9FFjh/Saw5bzhGEo83vOENeNe73iVz7KUz2y2l2v9aexqu1fEsZsipfayaINSO2bI9gzv8wcFBEcqpVApHjhyRRYg7FqpEKaS5yHz0ox+V76lRoKaBC9ZrX/taeSm76M9+9jP85S9/wUc+8hExK3BRZF9c9EgcuKDxLxcpLpo33XSTLG59fX1yDe6Mzp49KwskFzUevP4//vEPvPGNb8T73/9+2THpQyNwrSCg/HdIZEkQqP16/vnnRfhSsJM808zAeUAhTg3bzTffjI0bN4LzhRq8j33sY9KO70m4SQo4/0imSSpItPfv3y9Emxo3EmYKfBIBzkkSA5obSLA5h9jnyZMnZU6TzLNPziNq7Wjqo3bhwx/+MKhJeGlNDdfKr6jHUQsCmiDUgtYybstFjQKZiwp/dAr1v//977LwkDRQoPPF9+9+97tlgfrDH/4gixYXQapAKbiVv8FPfvITPP7442Ke4ELJBZKLHBckLkRc1Hg9kgvugG6//XZRp1JrQaLAz7iAkRzwcy6ENDVwTCQlH/jAB15Ctegy/qH10F80BBRBoL8Nn3maDDhf7rzzThHyfObpV3Po0CF5hvmcc05Qc/frX/9anmfOoWeffbbSfv369QiHQmjv6BCNA7UMJNE00dFEQW0bTW/sl9eMRCJCEKiVe+aZZ8Q3iPPnueeeE3JAskIzBNtw7pGwkyDUx2JwvaS+CC/az6I7fhER0AThRQT3WuqaCxlVmd///vdF1Ui1JNWi3KVwceNCwgWKuw/uePiZUp9S+PM7mg3oaMWHhtoHOjl+/OMfF78D2lR5UCOgTANcGEkIqD6lqpO7rocfflj6estb3oIvfOELYtrgokeSQt8HLoJcXKlB0CaGa+kJ0mNRCJBs06fghz/8oTyv99xzj/zl3FBaM5JtziWSAgp4Pt8kDCTf9Nnh/GE/9913n2gFuMMnGaDQJ0mgloH+BRT2nG+cS9Qs0Jzxhrvuku//3w9/CBKM173udTIWkn5qAjnPOIc4RmoxPvI//4P6hgb9A2oEakZAE4SaIVueJ3CR4gL24x//WHYwmzZtElU/Fx4KeuX4xMWFuxfuRKg5oAqUWofeTZuQzeWkLfuiapMmi09/+tNiCvjyl78sak6qPpVDFBdLXuO9732vLIR8/41vfEOcpt72trfhgQceEBsrdz5cQN/85jdXFsH3ve992sSwPB+1l/2ouWiS2NIHgMSYJjk+8yTSf/zjH8XMwB08tWkU/Hy26cfDefKpT31KiAH9F6hpoImOhFn5B1Dr9rWvfU20CCTqKlyS85KfUbNGksF5+53vfEe+p3bve9/7nhADEpOZeByvvO02ISIkJaJBKJvxXvY/jr7BJUVAE4QlhfPa7oyC/Re/+AX+/Oc/yw6DtlIuUtQAcEHr7e3Fvr17EQqHKzZOahhICii8+T01EVwAuTj++9//xmc+8xlZ+L70pS/JDoYRCsp3gOdRg8AFjdoBkoEHH3xQCAFNE1/84hdll0XCwAWUOyHaYGnW4DnaB+Hafp5W8uhIEBjF8NOf/lT8CvieGjeaAmhWIBlmtBD9dhitwLYkCp///OdFK0AiQSfdD37wg2JKKBYKqItGRchzjrAt/XZUjhLOJc4REoT3vOc9QhC++c1vylykiYPRSSrCgYSe85AaQhJ/Oh2/tE6KK/lJWd73rgnC8v79aho9hTs1CFzIuGvh4sLFizsfxmxTWCcTCbzq9tuFMFBFybb8jgKedk/lpMjFjWFW1CBQ4H/3u98VswR3MCrpERdN2mv37NmDu8pq0a985SuycHHh5CLJNrwunRlf/epXC0F4zWteI2FiNDG8dJ7XNUGrG68kBOjDMzuLX/7ylyLkGXXD3Tr9dkik6RdAUwH9AvgsU4DTtEbB/bnPfU6edzr1/t///Z+Y5CjMGbVA0k4TAT8ncedcUgd9dEgKSA5IrkkkvvWtb0mfJBK8Fp0YVT6RHTt2yPylFoIkhARBHxqBWhHQBKFWxJZpe2oPaPfkosLFjD4I9HpuamzEc3v3ymJEdSQFcnt7u/gkMKLgb3/7G2699VZxImQYo8oCR3MC237iE58Q3wQKfQp5qjyVMxehIlmgepPXI5H46le/KiSAPglUy3JBZHTubColCyAdq2h+oDPXwkyMyxR6PeyXGQLMWnjg4EHZwVOwq/DDzo4ObNy0SeYDn+WhoSF5vmmmo5OiIgj8nmSCu376FZB4c3694x3vEK0Zc5LQx4BHddZR/p/9kYCwHUk5fR/oAEwtHLV9nDPUCPL6NBGSnNC8Rz8ffWgEakVAE4RaEVum7Wn35C6Du34uFlyg6JNAPwJqEpQw518uQFT3U+jze6pAudgxnEoRBKo8SQaoiWC/XJCqF7TqFLM8h7scag2okSBZod2UpIQaBuZb4Ivj4GLLHAjK/qo1CMv0gXsZD5vPL0kuo3wo7DkXaFpQc4jPLOcN5xxV/BT89Pvh/PnkJz8pGjlq86hFoAaCfgfMjcB59vvf/17IAg/OGzWnVBIxEgASewr+p556SogE5xLnLK9HQs85xs95bZJt9s3z9KERqBUBTRBqRWwZt+fOgn4CJAhUUSqCoIS+WpC406dntdIEsD0XKFWrQYVJcpGjFoDaBP6/miAs3P1wh8MFi9fnOY1Mrex2S590ZKQ/BLUN3AVRk8EdkiYHy/hhezkP3bYrGi+q7ulvwF0/SQHnhppHhIBOinzu+T1NABTuyvGQGjf6GpBc87lnX3T+5ZxQmgM1B1S/nCM0I1DDx7nEvlSmRBXKzLnE9tQ2cC6RxOhDI3A5CGiCcDmoLdNzqnckCxeyhbd0saQq1Ytg9f/PB011kaaFgr96LDq98jJ9uFbgsBWBvtBcWlicbOG8UudWE4GLQVndpyLi6hw9ly6Gnv6+FgQ0QagFLd1WI6AR0AhoBDQCKwQBTRBWyA+tb1MjoBHQCGgENAK1IKAJQi1o6bYaAY2ARkAjoBFYIQhogrBCfmh9mxoBjYBGQCOgEagFAU0QakFLt9UIaAQ0AhoBjcAKQUAThBXyQ+vb1AhoBDQCGgGNQC0IaIJQC1q6rUZAI6AR0AhoBFYIApogrJAfWt+mRkAjoBHQCGgEakFAE4Ra0NJtNQIaAY2ARkAjsEIQ0ARhhfzQ+jY1AhoBjYBGQCNQCwIvIAgsLMLCHpeSPreWC+m2GgGNgEZAI6AR0AgsLwRYs+eBBx6A68EHH7RZJYzld+GSf/WhEdAIaAQ0AhoBjcAKRYBFwVha3LVnzx6blb9UERJdTW+FPhH6tjUCGgGNgEZAI1AuO86Kpa5HH33UZrUxlvbVWgT9bGgENAIaAY2ARmDlIqAqh5IXuIrFol3RGti2NjOs3OdC37lGQCOgEdAIaAQqCPx/dcAgO63RxqgAAAAASUVORK5CYII=;" vertex="1" parent="1">
                    <mxGeometry x="1060" y="140" width="520" height="288" as="geometry"/>
                </mxCell>
            </root>
        </mxGraphModel>
    </diagram>
</mxfile>